<svg id="Raggruppa_21108" data-name="Raggruppa 21108" xmlns="http://www.w3.org/2000/svg" xmlns:xlink="http://www.w3.org/1999/xlink" width="173.882" height="131.742" viewBox="0 0 173.882 131.742">
  <defs>
    <clipPath id="clip-path">
      <rect id="Rettangolo_146480" data-name="Rettangolo 146480" width="173.882" height="131.742" fill="none"/>
    </clipPath>
  </defs>
  <g id="Raggruppa_21102" data-name="Raggruppa 21102" clip-path="url(#clip-path)">
    <path id="Tracciato_70257" data-name="Tracciato 70257" d="M334.16,594.936v14.571A15.39,15.39,0,0,0,349.5,624.851l-45.131,1.289c-8.439,0-15.344-8.194-15.344-16.634V594.936Z" transform="translate(-242.478 -499.115)" fill="#1a6fce"/>
    <path id="Tracciato_70258" data-name="Tracciato 70258" d="M301.77,624.026a15.068,15.068,0,0,1-11.225-5.319,17.991,17.991,0,0,1-4.636-11.817V591.817h46.135V606.89a14.859,14.859,0,0,0,14.842,14.842l.014,1Zm-14.856-31.2V606.89c0,8.593,6.935,16.131,14.842,16.131l39.983-1.143a15.875,15.875,0,0,1-10.7-14.989V592.822Z" transform="translate(-239.86 -496.498)" fill="#272372"/>
    <path id="Tracciato_70259" data-name="Tracciato 70259" d="M350.171,594.936v14.571a15.39,15.39,0,0,0,15.344,15.344H320.384a15.389,15.389,0,0,1-15.344-15.344V594.936Z" transform="translate(-255.91 -499.115)" fill="#6694ee"/>
    <path id="Tracciato_70260" data-name="Tracciato 70260" d="M350.171,634.006l-45.131-1.77V630.22h45.131Z" transform="translate(-255.91 -528.716)" fill="#1a6fce"/>
    <path id="Tracciato_70261" data-name="Tracciato 70261" d="M597.975,632.453h-7.467a.5.5,0,0,1,0-1h1.912a15.874,15.874,0,0,1-10.291-14.842V603.9a.5.5,0,0,1,1.005,0v12.705a14.859,14.859,0,0,0,14.842,14.842Z" transform="translate(-488.37 -506.214)" fill="#272372"/>
    <path id="Tracciato_70262" data-name="Tracciato 70262" d="M12.127,104.111H144.8a9.007,9.007,0,0,0,9.007-9.007V12.126A9.007,9.007,0,0,0,144.8,3.119H12.127A9.007,9.007,0,0,0,3.12,12.126V95.1a9.007,9.007,0,0,0,9.007,9.007" transform="translate(-2.617 -2.617)" fill="#1a6fce"/>
    <path id="Tracciato_70263" data-name="Tracciato 70263" d="M27.278,102.158h134.4a8.146,8.146,0,0,0,8.146-8.146V11.265a8.146,8.146,0,0,0-8.146-8.146H27.278a8.146,8.146,0,0,0-8.146,8.146V94.013a8.146,8.146,0,0,0,8.146,8.146" transform="translate(-16.051 -2.617)" fill="#8eb4fb"/>
    <path id="Tracciato_70264" data-name="Tracciato 70264" d="M566.52,628.048H551.563a.5.5,0,1,1,0-1H566.52a.5.5,0,0,1,0,1" transform="translate(-462.305 -526.051)" fill="#272372"/>
    <path id="Tracciato_70265" data-name="Tracciato 70265" d="M842.769,1h-2.192a.5.5,0,0,1,0-1h2.192a.5.5,0,0,1,0,1" transform="translate(-704.771)" fill="#272372"/>
    <path id="Tracciato_70266" data-name="Tracciato 70266" d="M882.049,68.972a.5.5,0,0,1-.5-.5V8.647A7.652,7.652,0,0,0,873.9,1H868.6A.5.5,0,0,1,868.6,0H873.9a8.658,8.658,0,0,1,8.648,8.648V68.47a.5.5,0,0,1-.5.5" transform="translate(-728.279 0.001)" fill="#272372"/>
    <path id="Tracciato_70267" data-name="Tracciato 70267" d="M952.112,466a.5.5,0,0,1-.5-.5v-6.963a.5.5,0,1,1,1,0v6.963a.5.5,0,0,1-.5.5" transform="translate(-798.342 -384.257)" fill="#272372"/>
    <path id="Tracciato_70268" data-name="Tracciato 70268" d="M952.112,524.573a.5.5,0,0,1-.5-.5v-3.095a.5.5,0,0,1,1,0v3.095a.5.5,0,0,1-.5.5" transform="translate(-798.342 -436.646)" fill="#272372"/>
    <path id="Tracciato_70269" data-name="Tracciato 70269" d="M86.033,102H9.509A9.52,9.52,0,0,1,0,92.488V9.509A9.52,9.52,0,0,1,9.509,0H110.92a.5.5,0,0,1,0,1H9.509a8.514,8.514,0,0,0-8.5,8.5V92.488a8.514,8.514,0,0,0,8.5,8.5H86.033a.5.5,0,1,1,0,1" fill="#272372"/>
    <path id="Tracciato_70270" data-name="Tracciato 70270" d="M737.379,1H720.487a.5.5,0,0,1,0-1h16.892a.5.5,0,0,1,0,1" transform="translate(-604.023)" fill="#272372"/>
    <path id="Tracciato_70271" data-name="Tracciato 70271" d="M72.881,131.568H199.709a3.9,3.9,0,0,0,3.9-3.9V52.659a3.9,3.9,0,0,0-3.9-3.9H72.881a3.9,3.9,0,0,0-3.9,3.9v75.007a3.9,3.9,0,0,0,3.9,3.9" transform="translate(-57.869 -40.904)" fill="#fff"/>
    <path id="Tracciato_70272" data-name="Tracciato 70272" d="M415.338,584.964h21.4a1.418,1.418,0,1,0,0-2.837h-21.4a1.418,1.418,0,1,0,0,2.837" transform="translate(-347.253 -488.369)" fill="#8eb4fb"/>
    <path id="Tracciato_70273" data-name="Tracciato 70273" d="M156.076,781.258h102.9a1.552,1.552,0,0,0,1.547-1.547v-3.095a1.552,1.552,0,0,0-1.547-1.547h-102.9a1.552,1.552,0,0,0-1.547,1.547v3.095a1.552,1.552,0,0,0,1.547,1.547" transform="translate(-129.64 -650.235)" fill="#6694ee"/>
    <path id="Tracciato_70274" data-name="Tracciato 70274" d="M346.936,779.144H259.88a.5.5,0,1,1,0-1h87.055a1.046,1.046,0,0,0,1.045-1.045V774a1.046,1.046,0,0,0-1.045-1.045h-4.1a.5.5,0,1,1,0-1h4.1a2.052,2.052,0,0,1,2.05,2.05v3.095a2.052,2.052,0,0,1-2.05,2.05" transform="translate(-217.602 -647.619)" fill="#272372"/>
    <path id="Tracciato_70275" data-name="Tracciato 70275" d="M215.957,811.384H213.98a.5.5,0,1,1,0-1h1.977a.5.5,0,1,1,0,1" transform="translate(-179.094 -679.858)" fill="#272372"/>
    <path id="Tracciato_70276" data-name="Tracciato 70276" d="M160.1,779.144h-6.644a2.052,2.052,0,0,1-2.05-2.05V774a2.052,2.052,0,0,1,2.05-2.05H236.61a.5.5,0,0,1,0,1H153.459A1.046,1.046,0,0,0,152.414,774v3.095a1.046,1.046,0,0,0,1.045,1.045H160.1a.5.5,0,1,1,0,1" transform="translate(-127.023 -647.619)" fill="#272372"/>
    <path id="Tracciato_70277" data-name="Tracciato 70277" d="M702.792,772.955H692.734a.5.5,0,0,1,0-1h10.058a.5.5,0,0,1,0,1" transform="translate(-580.74 -647.619)" fill="#272372"/>
    <path id="Tracciato_70278" data-name="Tracciato 70278" d="M172.295,155.384H153.446a2.6,2.6,0,0,1-2.589-2.589V130.01a2.6,2.6,0,0,1,2.589-2.589h18.849a2.6,2.6,0,0,1,2.589,2.589v22.784a2.6,2.6,0,0,1-2.589,2.589" transform="translate(-126.56 -106.898)" fill="#edf4ff"/>
    <path id="Tracciato_70279" data-name="Tracciato 70279" d="M169.678,153.268H150.83a3.1,3.1,0,0,1-3.092-3.092V127.393a3.1,3.1,0,0,1,3.092-3.092h18.849a3.1,3.1,0,0,1,3.092,3.092v22.784a3.1,3.1,0,0,1-3.092,3.092M150.83,125.306a2.089,2.089,0,0,0-2.087,2.087v22.784a2.089,2.089,0,0,0,2.087,2.087h18.849a2.089,2.089,0,0,0,2.087-2.087V127.393a2.089,2.089,0,0,0-2.087-2.087Z" transform="translate(-123.943 -104.281)" fill="#1a6fce"/>
    <path id="Tracciato_70280" data-name="Tracciato 70280" d="M211.118,163.1c0,2.053-1.4,3.716-3.118,3.716s-3.118-1.664-3.118-3.716,1.4-3.716,3.118-3.716,3.118,1.664,3.118,3.716" transform="translate(-171.883 -133.711)" fill="#1a6fce"/>
    <path id="Tracciato_70281" data-name="Tracciato 70281" d="M197.6,216.612c0,4.167-12.661,4.167-12.661,0s2.834-7.545,6.331-7.545,6.33,3.378,6.33,7.545" transform="translate(-155.151 -175.394)" fill="#1a6fce"/>
    <path id="Tracciato_70282" data-name="Tracciato 70282" d="M421.3,155.384H402.451a2.6,2.6,0,0,1-2.589-2.589V130.01a2.6,2.6,0,0,1,2.589-2.589H421.3a2.6,2.6,0,0,1,2.589,2.589v22.784a2.6,2.6,0,0,1-2.589,2.589" transform="translate(-335.46 -106.898)" fill="#edf4ff"/>
    <path id="Tracciato_70283" data-name="Tracciato 70283" d="M418.682,153.268H399.834a3.1,3.1,0,0,1-3.092-3.092V127.393a3.1,3.1,0,0,1,3.092-3.092h18.849a3.1,3.1,0,0,1,3.092,3.092v22.784a3.1,3.1,0,0,1-3.092,3.092m-18.849-27.963a2.089,2.089,0,0,0-2.087,2.087v22.784a2.089,2.089,0,0,0,2.087,2.087h18.849a2.089,2.089,0,0,0,2.087-2.087V127.393a2.089,2.089,0,0,0-2.087-2.087Z" transform="translate(-332.842 -104.281)" fill="#1a6fce"/>
    <path id="Tracciato_70284" data-name="Tracciato 70284" d="M460.123,163.1c0,2.053-1.4,3.716-3.118,3.716s-3.118-1.664-3.118-3.716,1.4-3.716,3.118-3.716,3.118,1.664,3.118,3.716" transform="translate(-380.783 -133.711)" fill="#1a6fce"/>
    <path id="Tracciato_70285" data-name="Tracciato 70285" d="M446.6,216.612c0,4.167-12.661,4.167-12.661,0s2.834-7.545,6.33-7.545,6.33,3.378,6.33,7.545" transform="translate(-364.051 -175.394)" fill="#1a6fce"/>
    <path id="Tracciato_70286" data-name="Tracciato 70286" d="M670.3,155.384H651.456a2.6,2.6,0,0,1-2.589-2.589V130.01a2.6,2.6,0,0,1,2.589-2.589H670.3a2.6,2.6,0,0,1,2.589,2.589v22.784a2.6,2.6,0,0,1-2.589,2.589" transform="translate(-544.359 -106.898)" fill="#edf4ff"/>
    <path id="Tracciato_70287" data-name="Tracciato 70287" d="M667.688,153.268H648.839a3.1,3.1,0,0,1-3.091-3.092V127.393a3.1,3.1,0,0,1,3.091-3.092h18.849a3.1,3.1,0,0,1,3.092,3.092v22.784a3.1,3.1,0,0,1-3.092,3.092m-18.849-27.963a2.089,2.089,0,0,0-2.087,2.087v22.784a2.089,2.089,0,0,0,2.087,2.087h18.849a2.089,2.089,0,0,0,2.087-2.087V127.393a2.089,2.089,0,0,0-2.087-2.087Z" transform="translate(-541.743 -104.281)" fill="#1a6fce"/>
    <path id="Tracciato_70288" data-name="Tracciato 70288" d="M709.128,163.1c0,2.053-1.4,3.716-3.118,3.716s-3.118-1.664-3.118-3.716,1.4-3.716,3.118-3.716,3.118,1.664,3.118,3.716" transform="translate(-589.683 -133.711)" fill="#1a6fce"/>
    <path id="Tracciato_70289" data-name="Tracciato 70289" d="M695.607,216.612c0,4.167-12.661,4.167-12.661,0s2.834-7.545,6.331-7.545,6.33,3.378,6.33,7.545" transform="translate(-572.95 -175.394)" fill="#1a6fce"/>
    <path id="Tracciato_70290" data-name="Tracciato 70290" d="M168.518,358.24H158.469a1.507,1.507,0,0,1,0-3.015h10.049a1.507,1.507,0,1,1,0,3.015" transform="translate(-131.681 -298.012)" fill="#8eb4fb"/>
    <path id="Tracciato_70291" data-name="Tracciato 70291" d="M174.345,384.444H158.468a1.507,1.507,0,0,1,0-3.015h15.877a1.507,1.507,0,1,1,0,3.015" transform="translate(-131.681 -319.995)" fill="#8eb4fb"/>
    <path id="Tracciato_70292" data-name="Tracciato 70292" d="M175.8,434.942H157.514a.553.553,0,1,1,0-1.105H175.8a.553.553,0,0,1,0,1.105" transform="translate(-131.681 -363.963)" fill="#8eb4fb"/>
    <path id="Tracciato_70293" data-name="Tracciato 70293" d="M175.8,454.283H157.514a.553.553,0,1,1,0-1.105H175.8a.553.553,0,0,1,0,1.105" transform="translate(-131.681 -380.188)" fill="#8eb4fb"/>
    <path id="Tracciato_70294" data-name="Tracciato 70294" d="M175.8,473.625H157.514a.553.553,0,1,1,0-1.105H175.8a.553.553,0,0,1,0,1.105" transform="translate(-131.681 -396.415)" fill="#8eb4fb"/>
    <path id="Tracciato_70295" data-name="Tracciato 70295" d="M169.17,492.966H157.514a.553.553,0,1,1,0-1.105H169.17a.553.553,0,0,1,0,1.105" transform="translate(-131.681 -412.641)" fill="#8eb4fb"/>
    <path id="Tracciato_70296" data-name="Tracciato 70296" d="M419.328,358.24H409.279a1.507,1.507,0,1,1,0-3.015h10.049a1.507,1.507,0,1,1,0,3.015" transform="translate(-342.096 -298.012)" fill="#8eb4fb"/>
    <path id="Tracciato_70297" data-name="Tracciato 70297" d="M425.157,384.444H409.28a1.507,1.507,0,0,1,0-3.015h15.877a1.507,1.507,0,1,1,0,3.015" transform="translate(-342.097 -319.995)" fill="#8eb4fb"/>
    <path id="Tracciato_70298" data-name="Tracciato 70298" d="M426.613,434.942H408.325a.553.553,0,1,1,0-1.105h18.289a.553.553,0,1,1,0,1.105" transform="translate(-342.096 -363.963)" fill="#8eb4fb"/>
    <path id="Tracciato_70299" data-name="Tracciato 70299" d="M426.613,454.283H408.325a.553.553,0,1,1,0-1.105h18.289a.553.553,0,1,1,0,1.105" transform="translate(-342.096 -380.188)" fill="#8eb4fb"/>
    <path id="Tracciato_70300" data-name="Tracciato 70300" d="M426.613,473.625H408.325a.553.553,0,1,1,0-1.105h18.289a.553.553,0,1,1,0,1.105" transform="translate(-342.096 -396.415)" fill="#8eb4fb"/>
    <path id="Tracciato_70301" data-name="Tracciato 70301" d="M419.981,492.966H408.325a.553.553,0,1,1,0-1.105h11.657a.553.553,0,0,1,0,1.105" transform="translate(-342.096 -412.641)" fill="#8eb4fb"/>
    <path id="Tracciato_70302" data-name="Tracciato 70302" d="M666.4,358.24H656.347a1.507,1.507,0,1,1,0-3.015H666.4a1.507,1.507,0,1,1,0,3.015" transform="translate(-549.37 -298.012)" fill="#8eb4fb"/>
    <path id="Tracciato_70303" data-name="Tracciato 70303" d="M672.225,384.444H656.348a1.507,1.507,0,0,1,0-3.015h15.877a1.507,1.507,0,1,1,0,3.015" transform="translate(-549.371 -319.995)" fill="#8eb4fb"/>
    <path id="Tracciato_70304" data-name="Tracciato 70304" d="M673.681,434.942H655.393a.553.553,0,1,1,0-1.105h18.289a.553.553,0,0,1,0,1.105" transform="translate(-549.37 -363.963)" fill="#8eb4fb"/>
    <path id="Tracciato_70305" data-name="Tracciato 70305" d="M673.681,454.283H655.393a.553.553,0,1,1,0-1.105h18.289a.553.553,0,0,1,0,1.105" transform="translate(-549.37 -380.188)" fill="#8eb4fb"/>
    <path id="Tracciato_70306" data-name="Tracciato 70306" d="M673.681,473.625H655.393a.553.553,0,1,1,0-1.105h18.289a.553.553,0,0,1,0,1.105" transform="translate(-549.37 -396.415)" fill="#8eb4fb"/>
    <path id="Tracciato_70307" data-name="Tracciato 70307" d="M667.049,492.966H655.393a.553.553,0,1,1,0-1.105h11.657a.553.553,0,0,1,0,1.105" transform="translate(-549.37 -412.641)" fill="#8eb4fb"/>
    <path id="Tracciato_70308" data-name="Tracciato 70308" d="M895.288,182.132a3.766,3.766,0,1,0,3.758-4.02,3.9,3.9,0,0,0-3.758,4.02" transform="translate(-751.092 -149.425)" fill="#7e9bc7"/>
    <path id="Tracciato_70309" data-name="Tracciato 70309" d="M911.022,199.093l.612,7.69A18.822,18.822,0,0,0,914.6,205.3c.087-.262.524-8.738.524-8.738Z" transform="translate(-764.292 -164.901)" fill="#c2d4fc"/>
    <path id="Tracciato_70310" data-name="Tracciato 70310" d="M896.916,178.878a3.766,3.766,0,1,0,3.758-4.02,3.9,3.9,0,0,0-3.758,4.02" transform="translate(-752.457 -146.695)" fill="#c2d4fc"/>
    <path id="Tracciato_70311" data-name="Tracciato 70311" d="M942.716,244.844c5.154,1.1,13.436,13.482,13.9,17.072s-9.019,11.688-9.387,11.6a1.243,1.243,0,0,1-.736-1.1c0-.46,4.325-8.835,4.325-9.571s-7.638-3.773-8.835-8.1.736-9.893.736-9.893" transform="translate(-789.935 -205.409)" fill="#ffcc5f"/>
    <path id="Tracciato_70312" data-name="Tracciato 70312" d="M883.451,242.167c-9.178-1.892-12.5,3.1-12.583,8.039-.091,5.162,5.427,18.454,5.952,18.629s6.942.465,7.117-2.332,7.021-22.789-.485-24.337" transform="translate(-730.603 -202.819)" fill="#ffcc5f"/>
    <path id="Tracciato_70313" data-name="Tracciato 70313" d="M911.836,222.4a1.774,1.774,0,0,0,1.191-.142s-.393,1.234-.666,1.857-.317.622-.317.622Z" transform="translate(-764.974 -186.465)" fill="#7e9bc7"/>
    <path id="Tracciato_70314" data-name="Tracciato 70314" d="M907.827,400.049c2.331,25.4,7.577,62.549,7.577,62.549s1.258.031,1.626-.337,1.754-14.3,3.068-26.873c.859-8.221,1.963-27.977-.614-32.026s-4.908-4.908-4.908-4.908Z" transform="translate(-761.611 -334.278)" fill="#125fb5"/>
    <path id="Tracciato_70315" data-name="Tracciato 70315" d="M856.833,399.65c-7.608,19.756-10.921,27.486-9.448,33.5,3.158,12.894,8.589,28.836,8.958,28.836a15.08,15.08,0,0,0,1.6-.245s0-18.16-1.35-29.2c0-1.473,6.872-13.866,6.872-13.866s5.453-11.158,5.476-13.7c.031-3.482-5.215-6.994-5.215-6.994Z" transform="translate(-710.617 -333.879)" fill="#1a6fce"/>
    <path id="Tracciato_70316" data-name="Tracciato 70316" d="M906.69,507.7a.184.184,0,0,1-.184-.184c0-.182-.016-18.276-1.349-29.182l0-.018V478.3c.085-1.106,2.047-4.928,4.531-9.768,3-5.839,6.394-12.457,7.254-15.848a.184.184,0,0,1,.357.091c-.871,3.431-4.277,10.069-7.283,15.925-2.256,4.4-4.388,8.549-4.49,9.611,1.333,10.93,1.349,29.026,1.349,29.207a.184.184,0,0,1-.184.184" transform="translate(-759.37 -379.659)" fill="#272372"/>
    <path id="Tracciato_70317" data-name="Tracciato 70317" d="M949.913,316.753a.184.184,0,0,1-.18-.222c0-.022.466-2.187.922-3.92a50.856,50.856,0,0,0,2.019-11.873.191.191,0,0,1,.186-.182.184.184,0,0,1,.182.186,51.214,51.214,0,0,1-2.031,11.963c-.454,1.724-.914,3.881-.918,3.9a.184.184,0,0,1-.18.146" transform="translate(-796.764 -252.148)" fill="#1a6fce"/>
    <path id="Tracciato_70318" data-name="Tracciato 70318" d="M803.738,251.655c2.853.644,2.393,9.663.552,12.332s-7.454,7.823-11.043,6.81-8.035-10.675-6.948-11.274c1.335-.734,5.752,4.74,7.132,4.372s3.681-4.417,6.258-8.743,4.049-3.5,4.049-3.5" transform="translate(-659.516 -211.07)" fill="#ffcc5f"/>
    <path id="Tracciato_70319" data-name="Tracciato 70319" d="M787.349,303.241a3.8,3.8,0,0,1-1.034-.137c-3.077-.868-6.974-8.876-8.376-12.971a.184.184,0,0,1,.348-.119c1.618,4.725,5.444,11.979,8.128,12.736,3.405.96,8.868-3.876,10.842-6.738a4.4,4.4,0,0,0,.349-.62.184.184,0,0,1,.333.157,4.761,4.761,0,0,1-.379.672c-1.509,2.188-6.454,7.02-10.211,7.02" transform="translate(-652.635 -243.199)" fill="#1a6fce"/>
    <path id="Tracciato_70320" data-name="Tracciato 70320" d="M776.155,274.64c1.187-.44,1.75-.389,1.565-1.166-.522-2.178-2.938-6.167-2.949-4.984s1.145,1.876.69,2.381-1.179,1.5-.771,2.081a21.831,21.831,0,0,0,1.466,1.687" transform="translate(-649.815 -225.066)" fill="#c2d4fc"/>
    <path id="Tracciato_70321" data-name="Tracciato 70321" d="M874.176,793.306c-2.147,1.718-6.626,3.19-5.767,3.5s8.1.061,8.467-.307-.951-3.589-.951-3.589Z" transform="translate(-728.451 -665.2)" fill="#272372"/>
    <path id="Tracciato_70322" data-name="Tracciato 70322" d="M932.067,794.837c-.92,1.166-4.878,2.669-4.325,3.037s6.81.491,7.178,0-1.227-3.252-1.227-3.252Z" transform="translate(-778.274 -666.639)" fill="#272372"/>
    <path id="Tracciato_70323" data-name="Tracciato 70323" d="M890.668,160c-.54-4.855,8.191-8.1,10.4-1.7,1.618,4.684,2.682,6.887,7.007,6.887s6.9,3.037,7.27,7.822,3.589,4.049,5.522,6.534-9.939,8.927-15.185,3.681-1.933-6.81-6.166-8.835-3.865-11.964-3.957-12.24-4.8-1.319-4.891-2.147" transform="translate(-747.196 -129.809)" fill="#272372"/>
    <path id="Tracciato_70324" data-name="Tracciato 70324" d="M895.766,177.821c.092.276-.276,10.215,3.957,12.24s.92,3.589,6.166,8.835,17.117-1.2,15.185-3.681a7.06,7.06,0,0,0-2.325-1.8c.651,3.026-1.407,3.5-3.749,4.469-2.669,1.1-6.718.092-7.823-4.97s-3.405-5.43-6.534-6.718-1.933-8.559-2.669-10.031c-.483-.965-4.454-1.655-6.5-2.746a3.5,3.5,0,0,0-.56,2.335c.092.828,4.76,1.791,4.852,2.067" transform="translate(-747.403 -145.488)" fill="#000e44"/>
  </g>
</svg>
