<svg xmlns="http://www.w3.org/2000/svg" xmlns:xlink="http://www.w3.org/1999/xlink" width="186.507" height="125.838" viewBox="0 0 186.507 125.838">
  <defs>
    <clipPath id="clip-path">
      <rect id="Rettangolo_146693" data-name="Rettangolo 146693" width="141.165" height="110.672" fill="none"/>
    </clipPath>
    <clipPath id="clip-path-2">
      <rect id="Rettangolo_146692" data-name="Rettangolo 146692" width="141.165" height="110.673" fill="none"/>
    </clipPath>
    <clipPath id="clip-path-3">
      <rect id="Rettangolo_146675" data-name="Rettangolo 146675" width="91.514" height="59.103" fill="none"/>
    </clipPath>
    <clipPath id="clip-path-4">
      <rect id="Rettangolo_146676" data-name="Rettangolo 146676" width="18.907" height="18.907" fill="none"/>
    </clipPath>
    <clipPath id="clip-path-5">
      <rect id="Rettangolo_146678" data-name="Rettangolo 146678" width="51.393" height="2.016" fill="none"/>
    </clipPath>
    <clipPath id="clip-path-9">
      <rect id="Rettangolo_146686" data-name="Rettangolo 146686" width="80.422" height="8.394" fill="none"/>
    </clipPath>
    <clipPath id="clip-path-10">
      <rect id="Rettangolo_146688" data-name="Rettangolo 146688" width="80.422" height="12.861" fill="none"/>
    </clipPath>
    <clipPath id="clip-path-11">
      <rect id="Rettangolo_146689" data-name="Rettangolo 146689" width="45.456" height="21.996" fill="none"/>
    </clipPath>
    <clipPath id="clip-path-12">
      <rect id="Rettangolo_146690" data-name="Rettangolo 146690" width="18.229" height="12.737" fill="none"/>
    </clipPath>
    <clipPath id="clip-path-13">
      <rect id="Rettangolo_146691" data-name="Rettangolo 146691" width="18.23" height="12.716" fill="none"/>
    </clipPath>
  </defs>
  <g id="Raggruppa_21247" data-name="Raggruppa 21247" transform="translate(-429 -1133.577)">
    <path id="Tracciato_70551" data-name="Tracciato 70551" d="M159.556,124.993c-5.734,1.753-19.129.295-24.75-.082l-116.159.061C2.811,113.411-15.316,77.307,21.865,47.7,36.119,36.356,16.99,14.272,49.619,4.829c30.306-8.771,23.734,13.819,66.841-1.91,32.361-11.808,45.287,15.447,47.579,24.288,1.166,4.5,1.467,9.3,2.485,13.856,2.809,12.581,12.176,15.187,17.346,29.18,5.407,14.632,4.792,45.854-24.314,54.752" transform="translate(429 1133.577)" fill="#dde7fe"/>
    <g id="Raggruppa_21203" data-name="Raggruppa 21203" transform="translate(451.671 1148.742)">
      <g id="Raggruppa_21238" data-name="Raggruppa 21238" clip-path="url(#clip-path)">
        <path id="Tracciato_70552" data-name="Tracciato 70552" d="M0,0H108.788V66.05H0Z" transform="translate(16.464 30.726)" fill="#b1e0ff"/>
        <g id="Raggruppa_21237" data-name="Raggruppa 21237" transform="translate(0 0)">
          <g id="Raggruppa_21236" data-name="Raggruppa 21236" clip-path="url(#clip-path-2)">
            <path id="Tracciato_70526" data-name="Tracciato 70526" d="M299.742,446.278l-.041-.047c-.1-.115-.2-.226-.31-.334s-.218-.211-.333-.31l-.05-.043a6.312,6.312,0,0,0-4.1-1.505H186.121a6.341,6.341,0,0,0-6.341,6.341v72.391H301.248V450.381a6.31,6.31,0,0,0-1.506-4.1m-4.834,70.152H186.121v-66.05H294.908Z" transform="translate(-169.932 -419.716)" fill="#333"/>
            <rect id="Rettangolo_146671" data-name="Rettangolo 146671" width="141.165" height="5.497" transform="translate(0 103.056)" fill="#fff"/>
            <rect id="Rettangolo_146672" data-name="Rettangolo 146672" width="141.165" height="2.121" transform="translate(0 108.552)" fill="#e6e6e6"/>
            <rect id="Rettangolo_146673" data-name="Rettangolo 146673" width="37.265" height="2.748" transform="translate(51.95 103.055)" fill="#ccc"/>
            <path id="Tracciato_70527" data-name="Tracciato 70527" d="M926.123,13.416l-.005,0L892.557,28.945l-8.032-10.928L879.9,11.728,871.281,0l54.835,13.415Z" transform="translate(-823.553 0.001)" fill="#fff"/>
            <path id="Tracciato_70528" data-name="Tracciato 70528" d="M1061.286,216.08l-28,4.335-4.622-6.289Z" transform="translate(-972.319 -202.396)" fill="#e6e6e6"/>
            <path id="Tracciato_70529" data-name="Tracciato 70529" d="M950.931,220.409l-9.362,10.1-.034.036.019-.066,4.754-16.36Z" transform="translate(-889.959 -202.39)" fill="#e6e6e6"/>
            <path id="Tracciato_70530" data-name="Tracciato 70530" d="M941.536,339.074l12.961-5.286-3.565-4.851Z" transform="translate(-889.959 -310.918)" fill="#ccc"/>
            <g id="Raggruppa_21205" data-name="Raggruppa 21205" transform="translate(25.101 37.611)" style="mix-blend-mode: soft-light;isolation: isolate">
              <g id="Raggruppa_21204" data-name="Raggruppa 21204">
                <g id="Raggruppa_21203-2" data-name="Raggruppa 21203" clip-path="url(#clip-path-3)">
                  <rect id="Rettangolo_146674" data-name="Rettangolo 146674" width="91.514" height="59.103" transform="translate(0 0)" fill="#fff"/>
                </g>
              </g>
            </g>
            <g id="Raggruppa_21208" data-name="Raggruppa 21208" transform="translate(30.647 42.785)" style="mix-blend-mode: multiply;isolation: isolate">
              <g id="Raggruppa_21207" data-name="Raggruppa 21207">
                <g id="Raggruppa_21206" data-name="Raggruppa 21206" clip-path="url(#clip-path-4)">
                  <path id="Tracciato_70531" data-name="Tracciato 70531" d="M576.9,799.953H560.927a1.466,1.466,0,0,1-1.466-1.466V782.512a1.466,1.466,0,0,1,1.466-1.466H576.9a1.466,1.466,0,0,1,1.466,1.466v15.976a1.466,1.466,0,0,1-1.466,1.466" transform="translate(-559.461 -781.046)" fill="#e6e6e6"/>
                </g>
              </g>
            </g>
            <g id="Raggruppa_21211" data-name="Raggruppa 21211" transform="translate(59.676 42.785)" style="mix-blend-mode: multiply;isolation: isolate">
              <g id="Raggruppa_21210" data-name="Raggruppa 21210">
                <g id="Raggruppa_21209" data-name="Raggruppa 21209" clip-path="url(#clip-path-5)">
                  <rect id="Rettangolo_146677" data-name="Rettangolo 146677" width="51.393" height="2.016" transform="translate(0 0)" fill="#e6e6e6"/>
                </g>
              </g>
            </g>
            <g id="Raggruppa_21214" data-name="Raggruppa 21214" transform="translate(59.676 48.416)" style="mix-blend-mode: multiply;isolation: isolate">
              <g id="Raggruppa_21213" data-name="Raggruppa 21213">
                <g id="Raggruppa_21212" data-name="Raggruppa 21212" clip-path="url(#clip-path-5)">
                  <rect id="Rettangolo_146679" data-name="Rettangolo 146679" width="51.393" height="2.016" transform="translate(0 0)" fill="#e6e6e6"/>
                </g>
              </g>
            </g>
            <g id="Raggruppa_21217" data-name="Raggruppa 21217" transform="translate(59.676 54.046)" style="mix-blend-mode: multiply;isolation: isolate">
              <g id="Raggruppa_21216" data-name="Raggruppa 21216">
                <g id="Raggruppa_21215" data-name="Raggruppa 21215" clip-path="url(#clip-path-5)">
                  <rect id="Rettangolo_146681" data-name="Rettangolo 146681" width="51.393" height="2.016" transform="translate(0)" fill="#e6e6e6"/>
                </g>
              </g>
            </g>
            <g id="Raggruppa_21220" data-name="Raggruppa 21220" transform="translate(59.676 59.676)" style="mix-blend-mode: multiply;isolation: isolate">
              <g id="Raggruppa_21219" data-name="Raggruppa 21219">
                <g id="Raggruppa_21218" data-name="Raggruppa 21218" clip-path="url(#clip-path-5)">
                  <rect id="Rettangolo_146683" data-name="Rettangolo 146683" width="51.393" height="2.016" transform="translate(0)" fill="#e6e6e6"/>
                </g>
              </g>
            </g>
            <g id="Raggruppa_21223" data-name="Raggruppa 21223" transform="translate(30.647 71.923)" style="mix-blend-mode: multiply;isolation: isolate">
              <g id="Raggruppa_21222" data-name="Raggruppa 21222">
                <g id="Raggruppa_21221" data-name="Raggruppa 21221" clip-path="url(#clip-path-9)">
                  <rect id="Rettangolo_146685" data-name="Rettangolo 146685" width="80.422" height="8.394" transform="translate(0)" fill="#e6e6e6"/>
                </g>
              </g>
            </g>
            <g id="Raggruppa_21226" data-name="Raggruppa 21226" transform="translate(30.647 83.853)" style="mix-blend-mode: multiply;isolation: isolate">
              <g id="Raggruppa_21225" data-name="Raggruppa 21225">
                <g id="Raggruppa_21224" data-name="Raggruppa 21224" clip-path="url(#clip-path-10)">
                  <rect id="Rettangolo_146687" data-name="Rettangolo 146687" width="80.422" height="12.861" transform="translate(0)" fill="#e6e6e6"/>
                </g>
              </g>
            </g>
            <path id="Tracciato_70532" data-name="Tracciato 70532" d="M920.4,1129.69l6.368,5.024-.078.069-.007.006a4.094,4.094,0,0,1-2.683,1l-39.635.015a4.094,4.094,0,0,1-2.676-.989l-.007-.006-.078-.069,6.361-5.026,10.942-8.646,1.011-.8,2.782-2.2,1.483-1.172,1.484,1.171,2.783,2.2,1.012.8Z" transform="translate(-833.313 -1055.714)" fill="#f4bf21"/>
            <path id="Tracciato_70533" data-name="Tracciato 70533" d="M880.987,886.043l-3.13,2.189-1.126.787-.165.115L865.032,897.2l-6.524,4.562-.007-.006-.078-.069a4.1,4.1,0,0,1-1.333-2.67l-.01-25.93a4.1,4.1,0,0,1,1.185-2.532l.059-.057q.084-.081.172-.157l6.528,4.557,14.5,10.121Z" transform="translate(-810.13 -822.664)" fill="#ffce39"/>
            <path id="Tracciato_70534" data-name="Tracciato 70534" d="M1318.015,873.251l.01,25.183a4.1,4.1,0,0,1-1.34,3.038l-.078.069-.007.006-6.531-4.56-11.526-8.047-.165-.115-1.127-.786-3.132-2.187,1.466-1.026,10.515-7.353,3.96-2.769,6.528-4.565q.089.077.173.158l.059.058a4.1,4.1,0,0,1,1.2,2.9" transform="translate(-1223.227 -822.472)" fill="#ffce39"/>
            <g id="Raggruppa_21229" data-name="Raggruppa 21229" transform="translate(48.136 46.67)" style="mix-blend-mode: color-burn;isolation: isolate">
              <g id="Raggruppa_21228" data-name="Raggruppa 21228">
                <g id="Raggruppa_21227" data-name="Raggruppa 21227" clip-path="url(#clip-path-11)">
                  <path id="Tracciato_70535" data-name="Tracciato 70535" d="M924.117,853.115l.059.058-5.807,5.816-11.632,11.65-1,1-.921.922a4.74,4.74,0,0,1-6.706,0l-.922-.922-1-1-11.649-11.649-5.812-5.812.059-.057q.084-.081.172-.157a4.1,4.1,0,0,1,2.675-.991l39.635-.015a4.094,4.094,0,0,1,2.683,1c.059.051.117.1.173.158" transform="translate(-878.72 -851.961)" fill="#999"/>
                </g>
              </g>
            </g>
            <path id="Tracciato_70536" data-name="Tracciato 70536" d="M925.13,853.115l-6.068,5.518-3.517,3.2-8.807,8.01-1.118,1.017-.8.731a3.485,3.485,0,0,1-4.688,0l-.8-.73-1.119-1.016-12.342-11.207-6.071-5.513q.084-.081.172-.157a4.1,4.1,0,0,1,2.675-.991l39.635-.015a4.093,4.093,0,0,1,2.683,1q.089.076.173.158" transform="translate(-831.598 -805.291)" fill="#fde350"/>
            <g id="Raggruppa_21232" data-name="Raggruppa 21232" transform="translate(48.372 66.356)" style="mix-blend-mode: soft-light;isolation: isolate">
              <g id="Raggruppa_21231" data-name="Raggruppa 21231">
                <g id="Raggruppa_21230" data-name="Raggruppa 21230" clip-path="url(#clip-path-12)">
                  <path id="Tracciato_70537" data-name="Tracciato 70537" d="M901.258,1211.33q-2.236,1.653-4.5,3.261l-.566.4-.567.4-1.135.8-2.275,1.6-2.282,1.587-1.144.789-.572.394-.574.392q-2.294,1.57-4.611,3.107,2.236-1.654,4.5-3.261l.566-.4.567-.4,1.135-.8,2.275-1.6,2.282-1.587,1.144-.789.572-.394.574-.392q2.294-1.57,4.611-3.108" transform="translate(-883.029 -1211.33)" fill="#fff"/>
                </g>
              </g>
            </g>
            <g id="Raggruppa_21235" data-name="Raggruppa 21235" transform="translate(75.149 66.352)" style="mix-blend-mode: soft-light;isolation: isolate">
              <g id="Raggruppa_21234" data-name="Raggruppa 21234">
                <g id="Raggruppa_21233" data-name="Raggruppa 21233" clip-path="url(#clip-path-13)">
                  <path id="Tracciato_70538" data-name="Tracciato 70538" d="M1371.858,1211.269q2.321,1.529,4.611,3.1l.574.392.572.394,1.144.788,2.283,1.584,2.275,1.595,1.134.8.567.4.566.4q2.264,1.611,4.5,3.256c-1.548-1.019-3.082-2.057-4.611-3.1l-.574-.392-.572-.394-1.144-.788-2.282-1.584-2.275-1.595-1.135-.8-.567-.4-.566-.4c-1.509-1.074-3.013-2.155-4.5-3.256" transform="translate(-1371.858 -1211.269)" fill="#fff"/>
                </g>
              </g>
            </g>
            <path id="Tracciato_70541" data-name="Tracciato 70541" d="M78.221,1220.259a.878.878,0,0,1-.34-.426c-.134-.356-.264-.722-.386-1.085-.353-1.054-.668-2.132-.935-3.2a.883.883,0,1,1,1.713-.427c.256,1.028.558,2.061.9,3.071.115.344.238.689.364,1.026a.883.883,0,0,1-1.312,1.047" transform="translate(-72.34 -1147.92)" fill="#fff"/>
            <path id="Tracciato_70542" data-name="Tracciato 70542" d="M55.479,1061.935a.88.88,0,0,1-.389-.617,41.579,41.579,0,0,1-.371-4.469.883.883,0,0,1,1.764-.051,39.832,39.832,0,0,0,.355,4.278.883.883,0,0,1-1.359.858" transform="translate(-51.721 -998.098)" fill="#fff"/>
            <path id="Tracciato_70543" data-name="Tracciato 70543" d="M57.154,902.434a.882.882,0,0,1-.4-.808,41.733,41.733,0,0,1,.6-4.443.883.883,0,1,1,1.734.329,39.94,39.94,0,0,0-.572,4.255.883.883,0,0,1-1.364.668" transform="translate(-53.647 -847.357)" fill="#fff"/>
            <path id="Tracciato_70544" data-name="Tracciato 70544" d="M86.961,749.134a.883.883,0,0,1-.359-.994,42.065,42.065,0,0,1,1.531-4.213.882.882,0,0,1,1.624.69,40.31,40.31,0,0,0-1.466,4.036.883.883,0,0,1-1.33.481" transform="translate(-81.822 -702.667)" fill="#fff"/>
            <path id="Tracciato_70545" data-name="Tracciato 70545" d="M149.542,609.007a.883.883,0,0,1-.285-1.167c.5-.892,1.034-1.776,1.595-2.628.257-.391.525-.783.794-1.164a.883.883,0,0,1,1.441,1.019c-.258.365-.514.741-.761,1.115-.537.816-1.051,1.663-1.528,2.518a.883.883,0,0,1-1.2.341l-.056-.034" transform="translate(-140.975 -570.607)" fill="#fff"/>
            <path id="Tracciato_70546" data-name="Tracciato 70546" d="M241.945,488.5a.893.893,0,0,1-.1-.076.883.883,0,0,1-.078-1.246,41.778,41.778,0,0,1,3.143-3.2.883.883,0,0,1,1.19,1.3,39.983,39.983,0,0,0-3.009,3.061.883.883,0,0,1-1.146.154" transform="translate(-228.315 -457.254)" fill="#fff"/>
            <path id="Tracciato_70547" data-name="Tracciato 70547" d="M360.076,393.332a.883.883,0,0,1-.036-1.45,41.586,41.586,0,0,1,3.755-2.447.883.883,0,1,1,.882,1.529,39.819,39.819,0,0,0-3.6,2.343.883.883,0,0,1-1.007.025" transform="translate(-339.976 -367.991)" fill="#fff"/>
            <path id="Tracciato_70548" data-name="Tracciato 70548" d="M498.567,327.829a.883.883,0,0,1,.129-1.544c1.183-.522,2.408-1,3.641-1.41q.273-.091.546-.18a.883.883,0,1,1,.544,1.679l-.528.174c-1.182.4-2.356.851-3.489,1.351a.882.882,0,0,1-.842-.071" transform="translate(-470.881 -306.867)" fill="#fff"/>
            <path id="Tracciato_70549" data-name="Tracciato 70549" d="M650.581,289.972a.882.882,0,0,1,.28-1.6c1.444-.345,2.917-.634,4.379-.862a.882.882,0,1,1,.271,1.744c-1.415.22-2.842.5-4.24.835a.88.88,0,0,1-.69-.121" transform="translate(-614.567 -271.755)" fill="#fff"/>
            <path id="Tracciato_70550" data-name="Tracciato 70550" d="M808.9,277.442a.883.883,0,0,1,.42-1.618c1.478-.109,2.978-.16,4.46-.149a.882.882,0,0,1-.012,1.765c-1.434-.01-2.887.039-4.317.145a.879.879,0,0,1-.55-.143" transform="translate(-764.209 -260.572)" fill="#fff"/>
          </g>
        </g>
      </g>
    </g>
  </g>
</svg>
