<svg xmlns="http://www.w3.org/2000/svg" width="197.808" height="63.434" viewBox="0 0 197.808 63.434">
  <g id="Raggruppa_7868" data-name="Raggruppa 7868" transform="translate(-4.83 -10.457)">
    <g id="Raggruppa_6442" data-name="Raggruppa 6442" transform="translate(81.344 64.077)">
      <path id="Tracciato_59443" data-name="Tracciato 59443" d="M27.094,21.291,24.378,28.45a3.279,3.279,0,0,1-2.969,2.492l-.109-.779a3.085,3.085,0,0,0,1.246-.69,3.166,3.166,0,0,0,.73-1.107l.114-.293h-.268a.388.388,0,0,1-.417-.3l-2.462-6.478h1.266l1.8,5.059a7.879,7.879,0,0,1,.248.819h.2c.074-.184.169-.462.293-.819l1.767-5.059Z" transform="translate(-20.243 -21.127)" fill="#fff"/>
      <path id="Tracciato_59444" data-name="Tracciato 59444" d="M25.022,21.258a3.193,3.193,0,0,1,2.472.8,4.177,4.177,0,0,1,.715,2.76,4.153,4.153,0,0,1-.715,2.755,3.175,3.175,0,0,1-2.472.809,3.185,3.185,0,0,1-2.467-.809,4.12,4.12,0,0,1-.725-2.755,4.145,4.145,0,0,1,.725-2.76A3.2,3.2,0,0,1,25.022,21.258ZM26.561,22.8a1.857,1.857,0,0,0-1.539-.541,1.833,1.833,0,0,0-1.534.541,3.5,3.5,0,0,0-.417,2.02,3.475,3.475,0,0,0,.417,2.016,1.834,1.834,0,0,0,1.534.546,1.858,1.858,0,0,0,1.539-.546,3.429,3.429,0,0,0,.422-2.016A3.458,3.458,0,0,0,26.561,22.8Z" transform="translate(-13.952 -21.258)" fill="#fff"/>
      <path id="Tracciato_59445" data-name="Tracciato 59445" d="M29.288,21.291v6.781H28.34l-.084-.973a4.933,4.933,0,0,1-2.924,1.157,1.642,1.642,0,0,1-1.852-1.867v-5.1h1.182v4.766a1.241,1.241,0,0,0,.238.9,1.106,1.106,0,0,0,.834.263A2.61,2.61,0,0,0,26.781,27,9.575,9.575,0,0,0,28.1,26.25V21.291Z" transform="translate(-7.41 -21.127)" fill="#fff"/>
      <path id="Tracciato_59446" data-name="Tracciato 59446" d="M29.336,21.258,29.2,22.37h-.392a3.092,3.092,0,0,0-1.062.2,14.45,14.45,0,0,0-1.469.66V28.2H25.087V21.422h.918l.129,1.072a4.833,4.833,0,0,1,2.894-1.236Z" transform="translate(-1.04 -21.258)" fill="#fff"/>
    </g>
    <g id="Raggruppa_6443" data-name="Raggruppa 6443" transform="translate(113.399 61.277)">
      <path id="Tracciato_59447" data-name="Tracciato 59447" d="M32.8,20.694v9.745h-.918l-.114-.973a4.032,4.032,0,0,1-2.686,1.142,1.993,1.993,0,0,1-1.817-.884,5.094,5.094,0,0,1-.566-2.7,4.591,4.591,0,0,1,.616-2.735,2.286,2.286,0,0,1,1.946-.8,4.751,4.751,0,0,1,2.413.626c-.04-.407-.055-.854-.055-1.335v-2.09ZM31.62,28.647V24.9a8.2,8.2,0,0,0-2.075-.377,1.452,1.452,0,0,0-1.271.516,3.756,3.756,0,0,0-.362,1.976,3.99,3.99,0,0,0,.357,2.016,1.319,1.319,0,0,0,1.206.546,2.236,2.236,0,0,0,.958-.2A8.506,8.506,0,0,0,31.62,28.647Z" transform="translate(-26.7 -20.694)" fill="#fff"/>
      <path id="Tracciato_59448" data-name="Tracciato 59448" d="M28.731,20.711h.556a.319.319,0,0,1,.362.362v.794a.317.317,0,0,1-.362.357h-.556a.319.319,0,0,1-.362-.357v-.794A.321.321,0,0,1,28.731,20.711Zm.864,9.661H28.429V23.59H29.6Z" transform="translate(-20.084 -20.627)" fill="#fff"/>
      <path id="Tracciato_59449" data-name="Tracciato 59449" d="M35.787,22.077l-1,.084a2.434,2.434,0,0,1,.278,1.251,1.96,1.96,0,0,1-.655,1.653,3.78,3.78,0,0,1-2.254.506,6.462,6.462,0,0,1-1.41-.139.734.734,0,0,0-.149.7.685.685,0,0,0,.626.467l2.532.4a2.111,2.111,0,0,1,1.33.591,1.986,1.986,0,0,1,.382,1.321,1.824,1.824,0,0,1-.7,1.643,4.992,4.992,0,0,1-2.527.457,5.123,5.123,0,0,1-2.557-.452,1.747,1.747,0,0,1-.72-1.608,1.661,1.661,0,0,1,.253-.963,2.343,2.343,0,0,1,.849-.68,1.2,1.2,0,0,1-.477-1.072,1.365,1.365,0,0,1,.531-1.043,1.822,1.822,0,0,1-.864-1.772,1.978,1.978,0,0,1,.65-1.668,3.772,3.772,0,0,1,2.259-.5,6.283,6.283,0,0,1,1.579.164h2.115Zm-2.646,5.808-2.313-.323a1.6,1.6,0,0,0-.71,1.3.957.957,0,0,0,.417.933,4.137,4.137,0,0,0,1.688.223,3.982,3.982,0,0,0,1.663-.228.957.957,0,0,0,.422-.928.857.857,0,0,0-.213-.68A2.188,2.188,0,0,0,33.141,27.885Zm-2.4-3.5a2.533,2.533,0,0,0,1.41.288,2.513,2.513,0,0,0,1.4-.288,1.372,1.372,0,0,0,0-1.936,2.55,2.55,0,0,0-1.41-.283,2.584,2.584,0,0,0-1.41.283,1.113,1.113,0,0,0-.4.968A1.1,1.1,0,0,0,30.743,24.381Z" transform="translate(-17.737 -18.458)" fill="#fff"/>
      <path id="Tracciato_59450" data-name="Tracciato 59450" d="M30.992,20.711h.556a.319.319,0,0,1,.362.362v.794a.317.317,0,0,1-.362.357h-.556a.319.319,0,0,1-.362-.357v-.794A.321.321,0,0,1,30.992,20.711Zm.864,9.661H30.685V23.59h1.172Z" transform="translate(-11.12 -20.627)" fill="#fff"/>
      <path id="Tracciato_59451" data-name="Tracciato 59451" d="M33.591,23.826v3.986a.962.962,0,0,0,.208.7.986.986,0,0,0,.71.208h1.033l.139.9a5.549,5.549,0,0,1-1.534.184,1.672,1.672,0,0,1-1.291-.477,1.908,1.908,0,0,1-.447-1.365V23.826H31.183v-.864l1.226-.055v-2.02h1.182v2.006H35.75v.933Z" transform="translate(-8.928 -19.929)" fill="#fff"/>
      <path id="Tracciato_59452" data-name="Tracciato 59452" d="M32.736,22.44l-.109-.879a20.513,20.513,0,0,1,3.272-.3,2.628,2.628,0,0,1,1.752.491,2.122,2.122,0,0,1,.576,1.678V28.2h-.933l-.144-1.112a4.788,4.788,0,0,1-1.216.864,3.428,3.428,0,0,1-1.579.377,2.121,2.121,0,0,1-1.484-.5,1.778,1.778,0,0,1-.551-1.4V25.7a1.559,1.559,0,0,1,.5-1.236,2.007,2.007,0,0,1,1.385-.437h2.825v-.6a1.156,1.156,0,0,0-.293-.9,1.631,1.631,0,0,0-1.082-.263Q34.645,22.261,32.736,22.44Zm.794,3.425V26.3a1.039,1.039,0,0,0,.253.774,1.106,1.106,0,0,0,.8.243,3.094,3.094,0,0,0,1.206-.253,3.9,3.9,0,0,0,1.231-.765V24.932H34.409a.876.876,0,0,0-.675.253A1.012,1.012,0,0,0,33.53,25.865Z" transform="translate(-4.424 -18.458)" fill="#fff"/>
    </g>
    <g id="Raggruppa_6444" data-name="Raggruppa 6444" transform="translate(149.331 61.277)">
      <path id="Tracciato_59453" data-name="Tracciato 59453" d="M35.119,20.694v7.883a.86.86,0,0,0,.223.675.984.984,0,0,0,.7.228h.655l.139.9a2.977,2.977,0,0,1-1.236.184,1.629,1.629,0,0,1-1.211-.452,1.744,1.744,0,0,1-.447-1.276V20.694Z" transform="translate(-33.938 -20.694)" fill="#fff"/>
    </g>
    <g id="Raggruppa_6445" data-name="Raggruppa 6445" transform="translate(156.212 62.235)">
      <path id="Tracciato_59454" data-name="Tracciato 59454" d="M36.3,21.422l.1,1.087a3.858,3.858,0,0,1,1.306-.918,3.736,3.736,0,0,1,1.5-.333,1.928,1.928,0,0,1,1.767.889,5.18,5.18,0,0,1,.561,2.7,4.576,4.576,0,0,1-.616,2.725,2.3,2.3,0,0,1-1.946.8,4.835,4.835,0,0,1-2.507-.7c.025.313.04.769.04,1.365V31H35.324V21.422Zm.208,1.911v3.589a8.449,8.449,0,0,0,2.174.417,1.464,1.464,0,0,0,1.281-.511,3.765,3.765,0,0,0,.362-1.981,4.158,4.158,0,0,0-.343-1.991,1.252,1.252,0,0,0-1.162-.571,2.523,2.523,0,0,0-1.052.243A7.494,7.494,0,0,0,36.505,23.333Z" transform="translate(-35.324 -19.416)" fill="#fff"/>
      <path id="Tracciato_59455" data-name="Tracciato 59455" d="M37.292,22.44l-.109-.879a20.513,20.513,0,0,1,3.272-.3,2.628,2.628,0,0,1,1.752.491,2.121,2.121,0,0,1,.571,1.678V28.2h-.933l-.139-1.112a4.787,4.787,0,0,1-1.216.864,3.448,3.448,0,0,1-1.584.377,2.108,2.108,0,0,1-1.479-.5,1.778,1.778,0,0,1-.551-1.4V25.7a1.572,1.572,0,0,1,.491-1.236,2.024,2.024,0,0,1,1.385-.437h2.83v-.6a1.174,1.174,0,0,0-.293-.9,1.638,1.638,0,0,0-1.087-.263C39.536,22.261,38.563,22.32,37.292,22.44Zm.794,3.425V26.3a1.059,1.059,0,0,0,.248.774,1.127,1.127,0,0,0,.809.243,3.094,3.094,0,0,0,1.206-.253,3.956,3.956,0,0,0,1.231-.765V24.932H38.965a.9.9,0,0,0-.68.253A1.011,1.011,0,0,0,38.086,25.865Z" transform="translate(-29.175 -19.416)" fill="#fff"/>
      <path id="Tracciato_59456" data-name="Tracciato 59456" d="M42.736,21.258,42.6,22.37h-.387a3.1,3.1,0,0,0-1.067.2,14.45,14.45,0,0,0-1.469.66V28.2H38.491V21.422h.918l.124,1.072a4.845,4.845,0,0,1,2.894-1.236Z" transform="translate(-22.769 -19.416)" fill="#fff"/>
      <path id="Tracciato_59457" data-name="Tracciato 59457" d="M41.885,23.826v3.986a.962.962,0,0,0,.208.7.986.986,0,0,0,.71.208h1.028l.139.9a5.536,5.536,0,0,1-1.529.184,1.69,1.69,0,0,1-1.3-.477,1.908,1.908,0,0,1-.447-1.365V23.826H39.472v-.864l1.226-.055v-2.02h1.186v2.006h2.155v.933Z" transform="translate(-18.88 -20.887)" fill="#fff"/>
      <path id="Tracciato_59458" data-name="Tracciato 59458" d="M41.687,21.422l.084,1.072a5.2,5.2,0,0,1,3.038-1.236,1.637,1.637,0,0,1,1.837,1.867V28.2H45.46V23.457a1.5,1.5,0,0,0-.218-.933.934.934,0,0,0-.755-.263,2.717,2.717,0,0,0-1.122.248,14.2,14.2,0,0,0-1.494.824V28.2H40.684V21.422Z" transform="translate(-14.075 -19.416)" fill="#fff"/>
      <path id="Tracciato_59459" data-name="Tracciato 59459" d="M46.66,25.393H43.5a2.3,2.3,0,0,0,.571,1.574,2.435,2.435,0,0,0,1.574.4A16.618,16.618,0,0,0,48,27.2l.129.794a7.125,7.125,0,0,1-2.636.377,3.267,3.267,0,0,1-2.5-.814,4.071,4.071,0,0,1-.745-2.765,4.043,4.043,0,0,1,.725-2.75,3.138,3.138,0,0,1,2.393-.784,3.6,3.6,0,0,1,2.214.546,1.99,1.99,0,0,1,.7,1.668Q48.3,25.393,46.66,25.393Zm-3.177-.918h2.869c.491,0,.74-.338.74-1a1.11,1.11,0,0,0-.392-.933,2.184,2.184,0,0,0-1.281-.278,1.931,1.931,0,0,0-1.489.467A2.786,2.786,0,0,0,43.483,24.475Z" transform="translate(-7.879 -19.416)" fill="#fff"/>
      <path id="Tracciato_59460" data-name="Tracciato 59460" d="M48.069,21.258,47.93,22.37h-.392a3.092,3.092,0,0,0-1.062.2,14.451,14.451,0,0,0-1.469.66V28.2H43.82V21.422h.923l.124,1.072a4.845,4.845,0,0,1,2.894-1.236Z" transform="translate(-1.643 -19.416)" fill="#fff"/>
    </g>
    <g id="Raggruppa_6446" data-name="Raggruppa 6446" transform="translate(79.726 23.99)">
      <path id="Tracciato_59461" data-name="Tracciato 59461" d="M42.788,40.02l.521,4.249a36.079,36.079,0,0,1-10.058,1.172q-7.357,0-10.346-3.614T19.917,29.312q0-8.9,2.989-12.515t10.346-3.614a38.677,38.677,0,0,1,9.393.993l-.571,4.294q-4.125-.32-8.822-.318-4.081,0-5.575,2.373t-1.494,8.787q0,6.411,1.494,8.787t5.575,2.373a78.335,78.335,0,0,0,9.537-.452" transform="translate(-19.917 -13.183)" fill="#fff"/>
    </g>
    <g id="Raggruppa_6447" data-name="Raggruppa 6447" transform="translate(105.421 23.99)">
      <path id="Tracciato_59462" data-name="Tracciato 59462" d="M38.283,32.564l-6.593-1.986A9.169,9.169,0,0,1,26.612,27.3a9.918,9.918,0,0,1-1.519-5.764q0-5.1,2.492-6.732t8.752-1.623a44,44,0,0,1,10.3,1.038l-.377,4.021q-5.414-.179-9.725-.179a10.365,10.365,0,0,0-4.369.606q-1.087.611-1.087,2.964a3.819,3.819,0,0,0,.779,2.73,7.017,7.017,0,0,0,2.869,1.425l6.315,1.852a9.314,9.314,0,0,1,5.237,3.321,10.03,10.03,0,0,1,1.5,5.764q0,5.146-2.567,6.935t-9.06,1.782a56.408,56.408,0,0,1-10.614-1.177l.526-4.235c5.5.243,8.837.442,10.232.442q3.269,0,4.364-.725t1.092-3.073a3.993,3.993,0,0,0-.735-2.755,6.361,6.361,0,0,0-2.73-1.355" transform="translate(-25.093 -13.183)" fill="#fff"/>
    </g>
    <g id="Raggruppa_6448" data-name="Raggruppa 6448" transform="translate(131.513 24.53)">
      <rect id="Rettangolo_4242" data-name="Rettangolo 4242" width="5.931" height="31.176" fill="#fff"/>
    </g>
    <g id="Raggruppa_6449" data-name="Raggruppa 6449" transform="translate(4.83 10.457)">
      <path id="Tracciato_59463" data-name="Tracciato 59463" d="M41.148,70.461c-2.82,0-5.376-.864-5.947-2.06a1.634,1.634,0,0,1,.6-2.259c.4-.333,7.124-4.428,9.785-6.032.67-.4,1.033-.819,1.043-1.206a1.24,1.24,0,0,0-.536-.869c-4.488-2.7-15.077-9.566-16.2-15.042-1-4.87,12.083-13.235,23.6-19.977.829-.482,1.509-.884,2-1.182h0a9.747,9.747,0,0,1,4.954-1.584c4.319,0,6.464,4.046,6.752,5.515.392,1.991.8,4.051-1.832,6.483-.377.352-2.755,2.135-5.51,4.195-3.276,2.452-7.357,5.5-7.779,5.957-.377.407-.611.665-.6.874s.248.506.73.923c.387.343.844.735,1.345,1.162a70,70,0,0,1,8.832,8.494,4.756,4.756,0,0,1,.948,2.527,3.772,3.772,0,0,1-.477,2.02C60.305,62.9,48.57,68.609,45.184,69.811A12.253,12.253,0,0,1,41.148,70.461Zm14.685-48.05c-.5.3-1.182.7-2.011,1.186-6.652,3.9-24.31,14.238-23.278,19.262,1.072,5.213,11.478,11.949,15.9,14.605a1.9,1.9,0,0,1,.849,1.455c-.015.64-.472,1.236-1.365,1.767-3.415,2.055-9.368,5.7-9.7,5.972-.725.616-.69.918-.427,1.455.63,1.321,5.491,2.363,9.154,1.062,3.212-1.142,14.883-6.831,17.3-11.1a3.054,3.054,0,0,0,.387-1.683h0a4.1,4.1,0,0,0-.8-2.12c-2.209-2.825-6.136-6.181-8.737-8.4l-1.355-1.167c-.655-.571-.933-.973-.953-1.395-.03-.5.328-.884.779-1.365.432-.467,3.535-2.795,7.868-6.042,2.621-1.961,5.1-3.818,5.456-4.145,2.353-2.179,2-3.967,1.628-5.858-.248-1.276-2.239-4.974-6.091-4.974a9.069,9.069,0,0,0-4.6,1.484ZM31.557,63.844a13.552,13.552,0,0,1-7.144-2.482C18.962,58,7.4,49.134,5.34,43.9a7.878,7.878,0,0,1,.288-6.146l.025-.065C7.346,33.08,31.73,10.457,47.016,10.457h.01a11.142,11.142,0,0,1,5.719,1.415c1.931,1.127,2.934,2.393,2.974,3.768.065,2.06-2.08,3.664-2.735,4.106-.1.065-.377.223-1.052.606C34.5,30.21,26.617,36.49,23.083,40.025a3.218,3.218,0,0,0-1.231,2.15,3.011,3.011,0,0,0,1.157,2c1.251,1.206,7.258,6.061,10.847,8.961,1.544,1.246,2.661,2.15,2.864,2.328.844.75,2.706,2.393,2.423,4.254-.184,1.211-1.231,2.254-3.118,3.1A10.769,10.769,0,0,1,31.557,63.844ZM47.021,11.132c-15.057,0-39.069,22.255-40.737,26.788l-.025.065a7.3,7.3,0,0,0-.288,5.669c1.842,4.7,12.282,13.116,18.8,17.137,3.689,2.269,6.811,3.3,10.981,1.415,1.668-.75,2.586-1.618,2.73-2.586.228-1.5-1.44-2.974-2.155-3.6-.243-.218-1.41-1.162-2.889-2.353-3.6-2.909-9.621-7.774-10.892-9.005a3.584,3.584,0,0,1-1.365-2.477,3.79,3.79,0,0,1,1.43-2.631C26.17,35.984,34.1,29.659,51.6,19.765c.571-.323.918-.521,1-.571.6-.4,2.507-1.817,2.452-3.53-.035-1.132-.923-2.209-2.641-3.212a10.482,10.482,0,0,0-5.381-1.321ZM67.5,52.927a2.863,2.863,0,0,1-1.246-.308c-4.428-2.14-5.734-5.054-6.116-6.6a8.414,8.414,0,0,1,1.484-7.293c.144-.189,1.921-2.462,3.971-2.462,1.186,0,2.2.74,3,2.2l.586,1.047c1.867,3.346,2.994,5.366,2.3,8.459-.4,1.792-1.375,3.971-2.889,4.706A2.491,2.491,0,0,1,67.5,52.927ZM65.6,36.937c-1.762,0-3.425,2.179-3.44,2.2l-.015.015a7.871,7.871,0,0,0-1.345,6.7c.352,1.435,1.574,4.14,5.754,6.161a1.911,1.911,0,0,0,1.747.055c1.3-.63,2.174-2.681,2.527-4.249.635-2.84-.382-4.666-2.234-7.983L68,38.789C67.33,37.557,66.521,36.937,65.6,36.937Z" transform="translate(-4.83 -10.457)" fill="#fff"/>
    </g>
    <g id="Raggruppa_6450" data-name="Raggruppa 6450" transform="translate(21.678 10.795)">
      <path id="Tracciato_59464" data-name="Tracciato 59464" d="M21.285,30.189C29.9,24.376,38.894,19.5,39.326,19.2c.382-.253,5.793-3.813-.2-7.312a10.808,10.808,0,0,0-5.55-1.365h0c-7.447,0-17.2,5.52-25.343,11.641l.074.04c4.453,2.353,8.638,5.322,12.987,7.983" transform="translate(-8.224 -10.525)" fill="#fff"/>
    </g>
    <g id="Raggruppa_6451" data-name="Raggruppa 6451" transform="translate(5.171 38.461)">
      <path id="Tracciato_59465" data-name="Tracciato 59465" d="M5.455,16.1a7.122,7.122,0,0,0-.069,5.312c1.936,4.944,12.927,13.6,18.929,17.3,3.45,2.125,6.8,3.475,11.3,1.44,3.912-1.762,3.192-3.9,2.025-5.371a69.281,69.281,0,0,1-11.656-5.426C19.013,25.342,12.812,19.33,5.455,16.1" transform="translate(-4.899 -16.098)" fill="#fff"/>
    </g>
    <g id="Raggruppa_6452" data-name="Raggruppa 6452" transform="translate(38.765 20.589)">
      <path id="Tracciato_59466" data-name="Tracciato 59466" d="M27.557,28.18c4.041-1.3,7.213-3.852,11.155-4.969,1.688-1.951,1.41-3.629,1.047-5.471C39.5,16.415,37.446,12.5,33.335,12.5a9.294,9.294,0,0,0-4.781,1.539C25.943,15.616,18,20.049,11.666,24.685a42.435,42.435,0,0,0,7.392,3.152,13.7,13.7,0,0,0,8.5.343" transform="translate(-11.666 -12.498)" fill="#fff"/>
    </g>
    <g id="Raggruppa_6453" data-name="Raggruppa 6453" transform="translate(35.3 57.643)">
      <path id="Tracciato_59467" data-name="Tracciato 59467" d="M22.535,21.635a2.583,2.583,0,0,1-1.112,1.082c-3.2,1.921-9.4,5.719-9.74,6-.814.7-.854,1.157-.511,1.857.75,1.569,5.8,2.572,9.571,1.236,3.281-1.167,15-6.876,17.475-11.254a2.921,2.921,0,0,0,.263-.6,35.707,35.707,0,0,1-10.6,1.976,34.974,34.974,0,0,1-5.347-.3" transform="translate(-10.968 -19.962)" fill="#fff"/>
    </g>
    <g id="Raggruppa_6454" data-name="Raggruppa 6454" transform="translate(60.21 36.599)">
      <path id="Tracciato_59468" data-name="Tracciato 59468" d="M21.373,15.723c-1.951,0-3.708,2.338-3.708,2.338a8.123,8.123,0,0,0-1.42,7c.278,1.122,1.345,4.16,5.932,6.379,2.591,1.251,4.225-2.085,4.751-4.423.73-3.267-.64-5.262-2.85-9.268-.834-1.514-1.792-2.025-2.706-2.025" transform="translate(-15.986 -15.723)" fill="#fff"/>
    </g>
  </g>
</svg>
