<svg id="logo" xmlns="http://www.w3.org/2000/svg" xmlns:xlink="http://www.w3.org/1999/xlink" width="254.683" height="28.44" viewBox="0 0 254.683 28.44">
  <defs>
    <linearGradient id="linear-gradient" x1="0.614" y1="0.609" x2="-0.365" y2="-0.348" gradientUnits="objectBoundingBox">
      <stop offset="0" stop-color="#fff"/>
      <stop offset="1" stop-color="#fff" stop-opacity="0"/>
    </linearGradient>
  </defs>
  <path id="Tracciato_43945" data-name="Tracciato 43945" d="M7.695-22.065a5.534,5.534,0,0,0,1,2.761q1.371,1.664,4.7,1.664a9.917,9.917,0,0,0,3.236-.439,3.128,3.128,0,0,0,2.358-3.127,2.307,2.307,0,0,0-1.17-2.066,12.583,12.583,0,0,0-3.678-1.262l-2.847-.64A18.07,18.07,0,0,1,5.48-27.24a6.572,6.572,0,0,1-2.721-5.831,7.789,7.789,0,0,1,2.633-6.018q2.633-2.4,7.734-2.4a11.759,11.759,0,0,1,7.268,2.261,8.056,8.056,0,0,1,3.154,6.553H18.136a3.866,3.866,0,0,0-2.124-3.456,7.113,7.113,0,0,0-3.27-.676,6.11,6.11,0,0,0-3.477.878,2.8,2.8,0,0,0-1.3,2.452,2.319,2.319,0,0,0,1.28,2.158A15.667,15.667,0,0,0,12.759-30.2L17.4-29.084a12.007,12.007,0,0,1,4.608,1.957,6.59,6.59,0,0,1,2.413,5.5A7.767,7.767,0,0,1,21.6-15.49q-2.825,2.441-7.981,2.441-5.266,0-8.283-2.407a7.99,7.99,0,0,1-3.017-6.61Zm29.087-7.843a3.539,3.539,0,0,0-2.808,1.137A5.658,5.658,0,0,0,32.728-25.7h8.1a4.536,4.536,0,0,0-1.252-3.135,3.889,3.889,0,0,0-2.788-1.07Zm0-4.3a10.445,10.445,0,0,1,4.48.933,7.847,7.847,0,0,1,3.291,2.942,10.043,10.043,0,0,1,1.518,4.114,26.568,26.568,0,0,1,.164,3.95H32.594q.11,3,1.883,4.205a4.436,4.436,0,0,0,2.6.75,3.737,3.737,0,0,0,2.617-.915A4.342,4.342,0,0,0,40.66-19.6h5.321A6.61,6.61,0,0,1,44.134-16a9.047,9.047,0,0,1-7.167,2.907,10.107,10.107,0,0,1-6.713-2.45q-2.9-2.45-2.9-7.971,0-5.174,2.624-7.935a8.971,8.971,0,0,1,6.81-2.764Zm24.536.055q.146,0,.247.009t.448.027v5.339q-.493-.055-.877-.073t-.622-.018q-3.143,0-4.223,2.048a7.967,7.967,0,0,0-.6,3.544v9.528H50.442V-33.673h4.974V-30.2a11.017,11.017,0,0,1,2.1-2.724,5.724,5.724,0,0,1,3.8-1.232Zm16.784.475H83.7L76.514-13.747h-5.5L63.861-33.673h5.851l4.15,14.7Zm14.644-2.377H87.463v-4.808h5.282Zm-5.282,2.377h5.282v19.929H87.463Zm9.946,4.242v-4.239h16.163v4.333l-10.11,11.314h10.459v4.279h-17.2v-4.059l10.221-11.629Zm25.962-6.62h-5.282v-4.808h5.282Zm-5.282,2.377h5.282v19.93h-5.282Zm19.058,20.454a10.1,10.1,0,0,1-3.5-.674,7.841,7.841,0,0,1-2.846-1.91,9.168,9.168,0,0,1-1.928-3.183,12.739,12.739,0,0,1-.711-4.456,13.688,13.688,0,0,1,.562-3.988,9.416,9.416,0,0,1,1.685-3.239,8,8,0,0,1,2.808-2.191,9.027,9.027,0,0,1,3.932-.8,9.121,9.121,0,0,1,3.969.8,8.1,8.1,0,0,1,2.808,2.172,8.965,8.965,0,0,1,1.666,3.239,14.323,14.323,0,0,1,.544,4.009,12.977,12.977,0,0,1-.637,4.194,9.442,9.442,0,0,1-1.816,3.22,8,8,0,0,1-2.846,2.078A9.094,9.094,0,0,1,137.147-13.222Zm6.59-10.22a13.248,13.248,0,0,0-.374-3.22,7.629,7.629,0,0,0-1.161-2.6A5.576,5.576,0,0,0,140.18-31a6.567,6.567,0,0,0-3.033-.637,6.152,6.152,0,0,0-3.014.693,5.9,5.9,0,0,0-2.041,1.835,8.068,8.068,0,0,0-1.161,2.621,12.387,12.387,0,0,0-.374,3.052,12.1,12.1,0,0,0,.431,3.314,7.768,7.768,0,0,0,1.254,2.6,5.633,5.633,0,0,0,2.06,1.685,6.447,6.447,0,0,0,2.846.6,6.152,6.152,0,0,0,3.014-.693,5.83,5.83,0,0,0,2.041-1.854,8.311,8.311,0,0,0,1.161-2.621A12.167,12.167,0,0,0,143.737-23.442Zm9.511,9.7H151v-19.4h2.247v2.7a14.269,14.269,0,0,1,2.79-2.322,6.419,6.419,0,0,1,3.464-.9,8.844,8.844,0,0,1,3.333.618,5.684,5.684,0,0,1,2.584,2.153,4.829,4.829,0,0,1,.843,2.153,19.544,19.544,0,0,1,.134,2.3v12.694h-2.247V-26.4a5.779,5.779,0,0,0-1.161-3.932,4.929,4.929,0,0,0-3.857-1.311,5.473,5.473,0,0,0-1.91.318,6.009,6.009,0,0,0-1.554.843,5.643,5.643,0,0,0-1.18,1.2,5.56,5.56,0,0,0-.749,1.423,7.141,7.141,0,0,0-.412,1.8q-.075.861-.075,1.872Zm19.659,0V-40.707h2.247v26.961Zm9.062,0v-19.4h2.247v19.4Zm-.112-23.628v-3.333h2.474v3.333Zm11.085,23.628h-2.247v-19.4h2.247v2.7a14.268,14.268,0,0,1,2.79-2.322,6.419,6.419,0,0,1,3.464-.9,8.844,8.844,0,0,1,3.333.618,5.684,5.684,0,0,1,2.584,2.153,4.829,4.829,0,0,1,.843,2.153,19.547,19.547,0,0,1,.134,2.3v12.694H203.84V-26.4a5.779,5.779,0,0,0-1.161-3.932,4.929,4.929,0,0,0-3.857-1.311,5.473,5.473,0,0,0-1.91.318,6.009,6.009,0,0,0-1.554.843,5.643,5.643,0,0,0-1.18,1.2,5.561,5.561,0,0,0-.749,1.423,7.142,7.142,0,0,0-.412,1.8q-.075.861-.075,1.872Zm33.367-11.046a8.9,8.9,0,0,0-.393-2.675,6.257,6.257,0,0,0-1.161-2.172,5.525,5.525,0,0,0-1.928-1.46,6.206,6.206,0,0,0-2.659-.543,5.91,5.91,0,0,0-2.64.562,6.069,6.069,0,0,0-1.947,1.5,7.533,7.533,0,0,0-1.292,2.172,10.07,10.07,0,0,0-.637,2.621Zm-12.657,1.872a10.526,10.526,0,0,0,.412,2.977,7.192,7.192,0,0,0,1.217,2.434,5.892,5.892,0,0,0,2.041,1.648,6.285,6.285,0,0,0,2.846.618,6.191,6.191,0,0,0,3.782-1.161A5.591,5.591,0,0,0,226.04-19.7h2.509a12.1,12.1,0,0,1-1.086,2.565,7.914,7.914,0,0,1-1.685,2.06,7.283,7.283,0,0,1-2.395,1.364,9.707,9.707,0,0,1-3.22.487,9.4,9.4,0,0,1-4.007-.786,7.556,7.556,0,0,1-2.771-2.153,9.085,9.085,0,0,1-1.61-3.22,14.6,14.6,0,0,1-.524-3.988,12.7,12.7,0,0,1,.618-4.007,10.2,10.2,0,0,1,1.76-3.276,8.179,8.179,0,0,1,2.79-2.207,8.421,8.421,0,0,1,3.745-.8,7.733,7.733,0,0,1,6.291,2.752q2.284,2.752,2.247,7.995Z" transform="translate(25.981 41.489)" fill="#fff"/>
  <path id="Tracciato_43946" data-name="Tracciato 43946" d="M0,18.723A2.675,2.675,0,1,1,2.675,21.4,2.675,2.675,0,0,1,0,18.723ZM8.024,10.7A2.675,2.675,0,1,1,10.7,13.373,2.675,2.675,0,0,1,8.024,10.7ZM0,10.7a2.675,2.675,0,1,1,2.675,2.675A2.675,2.675,0,0,1,0,10.7ZM16.048,2.675a2.675,2.675,0,1,1,2.675,2.675,2.675,2.675,0,0,1-2.675-2.675Zm-8.024,0A2.675,2.675,0,1,1,10.7,5.349,2.675,2.675,0,0,1,8.024,2.675ZM0,2.675A2.675,2.675,0,1,1,2.675,5.349,2.675,2.675,0,0,1,0,2.675Z" transform="translate(21.397 25.714) rotate(180)" fill="url(#linear-gradient)"/>
</svg>
