<svg xmlns="http://www.w3.org/2000/svg" width="138.914" height="54.011" viewBox="0 0 138.914 54.011">
  <g id="Raggruppa_9245" data-name="Raggruppa 9245" transform="translate(0 -0.577)">
    <path id="Tracciato_69601" data-name="Tracciato 69601" d="M79.421,50.824a1.179,1.179,0,0,1-1.177-1.177V23.24a.439.439,0,0,0-.218-.376L54.764,9.433a1.173,1.173,0,0,1,0-2.036L65.748,1.054a4.03,4.03,0,0,1,4.031,0L92.222,14.012a1.179,1.179,0,0,1,.588,1.02V40.944a4.046,4.046,0,0,1-2.016,3.493L80.008,50.665a1.186,1.186,0,0,1-.586.159" transform="translate(45.733 0.433)" fill="#ea0029"/>
    <path id="Tracciato_69602" data-name="Tracciato 69602" d="M67.933,1.056a3.669,3.669,0,0,1,1.831.489L92.206,14.5a.8.8,0,0,1,.4.7V41.114a3.66,3.66,0,0,1-1.831,3.172L79.992,50.514a.8.8,0,0,1-1.208-.7V23.41a.809.809,0,0,0-.4-.7L55.119,9.281a.8.8,0,0,1,0-1.392L66.1,1.545a3.669,3.669,0,0,1,1.831-.489m0-.743a4.38,4.38,0,0,0-2.2.59L54.747,7.245a1.546,1.546,0,0,0,0,2.68L78.011,23.356a.062.062,0,0,1,.03.053V49.817a1.551,1.551,0,0,0,1.549,1.549,1.53,1.53,0,0,0,.773-.21l10.787-6.228a4.414,4.414,0,0,0,2.2-3.814V15.2a1.551,1.551,0,0,0-.775-1.341L70.135.9a4.392,4.392,0,0,0-2.2-.59" transform="translate(45.563 0.264)" fill="#fff"/>
    <path id="Tracciato_69603" data-name="Tracciato 69603" d="M66.684,46.758a1.337,1.337,0,0,1-1.335-1.335V27.09a.592.592,0,0,0-.3-.511L48.912,17.26a1.334,1.334,0,0,1,0-2.311l9.854-5.688a3.195,3.195,0,0,1,3.194,0L78,18.523a1.337,1.337,0,0,1,.668,1.154V38.2a3.2,3.2,0,0,1-1.6,2.766L67.35,46.577a1.332,1.332,0,0,1-.666.181" transform="translate(40.728 7.457)" fill="#009d4f"/>
    <path id="Tracciato_69604" data-name="Tracciato 69604" d="M60.531,9.375a2.859,2.859,0,0,1,1.413.376l16.039,9.263a.963.963,0,0,1,.481.834V38.372a2.812,2.812,0,0,1-1.411,2.442l-9.721,5.614a.961.961,0,0,1-1.442-.834V27.26a.972.972,0,0,0-.479-.834L49.267,17.108a.962.962,0,0,1,0-1.665l9.852-5.691a2.859,2.859,0,0,1,1.413-.376m0-.743a3.566,3.566,0,0,0-1.783.479L48.9,14.8a1.7,1.7,0,0,0,0,2.953l16.14,9.321a.215.215,0,0,1,.111.188V45.593A1.708,1.708,0,0,0,66.853,47.3a1.67,1.67,0,0,0,.85-.232l9.721-5.61a3.577,3.577,0,0,0,1.782-3.087V19.848a1.706,1.706,0,0,0-.852-1.477L62.313,9.111a3.559,3.559,0,0,0-1.781-.479" transform="translate(40.559 7.287)" fill="#fff"/>
    <path id="Tracciato_69605" data-name="Tracciato 69605" d="M59.852,34.347a1.045,1.045,0,0,1-.522-.14L48.573,28a1.043,1.043,0,0,1,0-1.807L59.33,19.979a1.039,1.039,0,0,1,1.564.9V33.3a1.037,1.037,0,0,1-.317.751,1.058,1.058,0,0,1-.725.293" transform="translate(40.564 16.746)" fill="#164194"/>
    <path id="Tracciato_69606" data-name="Tracciato 69606" d="M60.022,20.379a.676.676,0,0,1,.673.675V33.473a.671.671,0,0,1-1.011.581L48.931,27.845a.672.672,0,0,1,0-1.164L59.684,20.47a.692.692,0,0,1,.337-.09m0-.743a1.419,1.419,0,0,0-.71.192L48.56,26.037a1.413,1.413,0,0,0,0,2.451L59.312,34.7a1.415,1.415,0,0,0,2.126-1.225V21.054a1.418,1.418,0,0,0-1.416-1.418" transform="translate(40.395 16.576)" fill="#fff"/>
    <path id="Tracciato_69607" data-name="Tracciato 69607" d="M95.224,37.39,81.457,29.442a1.319,1.319,0,0,1,0-2.283L95.224,19.21a.464.464,0,0,0-.231-.865H.211v19.91H94.993a.446.446,0,0,0,.446-.343.451.451,0,0,0-.216-.522" transform="translate(0.178 15.486)" fill="#fff"/>
    <path id="Tracciato_69608" data-name="Tracciato 69608" d="M13.623,15.316H4.474v1.735h3.6v9.308h1.955V17.052h3.6ZM.767,26.359h1.94V15.316H.767ZM16.251,12.092a5.685,5.685,0,1,0-5.686-5.684,5.683,5.683,0,0,0,5.686,5.684m0-9.444a3.8,3.8,0,1,1-3.806,3.806,3.806,3.806,0,0,1,3.806-3.806m57.371,9.321h7.919V10.234H75.562V7.239h4.031v0h.664V5.5h-.664V5.5H75.562V2.663h5.979V.928H73.622V5.5H72.68V7.239h.942Zm-67.937.124a5.661,5.661,0,0,0,3.982-1.63l-1.3-1.309a3.806,3.806,0,1,1,0-5.4L9.713,2.4a5.685,5.685,0,1,0-4.028,9.7M63.261,4.1l5.649,7.871h1.957V.928H68.91V8.8L63.261.928h-1.94V11.969h1.94ZM45.989.928h-1.94V11.969h1.94ZM32.45,11.969V10.234H26.473V7.239H30.5v0h.666V5.5H30.5V5.5H26.473V2.663H32.45V.928H24.532V5.5h-.941V7.239h.941v4.73ZM17.57,15.316,13.262,26.359H15.25l.946-2.477h4.954l.946,2.477h1.988L19.777,15.316Zm-.712,6.833,1.815-4.719,1.815,4.719ZM59.363,6.409a5.686,5.686,0,1,0-5.688,5.684,5.687,5.687,0,0,0,5.688-5.684m-5.688,3.849a3.8,3.8,0,1,1,3.806-3.8,3.805,3.805,0,0,1-3.806,3.8M27.855,15.316h-1.94V26.359h7.6V24.624H27.855Zm15.556,0L39.1,26.359h1.988l.946-2.477H46.99l.946,2.477h1.988L45.616,15.316ZM42.7,22.149l1.815-4.719,1.815,4.719Zm-.657-13.3a2.825,2.825,0,0,0-1.507-2.571,13.671,13.671,0,0,0-1.394-.623c-.505-.2-.97-.354-1.4-.483a2.994,2.994,0,0,1-1.071-.544,1.056,1.056,0,0,1-.433-.843.942.942,0,0,1,.456-.845,2.35,2.35,0,0,1,1.263-.291,2.8,2.8,0,0,1,2.4,1.011L41.681,2.3a3.392,3.392,0,0,0-1.475-1.1A5.527,5.527,0,0,0,38.085.8a4.111,4.111,0,0,0-2.722.834,2.843,2.843,0,0,0-1,2.3,2.72,2.72,0,0,0,.6,1.807,3.53,3.53,0,0,0,1.451,1.048c.566.223,1.136.419,1.7.585A6.118,6.118,0,0,1,39.565,8a1.064,1.064,0,0,1,.6.928,1.1,1.1,0,0,1-.562.965,2.734,2.734,0,0,1-1.5.361,3.82,3.82,0,0,1-2.7-1.04L34.06,10.565a5.234,5.234,0,0,0,3.945,1.529,4.568,4.568,0,0,0,2.949-.874,2.882,2.882,0,0,0,1.088-2.373M35.333,26.359h1.94V15.316h-1.94Zm40.006-8.315a2.684,2.684,0,1,0-5.368,0v.111h1.391v-.111a1.294,1.294,0,1,1,2.209.915l-3.6,3.543v1.036h5.368V22.147H72.316l2.243-2.209a2.6,2.6,0,0,0,.78-1.894m1.58-2.451v1.392h3l-2.388,6.552h1.5l2.545-7.019.007-.926Zm-16,2.608,1.225.636.035-.061v4.762h1.392V15.593H62.419Zm5.238,2.062h3.028V18.87H66.153Zm-6.565-2.219a2.684,2.684,0,1,0-5.368,0v.111h1.389v-.111a1.295,1.295,0,1,1,2.209.915l-3.6,3.543v1.036h5.368V22.147H56.565l2.241-2.209a2.582,2.582,0,0,0,.782-1.894" transform="translate(0 0.61)" fill="#fff"/>
    <path id="Tracciato_69609" data-name="Tracciato 69609" d="M4.452,26.961v2.4H3.2v-7.7H6.027a2.294,2.294,0,0,1,2.621,2.586c0,1.745-.865,2.722-2.621,2.722Zm1.564-1.079c.933,0,1.35-.575,1.35-1.643s-.417-1.507-1.35-1.507H4.452v3.15Z" transform="translate(2.706 18.279)" fill="#164194"/>
    <rect id="Rettangolo_146246" data-name="Rettangolo 146246" width="1.247" height="7.703" transform="translate(12.556 39.932)" fill="#164194"/>
    <path id="Tracciato_69610" data-name="Tracciato 69610" d="M8.448,21.653h4.858v1.09H9.694v2.184h2.938V26H9.694v2.248h3.611v1.1H8.448Z" transform="translate(7.132 18.278)" fill="#164194"/>
    <path id="Tracciato_69611" data-name="Tracciato 69611" d="M11.819,21.653H13.99l1.719,6.016,1.722-6.016h2.182v7.7h-1.26v-6.32h-.17l-1.822,6h-1.3l-1.82-6h-.172v6.32H11.819Z" transform="translate(9.978 18.278)" fill="#164194"/>
    <path id="Tracciato_69612" data-name="Tracciato 69612" d="M16.818,25.6c0-2.576.732-4.017,3.139-4.017s3.124,1.431,3.124,4.017c0,2.621-.717,3.936-3.124,3.936S16.818,28.2,16.818,25.6m4.972,0c0-1.912-.347-2.923-1.833-2.923s-1.844,1.011-1.844,2.923.349,2.844,1.844,2.844,1.833-.887,1.833-2.844" transform="translate(14.197 18.221)" fill="#164194"/>
    <path id="Tracciato_69613" data-name="Tracciato 69613" d="M21,21.653h2.182l2.338,6.6h.17v-6.6h1.249v7.7H24.8l-2.394-6.613h-.159v6.613H21Z" transform="translate(17.729 18.278)" fill="#164194"/>
    <path id="Tracciato_69614" data-name="Tracciato 69614" d="M24.781,21.653H30.4v1.114H28.234v6.589h-1.26V22.767H24.781Z" transform="translate(20.92 18.278)" fill="#164194"/>
    <path id="Tracciato_69615" data-name="Tracciato 69615" d="M28.39,21.653H33.25v1.09H29.637v2.184h2.938V26H29.637v2.248H33.25v1.1H28.39Z" transform="translate(23.967 18.278)" fill="#164194"/>
  </g>
</svg>
