<svg xmlns="http://www.w3.org/2000/svg" width="43.952" height="50.582" viewBox="0 0 43.952 50.582">
  <g id="Raggruppa_9244" data-name="Raggruppa 9244" transform="translate(-942.306 -1633.626)">
    <path id="Tracciato_69691" data-name="Tracciato 69691" d="M342.822,19.121c.221,0,.537.114.457.306s-.166.516-.343.539a.582.582,0,0,1-.515-.459.386.386,0,0,1,.4-.385" transform="translate(633.071 1648.054)" fill="#3169b1"/>
    <path id="Tracciato_69692" data-name="Tracciato 69692" d="M332.347,22.816a.773.773,0,0,0,.734,0l-.184-.3-.42-.376c-.225-.125-.409-.009-.548.349Z" transform="translate(624.213 1650.565)" fill="#3169b1"/>
    <path id="Tracciato_69693" data-name="Tracciato 69693" d="M338.955,27.195c-.07.124-.026.249.129.373s.288.155.395.081Z" transform="translate(630.117 1654.87)" fill="#707072"/>
    <path id="Tracciato_69694" data-name="Tracciato 69694" d="M368.132,24.6q.207-1.447-.29-1.822-.523-.376-1.282.242c-.3-.162-.7-.009-1.2.456a.86.86,0,0,0,.026-.618,1.772,1.772,0,0,0,.876-.71,2.8,2.8,0,0,0,.2-1.219,6.076,6.076,0,0,1,.915-1.822q.575-1.314-.811-.909a1.885,1.885,0,0,0,.76-1.208,2.146,2.146,0,0,0-.393-1.234c-.122-.286-.3-.337-.548-.16a1.6,1.6,0,0,0,.142-.644,5.245,5.245,0,0,0-.487-1.582c-.05-1.055-.3-1.49-.732-1.313a4.306,4.306,0,0,0-.522-1.58q-.631-.968-1-.509-1.021-1.557-1.911-1.287a2.066,2.066,0,0,0-.443-1.2,3.575,3.575,0,0,0-.577-1.424q-.473-.185-.653.537a4.66,4.66,0,0,0-.369-1.234,1.009,1.009,0,0,0-.917-.669.788.788,0,0,0-.444.081,1.4,1.4,0,0,0-.708-.269q-.888-.963-1.623-.16l-.079-.561c-.173-.664-.522-.806-1.048-.432a7.934,7.934,0,0,0-2.2-1.794q-.758-.268-.994.133a1.756,1.756,0,0,0-.837-.507,8.367,8.367,0,0,1-.837-.243c-.4-.018-.577.207-.526.671a2.392,2.392,0,0,0-1.3.334.657.657,0,0,0-.183.789,1.494,1.494,0,0,0,.775.834.8.8,0,0,0-.131.588c.018.269.293.494.835.671a2.412,2.412,0,0,0,1.178.028.58.58,0,0,0,.417.776,1.641,1.641,0,0,0,1.888.4l-.079.511,1.02.426a1.224,1.224,0,0,0,.682,1.073l.4.177a1.5,1.5,0,0,0-.468.378c-.083.1-.306.594.24.7a9.489,9.489,0,0,0,1.306.083,1.513,1.513,0,0,0,.172.5,3.5,3.5,0,0,0,.563.736,3.992,3.992,0,0,0,1.269.823,6.905,6.905,0,0,0-.264.7A1.615,1.615,0,0,0,358,13.5c-.059-.03-.306.148-.4.29-.326.515.378,1.254.491,1.51a.956.956,0,0,0-.352.172c-.242.177-.159,1.064.529,1.215a6.5,6.5,0,0,1,1.361.97c.077.081.3.509.618.933.168.229.347.612.76.62a14.733,14.733,0,0,0,1.748,3.62,7,7,0,0,1,.929,1.457,4.747,4.747,0,0,0-.077.834,13.2,13.2,0,0,1-.452,2.373c-.743-.367-.863.135-.976.625.018-.026-.343-.072-.395.1a.481.481,0,0,0-.66-.4c-.006,0-.24.17-.384.284-.048.037-.089-.247-.107-.457a2.494,2.494,0,0,1,.055-.837c.013-.033.19-.249.3-.448a4.838,4.838,0,0,0-.212-2.562.673.673,0,0,0-.4-.45.476.476,0,0,0-.524.3c-.022-.173-.3-.278-.5-.326-.575-.138-1.188.987-1.119,2.032-.417-.337-.966-.231-.9.354.1.821,1.3,2.278,1.335,2.936-.36-.33-1.177-.339-1.178.461a2.63,2.63,0,0,0,.277.832c-.168.852.793,1.477,1.577,2.281-.015.38.114.385.234.533-.144.229-1.022,1.641-1.033,1.676-.042.018-.649-.33-.848-.149a3.1,3.1,0,0,0-.485.61l.105.992a1.68,1.68,0,0,1-.64,1.379,4.188,4.188,0,0,0-.983,1.409,2.181,2.181,0,0,1-1.022,1.044,1.6,1.6,0,0,0-.419-.507c-.033-.072-.1-.1-.208-.079a35.183,35.183,0,0,0-3.587,1.772,3.808,3.808,0,0,0-1.333,1.582h-1.02a8.223,8.223,0,0,0-.891-.834c-.227-.179-.631-.2-1.206.107a1.989,1.989,0,0,0-1.623.308.991.991,0,0,1-.732.057l-1.284-1.431q-3.978-1.715-4.345-1.531a1.382,1.382,0,0,0-.573.692,4.929,4.929,0,0,1-1.178-1.018l-.811-.939a2.355,2.355,0,0,1-.734-1.931l.129-.83a.4.4,0,0,0-.052-.3,1.464,1.464,0,0,0-.706-.38c-.037-.015-.149-.055-.28.43a14.627,14.627,0,0,1-.848-1.221,5.426,5.426,0,0,0,.889-1.907,11.153,11.153,0,0,0,.382-2.538.478.478,0,0,1,.1-.148c.408-.319.92-3.3.806-4.019-.053-.288-.118-.435-.2-.444a.3.3,0,0,0-.221.068l.157-.321c.087-.232.087-.384,0-.459a1.4,1.4,0,0,0-.935.164,5.933,5.933,0,0,0-.376-1.4c-.037-.079-.149.007-.155.009a3.971,3.971,0,0,0-1.319,2.685l-.208.2a10.146,10.146,0,0,0-2.014,4.188,4.8,4.8,0,0,1-.385-1.088,1.969,1.969,0,0,1-.131-.95.526.526,0,0,0-.129-.7,7.449,7.449,0,0,1-.682-2.412,6.262,6.262,0,0,1,.443-1.689,20.111,20.111,0,0,1,1.361-2.774,1.707,1.707,0,0,1,.385-.367c.905-.232,4.935-5.573,4.509-8.059a20.672,20.672,0,0,0,1.872-3.6l.225-.074.262-.109c.872-.356,1.616-.738,2.3-1.059l1.053-.575a8.747,8.747,0,0,0,2.1-1.313,2.988,2.988,0,0,0,1.125-1.955c-.122-.16-.479-.253-1.073-.271a1.806,1.806,0,0,0,.5-1.125c-.227-.321-.907-.373-2.045-.16a9.131,9.131,0,0,0-3.111,1.42A11.3,11.3,0,0,0,336,5.045a12.262,12.262,0,0,0-1.743,2.641l.526-1.232c.264-.588.54-1.278.837-2.065a1.316,1.316,0,0,0,.015-.806c-.077-.159-.251-.2-.513-.133A5.082,5.082,0,0,0,333.6,4.575a12.81,12.81,0,0,0-2.134,3.111,21.241,21.241,0,0,0-1.271,2.921,4.953,4.953,0,0,0-.053-2.064c-.087-.232-.278-.293-.575-.188a3.719,3.719,0,0,0-.837.885c-.277.393-.551.773-.811,1.138a13.985,13.985,0,0,0-.93,1.571,12.74,12.74,0,0,0-.941,2.41,19.954,19.954,0,0,0-.616,3.7,11.01,11.01,0,0,0,.21,3.163,12.026,12.026,0,0,0,.834,2.493c.28.539.542.85.787.941q.235.589.629,1.955a2.785,2.785,0,0,1,.183.981.476.476,0,0,0,.17.467,1.015,1.015,0,0,1,.33.539,11.175,11.175,0,0,0,.915,2.385,6.683,6.683,0,0,0-.105,1.178q-1.256-3.726-2.043-5.63-1.516-3.452-2.381-3.161a.909.909,0,0,0-.526.778c-.015.159-.015.572,0,1.23a18.236,18.236,0,0,0,.183,2.091,14.291,14.291,0,0,0,2.7,5.951l1.914,2.307a4.684,4.684,0,0,0,1.1.87,1.256,1.256,0,0,0,.968.148,18.445,18.445,0,0,0,1.649,2.25q.631.993,1.308.937a.929.929,0,0,0,.865.645l.395-.053a13.8,13.8,0,0,0,1.464,1.287l-.5,1.448a20.65,20.65,0,0,1-2.409.212q-1.024-.75-2.879-2.036l-.079-1.606a2.351,2.351,0,0,1,.288-1.394c.052-.3-.114-.583-.5-.83-.574-.288-.817-.406-1.062-.352-.105.037-.018.136-.018.3v.1c0-.081.035-.107.133-.074.732.2,1.066.446,1.012.752a2.474,2.474,0,0,0-.321,1.339l.024,1.4a19.936,19.936,0,0,0-2.984-1.663c.122-.018.26-.031.417-.041a.34.34,0,0,0,.315-.173c.052-.111-.044-.173-.29-.19a2.5,2.5,0,0,0-1.048.136c-.122.142-.094.293.077.454a32.148,32.148,0,0,1,3.327,1.931q2.279,1.472,3.533,2.412a30.325,30.325,0,0,0,3.456-.349l2.25-.428c.926-.181,1.887-.33,2.883-.457a12.361,12.361,0,0,1,1.385-.107,13.574,13.574,0,0,0,1.545-.133,7.931,7.931,0,0,1,.839,2.305c.05.337.007.526-.131.562a39.377,39.377,0,0,1-4.478,1.486c-.907.2-1.726.391-2.462.55q-2.747.506-5.418.832a28.414,28.414,0,0,1-3.926-2.065,20.655,20.655,0,0,1-3.218-2.3q-1.049-1.154-.839-1.394a8.388,8.388,0,0,0,.917-2.038,1.238,1.238,0,0,0,.053-.588c-.194-.609-.053-.922.415-.941a18.988,18.988,0,0,1,2.359-.052.291.291,0,0,0,.339-.162l.395-.8-.238-.105-.319.537,0-.544v.7l-2.652.053a.863.863,0,0,0-.645.269,1.241,1.241,0,0,0-.055,1.071,1.448,1.448,0,0,1-.048.509,6.7,6.7,0,0,1-.979,2.089.616.616,0,0,0,.087.564,6.546,6.546,0,0,0,.979,1.178,8.627,8.627,0,0,0,1.035.858q.694.512,2.445,1.555a33.771,33.771,0,0,0,3.954,2.091c.264.018,2-.223,5.236-.721l.026.291c-.924.716-1.52,1.011-1.78.887-.369.033-.481.312-.341.83a.887.887,0,0,0,.575.481l.339.4.97.588a1.72,1.72,0,0,0,1.047,0,1.1,1.1,0,0,0,.629-.832l.1-.105L341.8,49.42l.76-.588a1.531,1.531,0,0,0,1.149-.644c.035-.288.112-.465.236-.537l.917-.645q.053-.13,1.127.457a1.3,1.3,0,0,0,.913-.053l.682-.4a10.225,10.225,0,0,1,3.222,2.335.776.776,0,0,0,.284.564,1.794,1.794,0,0,0,1,.4l.369.7.365.133a2.146,2.146,0,0,0,1.518-.592l.577-.186c.3-.232.428-.463.393-.7l-.234-.242-.5-.133a10.193,10.193,0,0,1-1.911-1.232l-.419-.325a67.6,67.6,0,0,0,7.1.806,1.952,1.952,0,0,0,1.4-.55q.874-.658,5.3-3.875a5.739,5.739,0,0,0,1.049-1.66,3.223,3.223,0,0,1-.692-1.075,5.013,5.013,0,0,1-.38-1.177,1.868,1.868,0,0,1-.028-.821.732.732,0,0,0-.236-.682.847.847,0,0,0-.6-.242,9.873,9.873,0,0,0-1.883.028c-.33-.035-.526-.114-.577-.242l.024-.642c.055-.288-.024-.411-.234-.378a2.968,2.968,0,0,0-1.385.592.543.543,0,0,0,.026.8.815.815,0,0,1,.288.616,23.924,23.924,0,0,1-.288,2.385,19.622,19.622,0,0,1-2.591,1.905,6.346,6.346,0,0,1-2.462-.162,2.314,2.314,0,0,1-.6-1.287,16.171,16.171,0,0,0,1.389-.965,4.7,4.7,0,0,0,.839-.2c.227-.081.338-.3.338-.658a.9.9,0,0,0,.5-.59l1.516-1.876a2.968,2.968,0,0,1,1.6-.751,6.238,6.238,0,0,0,2.722-1.2c.175-.2.175-.476,0-.834a8.348,8.348,0,0,0,1.625-1.662,1.576,1.576,0,0,0,.208-1.422,5.105,5.105,0,0,0,1.178-2.036,4.465,4.465,0,0,0-.026-1.448,3.5,3.5,0,0,0,.693-.548.932.932,0,0,0,.2-.633.875.875,0,0,0-.291-.669,1.671,1.671,0,0,0,.186-1.983M343.74,3.21a1.659,1.659,0,0,1-.566,1.127,10.313,10.313,0,0,1-2.259,1.58c-.915.483-2.143,1.053-3.467,1.715V7.474a34.208,34.208,0,0,1,4.843-3.327c.4-.249.245-.321-.225-.214-.526.267-1.092.6-1.719.992-1.049.7-2.064,1.385-3.058,2.064l.028-.323a18.792,18.792,0,0,1,4.9-3.458,2.761,2.761,0,0,1,1.527,0m-5.938.644a10.341,10.341,0,0,1,3.416-1.877,5.67,5.67,0,0,1,1.676-.242c.227.055.288.188.183.4l-.572.776a6.253,6.253,0,0,0-2.084.885,20.624,20.624,0,0,0-2.842,2.066l-.365.24c-.192-.146-.54-.081-1.047.186a32.682,32.682,0,0,1,4.19-3.135,5.172,5.172,0,0,0,1.335-.832,8.344,8.344,0,0,0-1.625.738,34.608,34.608,0,0,0-3.454,2.4l-1.547,1.422A16.762,16.762,0,0,1,337.8,3.854M336.19,6.828c.28-.162.474-.223.579-.186a1.58,1.58,0,0,1,.052.736,9.6,9.6,0,0,1-.682,1.97l-.968,1.929a3.591,3.591,0,0,0-1.938.966q.473-.83,1.14-1.9t2.082-3.218c.157-.267.162-.334.015-.2a16.238,16.238,0,0,0-1.193,1.542q-.965,1.339-2.591,4.155c-.3.465-1.007,1.582-2.182,3.425l.144-.413,1.571-2.851,1.516-2.9a9.906,9.906,0,0,1,2.457-3.056M329.78,13.4a53.62,53.62,0,0,0,2.512-4.931A13.285,13.285,0,0,1,333.6,6.345c.173-.409.079-.4-.29.028a29.754,29.754,0,0,0-2.984,5.173l.5-1.285a20.658,20.658,0,0,1,.839-1.944,12.954,12.954,0,0,1,1.389-2.4,14.692,14.692,0,0,1,.941-1.153c.629-.555.994-.811,1.1-.778a.326.326,0,0,1,.077.349l-1.282,3.379a34.342,34.342,0,0,1-3.3,5.2q-.866.965-1.073,1.232a4.274,4.274,0,0,0-.343.513l.109-.459Zm.706,3.056a13.967,13.967,0,0,0-.837,1.877l-.208-.028.548-1.743Zm-1.936,4.557.181-.778.159-.778.42-.081-.526,1.448-.365,1.26Zm-.107-2.921a14.511,14.511,0,0,1,.5-2.2l.208.269Zm-.992,5.335-.109-.216a10.754,10.754,0,0,1,.551-3.137q-.26,2.147-.443,3.353m-.395-1.529a18.691,18.691,0,0,1,.249-4.623,18.518,18.518,0,0,1,1.165-5.027c.229-.516.218-.6-.028-.242q-1.6,2.788-1.857,8.229a9.444,9.444,0,0,0,.208,2.746c.177.564.376.891.6.979a.354.354,0,0,0,.395-.028,2.419,2.419,0,0,0-.083.59,1.968,1.968,0,0,1-1.018-1.084,12.226,12.226,0,0,1-.59-2,11.96,11.96,0,0,1-.221-2.947,24.817,24.817,0,0,1,.574-3.969,12.656,12.656,0,0,1,2.67-5.094c.3-.337.481-.419.55-.24a9.634,9.634,0,0,1-.011,2.077,12.077,12.077,0,0,1-.513,2.241q-1.018,3.48-1.228,4.69-.393,1.419-.865,3.7m.776,2.573v-.43c.664-.732.586-1.429.83-2.089l.92-2.414,1.064-2.545a32.781,32.781,0,0,1,2.42-3.913,2.886,2.886,0,0,1,1.63-1.18,1.6,1.6,0,0,1,0,1.1,7.9,7.9,0,0,1-.627,1.743c-.02.007-.044.017-.018.033A17.179,17.179,0,0,1,330.77,19.4l1.807-3,.861-1.608c.332-.609.391-.824.183-.645-1.767,2.718-2.831,4.424-3.178,5.123s-.706,1.348-1.038,1.955a11.744,11.744,0,0,0-.769,1.422,4.2,4.2,0,0,1-.8,1.822m7.025,1.1a17.681,17.681,0,0,1-.524,3,12.979,12.979,0,0,0-.131-1.984l.236-.669c.018-.234-.028-.243-.131-.026l-.157.293-.026-.537.393-.509c.262-.269.376-.124.339.43m-.393-1.446c.227-.055.271.052.131.319l-.5.752a6.261,6.261,0,0,0-.129-.778,2.823,2.823,0,0,1,.5-.293m-2.069,1.256q.553-2.221,1.049-2.357a12.816,12.816,0,0,1,.47,2.882,19.68,19.68,0,0,1,0,3.792,7.669,7.669,0,0,1-.706,2.9l-.339.749q0-1.663.039-2.707t.079-2.776c.024-1.153.1-2.462.221-3.926.07-.356.054-.437-.053-.242a36.511,36.511,0,0,0-.5,5.711l-.024,1.525-.052,2.093-.341-.406a18.234,18.234,0,0,1-.315-3.937,20.613,20.613,0,0,1,.47-3.3m-2.316,4.492a11.081,11.081,0,0,1,1.979-4.09,10.285,10.285,0,0,0-.29,1.636,21.249,21.249,0,0,0-1.781,4.048,11.94,11.94,0,0,0-.26,1.475,11.533,11.533,0,0,1,.352-3.069m1.715,2.239-.574-.751.419-1.071a8.2,8.2,0,0,0,.155,1.822m5.289,11.069.367-1.073,1.2.806Zm2.879-.535L338,41.433,336.19,40.2l-.337-.457a.344.344,0,0,0-.43-.079c-.186.072-.33-.037-.435-.321a1.088,1.088,0,0,1-1.44-.325l-.865-1.07-.81-1.422-.288-.216a.758.758,0,0,1-.55.118,2.027,2.027,0,0,1-1.127-.7,15.3,15.3,0,0,1-1.569-2.761,46.335,46.335,0,0,1-2.172-4.692c-.279-.878-.461-1.429-.551-1.663s-.12-.236-.1-.015a8.859,8.859,0,0,0,.393,1.5,35.982,35.982,0,0,0,1.359,3.415q.863,1.823,1.7,3.323a16.51,16.51,0,0,1-2.8-4.02,14.213,14.213,0,0,1-1.151-3.432,9.33,9.33,0,0,1-.157-1.728,7.472,7.472,0,0,1,.026-1.3c.089-.269.208-.384.367-.35.1,0,.343.256.719.765a16.447,16.447,0,0,1,1.533,3.432q.965,2.664,1.191,3.5t.441,1.448c.153.411.33.832.538,1.258a3.611,3.611,0,0,0,.944,1.317c.413.3.716.35.913.157l-.955-1.752a.421.421,0,0,0-.3-.015.427.427,0,0,1-.048-.006l0,.007a.778.778,0,0,1-.1-.022.556.556,0,0,1-.118-.026.289.289,0,0,1-.076-.059.323.323,0,0,1-.083-.076.479.479,0,0,1-.039-.109.587.587,0,0,1-.037-.118,1.1,1.1,0,0,1,.009-.317,14.448,14.448,0,0,1,.341-1.662,19.442,19.442,0,0,1,1.647-3.939,9.716,9.716,0,0,0-.133,1.448q-.968,2.224-1.411,3.591-.238.993.026.966l.208-.109-.155-.374.1-.293.314.561.183-.133.159.24-.159.243,1.18,1.741.284-.24.214.24c-.352.358-.491.59-.419.7a11.718,11.718,0,0,0,.863,1.422c.522.784.95,1.009,1.282.669.1-.087.238-.072.393.055a2.321,2.321,0,0,1,.522.8L335.2,38.7l-.968-.939-.548-1.123c-.454-.66-.776-1.173-.97-1.529s-.432-.786-.719-1.285-.64-1.066-1.06-1.689l.079-.3.835,1.046a25.682,25.682,0,0,1,1.584,2.241c.308.509.485.629.538.36l.157-.507.236.133-.155,1.046-.055.323c-.017.249.029.4.144.441s.216.21.3.5a4.551,4.551,0,0,0,.828,1.114,8.847,8.847,0,0,0,1.568,1.416c.55.387,1,.7,1.361.944s.527.474.511.706l.5.107-.131-.64.314-.083a1.172,1.172,0,0,1,.393.59c.454.356.848.644,1.178.858Zm-8.587-8.712.157-.162.734,1.26-.077.162Zm1.23,2.521.291-.38.677,1,.395.723.131.4a1.7,1.7,0,0,1-.629-.562l-.417-.561Zm9.112,5.866-1.127-.8c-.454-.553-.784-.957-1-1.208a2.317,2.317,0,0,0-.6-.537.9.9,0,0,0-.681-.16c-.122.037-.253.218-.393.539l-.052-.053a.778.778,0,0,1,.326-.564.646.646,0,0,1,.563.053l1.258.618,2.147.83a8.526,8.526,0,0,1,.968,1.18c-.435.052-.907.089-1.413.105m.679,5.6a19.325,19.325,0,0,1-2.486,2.091l-.315-.105q.813-.512,2.305-1.663l.443-.509-.232-.028a13.512,13.512,0,0,1-1.142.926,10.642,10.642,0,0,1-1.477.9l-.76.376.131.162.575.077c.332.214.472.43.421.644-.177.269-.454.3-.837.109l-.627-.352a1.991,1.991,0,0,0-.682-.478l-.262-.216.105-.243.786.347h.232l-.127-.509.94-.6a.406.406,0,0,0,.315-.463l.077-.489a1.983,1.983,0,0,0,1.309-.2,3.828,3.828,0,0,1,1.333-.385c.264.175.254.382-.026.612m10.945-41.76.052-.616-.5.107a1.352,1.352,0,0,1-1.413-.43c-.314.052-.444-.072-.395-.374.124-.271.089-.413-.1-.43l-.76.079a1.428,1.428,0,0,1-.968-.428c-.105-.179-.035-.4.208-.669a1.646,1.646,0,0,1-.878-.645q-.172-.346.212-.561a2.493,2.493,0,0,1,1.4-.081.631.631,0,0,1-.131-.618c.017-.212.472-.1,1.361.349l.522.325a.523.523,0,0,1,.708-.243,6.22,6.22,0,0,1,1.125.712,8.571,8.571,0,0,1,1.18,1.191c.365-.251.625-.2.784.16l.079.645a1.079,1.079,0,0,0-1.416-.083l-.365-.16a5.3,5.3,0,0,1-.915-1.42q-.158-.617-.159-.105a2.81,2.81,0,0,0,.629,1.365,3.864,3.864,0,0,1-1.689-.966,11.123,11.123,0,0,1-.826-.99q-.285-.479-.234,0a4.236,4.236,0,0,0,.865,1.1c-.278-.124-.542-.251-.786-.374a4.468,4.468,0,0,0-1.518-.43c-.192,0-.2.035-.028.105a8.42,8.42,0,0,1,1.479.5,1.975,1.975,0,0,1,.616.413,3.392,3.392,0,0,1-1.518.3c-.33-.015-.48-.007-.446.028a.761.761,0,0,0,.315.109,4.451,4.451,0,0,0,1.911-.214,13.58,13.58,0,0,0,1.651.721,3.1,3.1,0,0,0-1.125.537c-.142.179-.072.188.2.028a2.461,2.461,0,0,1,1.258-.4l.446.188a2.8,2.8,0,0,0,.337,1.472l-.284.109Zm2.984,2.866c-.977.018-1.173,0-1.23-.16-.037-.118-.057-.227.288-.428l.173-.3c-.564-.266-1.09-.581-1.119-1.3l.474-.186c.208-.251.214-.441.015-.564s-.312-.456-.33-.99q.29-.645,1.415,0c.332-.664.732-.859,1.2-.592a.8.8,0,0,0-.891.671,3.525,3.525,0,0,0,0,1.046,2.657,2.657,0,0,0-.627-.642c-.474-.251-.559-.227-.264.079a7.629,7.629,0,0,1,.787.937,1.7,1.7,0,0,1-1.256.43q-.238.108.078.133a1.339,1.339,0,0,0,.734-.052,2.428,2.428,0,0,0,.179,1.046,2.849,2.849,0,0,0,.644.657.379.379,0,0,0-.273.225m.55.511c-.018-.214.166-.336.548-.361s.446-.138.186-.336a2.7,2.7,0,0,1-1.258-.911q-.343-.454,0-.644l.393-.107.183-.242L356.692,6a.922.922,0,0,1,.391-1.018,1.775,1.775,0,0,1,1.389.43c.017-.251.179-.326.485-.229s.586.765.85,2l.419.162c.138-.341.251-.511.339-.511.138,0,.28.293.419.885a1.979,1.979,0,0,1,.5,1.58,1.969,1.969,0,0,0-.363,1.129l-.21-.483a6.842,6.842,0,0,1-.159-1.689c-.015-.251-.044-.251-.077,0a7.006,7.006,0,0,0-.028,1.313,12.531,12.531,0,0,0-1.516-1.689,4.027,4.027,0,0,1-.105-1.339c-.052-.43-.1-.527-.131-.3a7.126,7.126,0,0,0,.052,1.5,14.11,14.11,0,0,1-1.413-1.794c-.14-.251-.2-.3-.184-.16a8.512,8.512,0,0,0,1.048,1.608c.367.426.662.769.891,1.018a7.789,7.789,0,0,0-1.178-.284,2.84,2.84,0,0,1-.917-.28c-.262-.052-.254.009.026.188a2.8,2.8,0,0,0,.955.3,4.968,4.968,0,0,1,1.348.456,3.939,3.939,0,0,1,.918,1.1l.312.723a5.408,5.408,0,0,0-1.621-.562,3.084,3.084,0,0,1-1.049-.3q-.678-.293-.155.053a2.882,2.882,0,0,0,1.11.363,5.528,5.528,0,0,1,1.846.763l.052.16a.724.724,0,0,0-.131.59l.184.535c-.159-.2-.374-.105-.655.269a.58.58,0,0,0-.077-.644,4.292,4.292,0,0,0-1.781-1.206l-.157.3a2.023,2.023,0,0,1-1.439-1.394M363.246,22.9c-.181-.277-.444-.7-.782-1.272a13.979,13.979,0,0,1-.749-1.394,1.59,1.59,0,0,1-.077-1.1c.1-.374.192-.66.26-.856s.063-.232-.024-.109a4.324,4.324,0,0,0-.445,1.1l-.524-1.531a5.79,5.79,0,0,1,.942-2.329c.173-.325.159-.35-.055-.081a5.7,5.7,0,0,0-1.018,2.171l-.811-1.85a5.21,5.21,0,0,1,.629-1.929q.34-.752-.157.053a7.208,7.208,0,0,0-.6,1.5c-.245-1.02-.48-1.888-.706-2.6l-.186-.053.107.3a12.079,12.079,0,0,0,.577,2.333A4.408,4.408,0,0,0,358.5,14.5q-.346-.191,0,.081a4.635,4.635,0,0,1,1.149.911c.208.5.4.953.577,1.365a7.961,7.961,0,0,0-1.6-.806c-.28-.052-.28-.017,0,.111a3.75,3.75,0,0,1,1.752,1.151l.526,1.42c-.192,0-.446-.3-.76-.883a3.96,3.96,0,0,0-1.964-1.446.51.51,0,0,1-.288-.564c.035-.2.234-.277.6-.242a2.531,2.531,0,0,0-.371-.723l-.207-.321q-.42-.885.5-.887a1.038,1.038,0,0,1-.236-.83,1.812,1.812,0,0,1,.236-.99,3.255,3.255,0,0,0,.236-.645c.33.2.633.363.9.5a.791.791,0,0,1,.432.734l-.131.832c.053.16.194.107.422-.159a1.575,1.575,0,0,1,.546-.564,1.538,1.538,0,0,1,.553.483,2.783,2.783,0,0,1-.184,1.874l-.288.752c.592-.8,1.073-1.188,1.438-1.151.122.087.162.271.12.548a2.756,2.756,0,0,0,0,.87.832.832,0,0,1-.3.776,1.771,1.771,0,0,0-.5,1.046q.838-.642.68.242l-.314,1.153q-.13.833.262.778c.26-.035.421,0,.483.107a.946.946,0,0,1,.041.564,1.814,1.814,0,0,0-.208.736.507.507,0,0,0,.142.3c.081.081.251.063.511-.052s.393-.037.393.24,0,.546.011.8a1.515,1.515,0,0,0,.253.763.824.824,0,0,0,.468.349l.238-.293c-.352.015-.513-.216-.485-.7a6.545,6.545,0,0,0-.013-1.125c-.14-.341-.279-.529-.421-.564a9.1,9.1,0,0,1-.968-2.68l.55.026q.6,2.255.968,2.427c.243.116.358.249.341.4a4.161,4.161,0,0,0,.131.979c.315-.09.5-.384.55-.885a.986.986,0,0,0-.395-1.071c-.365-.214-.575-.411-.627-.588-.1-.3.007-.492.341-.564.192-.105-.273-.537-1.387-1.285-.579-.411-.751-.778-.524-1.1.087-.16.251-.155.483.015s.387.21.459.12c.122-.247.024-.422-.288-.522s-.463-.21-.446-.336a6.428,6.428,0,0,1,.028-1.125,1.658,1.658,0,0,0-.053-.7c-.192-.284-.557-.266-1.1.053a1.452,1.452,0,0,0,.092-.883,2.076,2.076,0,0,0-.4-.83l-.262-.83c-.07-.288.089-.483.47-.592a1.844,1.844,0,0,1,0-1.178,5.775,5.775,0,0,0,.264-.616c.052-.16.21-.179.47-.053a4.864,4.864,0,0,1,1.254,1.42c.284-.321.551-.207.813.349a2.759,2.759,0,0,1,.367,1.8c.645-.358.872-.118.68.725a6.1,6.1,0,0,1,.509,1.379,1.3,1.3,0,0,1-.159.924,1.374,1.374,0,0,0-.232.657c.007.151.072.148.183-.013a1.313,1.313,0,0,1,.693-.4,2.115,2.115,0,0,1,.288.994.96.96,0,0,1-.352.642,1.351,1.351,0,0,0-.409.83.213.213,0,0,0,.236.243l.476-.136c.242-.035.251.162.024.59a9.571,9.571,0,0,0-.537,1.18,2.457,2.457,0,0,0-.17.776c-.018.413-.089.653-.208.727a9.465,9.465,0,0,0-.041-1.623,17.146,17.146,0,0,0-.328-1.89,3.775,3.775,0,0,0,.577-1.258q.18-.539-.079-.135a2.026,2.026,0,0,1-.577.99c-.19-.66-.4-1.466-.625-2.41a4.176,4.176,0,0,0,.494-1.689c.018-.574-.017-.618-.105-.136a3.519,3.519,0,0,1-.574,1.584c-.229-.751-.47-1.457-.734-2.121a5.013,5.013,0,0,0,.105-1.311c-.017-.5-.061-.52-.129-.053a3.185,3.185,0,0,1-.133.966l-.575-1.5-.367-.858c-.124-.286-.164-.286-.133,0l.343,1.125a3.581,3.581,0,0,0-.732-.669c-.229-.144-.271-.135-.133.028a6.46,6.46,0,0,1,.994,1.1q.34.858.682,1.769a4.867,4.867,0,0,0-1.389-.965q-.5-.188,0,.186a8.418,8.418,0,0,1,1.678,1.608q.31.941.6,1.824a5.037,5.037,0,0,1-1.206-1.178c-.21-.218-.218-.181-.026.105a7.454,7.454,0,0,0,1.337,1.555l.389,1.636a9.553,9.553,0,0,0-1.568-1.26q-.421-.268-.055.107a8.933,8.933,0,0,1,1.756,1.822A9.336,9.336,0,0,1,365.539,22q-.028.512-.734.751l-.1,1.285-.655.03c-.347-.5-.618-.891-.8-1.167m.854,1.258a3.072,3.072,0,0,1,.57-.006c-.247,1.357-.527,2.846-.754,3.775l-.367-.214a24.941,24.941,0,0,0,.551-3.556M359.453,31.8c-.1-.081-.391-.326-.876-.738-.439-.391-.577-.749-.42-1.073a2.714,2.714,0,0,1-.326-.561.609.609,0,0,1,.065-.629c.14-.207.461-.112.968.28a1.451,1.451,0,0,0,0-.859,7.669,7.669,0,0,0-.314-.8,11.2,11.2,0,0,0-.655-1.1c-.192-.411-.236-.645-.131-.7s.271.018.5.216c.437-.481.725-.621.865-.417a2.848,2.848,0,0,1,.341,1.031,4.873,4.873,0,0,1,.026,1.5l-.1.105.1.109a4.655,4.655,0,0,1-.133,1.206.807.807,0,0,0,.133.43,1.67,1.67,0,0,1-.026-.485c.015-.089.074-.3.17-.629a4.228,4.228,0,0,0,.142-.561c0-.046.006-.077-.133-.094a.323.323,0,0,0,.225-.229.432.432,0,0,0,.028-.3,5.266,5.266,0,0,1-.055-.843,3.836,3.836,0,0,0-.127-1.062,3.189,3.189,0,0,1-.144-.559c-.02-.138-.124-.214-.317-.231s-.459.181-.808.59a5.075,5.075,0,0,1,.483-1.542c.166-.26.334-.336.509-.227a.765.765,0,0,1,.339.347q.08.191.238-.066c.1-.17.192-.229.264-.173a.939.939,0,0,1,.221.321,2.13,2.13,0,0,1,.168.511,7.847,7.847,0,0,1,.092.977,1.4,1.4,0,0,1-.17.952.87.87,0,0,0-.21.59q.053,1.394.21,1.379a.74.74,0,0,0,.38-.214c.149-.133.278-.184.391-.148s.179.3.2.778.063.533.131.148.2-.579.395-.579.227.52.1,1.557a11.318,11.318,0,0,0-1.468,1.555,1.5,1.5,0,0,1-.013-.939,4.279,4.279,0,0,0,.264-.6c.079-.223.144-.424.2-.6.138-.43.114-.463-.079-.109-.105.216-.2.4-.275.564a5.013,5.013,0,0,1-.275.485,13.985,13.985,0,0,0-.337-1.531q-.241-.75-.135.028.21,1.261.289,2.44a7.172,7.172,0,0,0-.9-.832,5.111,5.111,0,0,1-.8-.751c-.192-.124-.227-.107-.105.053a7.608,7.608,0,0,0,.93,1.005,7.542,7.542,0,0,1,.747.763.868.868,0,0,1,.155.323,8.065,8.065,0,0,1-.548.669.439.439,0,0,1-.208-.36.549.549,0,0,0-.172-.378m-9.385,9.8a3.131,3.131,0,0,1,.811-.669,19.673,19.673,0,0,1,2.956-1.315.2.2,0,0,1,.238.079l.21.271-.288.188a.906.906,0,0,1-.657.186,2.059,2.059,0,0,0-.917.227.925.925,0,0,0-.629.712.618.618,0,0,1-.286.4c-.385.216-.736.4-1.049.562l-.81-.053Zm2.226.891h-.133l-.005-.063c-.087.037-.184.046-.282.087l-.865-.124.917-.461.231.446c.042-.018.085-.037.122-.055l-.116-.452a.64.64,0,0,1,.312-.763,1.258,1.258,0,0,1,.92-.288c.138.017.148.256.028.756a2.276,2.276,0,0,1-1.143.8Zm-3.823,3.452-.131-.428-.706.911-.575.374a.93.93,0,0,1-.811.267l-.918-.454.472-.24.129.1c-.087.269.018.232.317-.1l.811-.808a4.325,4.325,0,0,0-.343-1.861,7.711,7.711,0,0,0-.625-1.437c-.037-.16-.439-.194-1.206-.107a2.04,2.04,0,0,1,1.6-.053l.627.269.343-.149-.05-.048-.581-.284.315.028.266.256.076.037-.026.011.183.175a7.939,7.939,0,0,1,1.5,2.01,1.865,1.865,0,0,1,.039,1.048q-.5.669-.706.481m6.255,3.86.288.053-.1.135-.68.214a2.3,2.3,0,0,1-1.047.537l-.446-.081-.1-.321a.873.873,0,0,1,.4-.347,3.407,3.407,0,0,1,.644-.19l.631.109Zm-.968-.149c-.472,0-.767.308-.891.308H352.5a6.946,6.946,0,0,0-1.2-1.138l-1.232-1.064c.225-.127.716-.046,1.466.17Zm3.744-5.6a2.993,2.993,0,0,0,1.153-.065,15.929,15.929,0,0,0,2.9-2.2,18.13,18.13,0,0,1,3.589-2.278c.3-.177.31-.308.037-.389a4.6,4.6,0,0,0-1.217-.122c-.173.146-.157.262.052.35a1.093,1.093,0,0,1,.526.053,19.6,19.6,0,0,0-2.934,1.876,20.319,20.319,0,0,0,.183-2.117,1.468,1.468,0,0,0-.313-.856c-.12-.183.029-.341.481-.485l.352-.107V38.3l-.481-.136.059.269a.878.878,0,0,0,.583.4l1.413.079.629-.028c.732.02,1.094.2,1.077.551a3.653,3.653,0,0,0,.078.977,5.392,5.392,0,0,0,.891,2.2,3.708,3.708,0,0,1-.681,1.127l-1.363.913q-1.754,1.286-4.764,3.351a33.664,33.664,0,0,1-5.158-.349,34.4,34.4,0,0,1-5-1.127l-.421-.105.183-.19a2.774,2.774,0,0,0,.487-.789,2.957,2.957,0,0,0-.138-.911,3.256,3.256,0,0,0-.987-1.676v-.16l.4-.053a15.964,15.964,0,0,1,2.9.43q1.27.318,3.026.588,1.7.321,2.462.387m-1.962-.71q-.681-.108-2.2-.4l.918-.323c.485.109.765,0,.837-.319a2.6,2.6,0,0,0,.444,1.044m5.47-7.906a1.267,1.267,0,0,0-.341,1.234,5.292,5.292,0,0,0-1.413,1.178,12.836,12.836,0,0,0-1.035,1.313,1.41,1.41,0,0,1-.745.644.971.971,0,0,1-1.022-.216l-.1.671-1.756,1.1-.863.373a3.133,3.133,0,0,0,.131-.911l.314-.267q1.809-.963,2.1-1.769a5.334,5.334,0,0,1,.786-1.112,2.591,2.591,0,0,0,.6-1.084l.028-.645-.077-.669c.279.323.529.393.758.214a18.372,18.372,0,0,1,1.177-1.944,17.333,17.333,0,0,1,1.335-1.675c.472-.516.872-.957,1.206-1.313l-.028.669a24.6,24.6,0,0,0-1.964,2.709,20.1,20.1,0,0,0-1.807,3.268,2.52,2.52,0,0,1-.835,1.075,2.055,2.055,0,0,0-.627.454q-.183.346.208.188a1.758,1.758,0,0,1,.577-.4,13.087,13.087,0,0,0,2.458-2.787l-.026-.941.288-.509c-.015.52.028.8.133.859s.245-.094.432-.443.631-1.311,1.348-2.882a1.854,1.854,0,0,0-.026,1.26c-.422.3-.533.824-.341,1.553Zm5.877-5.951a2.565,2.565,0,0,1-.43,1.153q-1.076,1.259-.893,1.5a1.076,1.076,0,0,1-.105,1.153,16.038,16.038,0,0,1-1.518,1.608c.173.356.044.662-.393.913a11.011,11.011,0,0,1-1.675.751,5.4,5.4,0,0,0,2.093-2.816,3.238,3.238,0,0,1,.972-.671c.242-.16.286-.232.129-.216a4.343,4.343,0,0,0-.994.592,8.506,8.506,0,0,0,.706-2.2,6.366,6.366,0,0,0,1.282-1.61c.243-.376.253-.456.024-.242a6.477,6.477,0,0,1-1.2,1.422,24.483,24.483,0,0,0,.657-2.574c.089-.553.063-.653-.079-.293l-.262.939a2.719,2.719,0,0,0-.417-.859l.339,1.125a14.753,14.753,0,0,1-.5,1.9,7.579,7.579,0,0,0-.974-1.929q-.545-.694-.181-.028a7.77,7.77,0,0,1,1,2.333,10.843,10.843,0,0,1-.732,2.143,2.009,2.009,0,0,0-.655-.669q-.263-.136,0,.16a3.85,3.85,0,0,1,.548.7,4.84,4.84,0,0,1-.824,1.368,7.906,7.906,0,0,1-1.009.99,3,3,0,0,0,.42-2.2c0-.146.109-.26.328-.35s.29-.188.221-.293a2.31,2.31,0,0,1-.289-.939.944.944,0,0,1,.629,0c.227-.16.207-.391-.063-.682a2.246,2.246,0,0,1-.511-1.274c0-.323.207-.439.629-.349.19-.018.208-.251.052-.7l-.446-.616q-.47-1.073.395-.776l.68.426c.452.181.669-.133.653-.937,0-.179.138-.219.408-.122s.514-.109.743-.631c.227-.249.4-.018.526.7q-.083,1.422.68,1.341c.087.053.1.3.039.751m.786-2.307a.522.522,0,0,1-.118.444,1.337,1.337,0,0,1-.6.306l-.286-.539a1.876,1.876,0,0,0-.419-1.236,2.052,2.052,0,0,1,.575-.328c.192-.089.155.009-.105.046-.278.052-.5.326-.655.326h-.052a5.13,5.13,0,0,1,.76-1.75c.087-.231.035-.264-.159-.013a8.924,8.924,0,0,0-.784,1.33,1.194,1.194,0,0,1-.236-.6c-.07-.341-.124-.36-.159-.035a2.468,2.468,0,0,0,.236.88c-.384.607-.688.846-.915.723.138-.859.321-1.761.548-2.713q.6-.614,1.047-.4c.421-.336.776-.4,1.075-.184a1.363,1.363,0,0,1,.208.787,2.4,2.4,0,0,1-.262.87c.332,0,.5.135.522.4a1.99,1.99,0,0,1-.839,1.313c.387.074.592.2.618.374" transform="translate(617.88 1632.696)" fill="#fff"/>
    <path id="Tracciato_69695" data-name="Tracciato 69695" d="M330.184,26.163c.005.061.063.057.125.114.245.17.483.094.649-.216a.455.455,0,0,0-.1-.719c-.125-.118-.125-.118-.238.072ZM326.73,23.8c.312.229.5.4.83-.044a.476.476,0,0,0-.033-.664.944.944,0,0,0-.183-.111c-.063,0-.057.065-.118.07Zm4.968,2.5c.042-.243.09-.428-.092-.6l.053-.063c.12.053.249.17.367.223a2.538,2.538,0,0,0,.432.214l-.059.065c-.057-.057-.24-.105-.3.015s-.2.74-.253.926l-.181,1.038.745-.642a7.6,7.6,0,0,0,.612-.7c.111-.186-.011-.24-.072-.3l-.007-.118c.125.112.243.17.31.225a1.125,1.125,0,0,1,.3.166l.007.057c-.247-.164-.47.148-.7.341L331.4,28.553l-.12-.055Zm-1.9.374a1.949,1.949,0,0,0-.21.5c-.05.125.065.183.192.3l-.055.063a3.361,3.361,0,0,0-.432-.286c-.124-.05-.245-.16-.367-.214l-.006-.124c.122.057.245.17.3.046a1.254,1.254,0,0,0,.339-.444l.542-.937a2.546,2.546,0,0,1,.277-.439c.048-.183-.072-.238-.2-.291l.057-.065c.124.116.308.166.435.28.118.052.245.166.367.221a.636.636,0,0,1,.284.952.672.672,0,0,1-1.062.181c-.059,0-.181-.111-.181-.111Zm-1.317-2.15a2.475,2.475,0,0,1,.273-.441c.05-.183-.074-.238-.194-.29l.114-.074,1.295.841-.334.5L329.572,25c.221-.374.092-.489-.214-.714l-.184-.112c-.057-.055-.057-.055-.175.07l-.494.815c.374.284.546.092.708-.1l.061,0c-.107.19-.219.317-.275.439a2.766,2.766,0,0,1-.273.439l-.065-.059c.22-.374.092-.487-.21-.653l-.33.564c-.053.12-.166.251-.157.369a.4.4,0,0,0,.254.35c.308.168.487.216.765-.1l.061,0-.325.559-1.479-1.011.053-.063a.253.253,0,0,0,.3.042c.055-.065.225-.315.334-.439Zm-1.431.834c.011.183.011.243.14.36l-.052.063a2.165,2.165,0,0,1-.19-.173c-.065-.055-.188-.05-.247-.107l.042-.306.009-.97c-.009-.179-.009-.179-.133-.3l-.275.378c-.057.125-.223.376-.273.5,0,.12.066.179.188.234l-.052.061c-.125-.052-.247-.166-.371-.223a1.074,1.074,0,0,0-.43-.277l.053-.065c.122.055.184.111.3.044a1.228,1.228,0,0,0,.337-.437l.6-.944a2.732,2.732,0,0,0,.282-.441c.05-.122-.072-.179-.135-.234l-.007-.12c.184.111.312.225.5.336a1.255,1.255,0,0,1,.306.227c.31.225.563.513.286.95a.609.609,0,0,1-.878.229Zm17.005.8-.49-.935-.151,1.011Zm-7.589,1.769c.059.116.061.3.124.413s.177.114.3.112a.469.469,0,0,0,.277-.6.628.628,0,0,0-.247-.467.984.984,0,0,0-.409.011l-.112,0Zm-.079-.706h.061c.112-.07.223-.074.286-.133a.642.642,0,0,0,.1-.472c-.07-.3-.188-.408-.413-.4a.309.309,0,0,1-.177.063s0,.116,0,.177Zm-1.822,1a1.451,1.451,0,0,0,.125.47c.065.116.177.112.293.05.288-.009.4-.247.334-.6-.063-.177-.125-.352-.306-.408a.635.635,0,0,0-.461.013l-.057,0Zm-.135-.653.116-.057c.112,0,.231-.006.286-.125a.506.506,0,0,0,.105-.419c-.068-.3-.19-.468-.476-.4a.292.292,0,0,0-.175.065l0,.118Zm8.878-1.044c.007.177-.1.474-.041.59,0,.183.175.112.293.111l0,.122-.35.011a.737.737,0,0,1-.347.066V27.36a.387.387,0,0,0,.284-.31c.05-.3.046-.529.1-.775l.251-1.6.114,0,.92,1.809c.059.116.179.291.242.406a.427.427,0,0,0,.293.052l0,.118a.937.937,0,0,0-.406.072c-.172,0-.345.066-.461.068l0-.057c.055-.065.23-.066.166-.242,0-.059-.061-.175-.061-.234l-.247-.413-.754.144ZM342.225,25h.057l.14.765h-.063c-.127-.409-.428-.7-.771-.631-.583.077-.62.786-.548,1.378.133.586.38,1.173.959,1.1.406-.129.513-.487.5-.959l.061-.063.137.885-.12-.175a1.014,1.014,0,0,1-.634.373c-.631.136-1.169-.321-1.306-1.086-.079-.771.254-1.433.891-1.507a.956.956,0,0,1,.7.1Zm-2.377,1.13c0-.122-.065-.354-.07-.47a.376.376,0,0,0-.3-.112l-.059-.055a1.381,1.381,0,0,1,.465-.074c.173-.006.347-.07.461-.072l.006.059a.309.309,0,0,0-.23.183,1.291,1.291,0,0,0,.068.472l.148,1.123a1.113,1.113,0,0,0,.127.468c.063.116.181.112.3.109v.122l-.461.013a1.194,1.194,0,0,1-.463.07l0-.059c.118,0,.23,0,.227-.184.057-.12-.007-.352-.009-.47Zm-2.025.395c0-.118-.066-.411-.072-.533a.2.2,0,0,0-.29-.05l-.063-.116a1.108,1.108,0,0,0,.465-.07,1.028,1.028,0,0,0,.461-.074l.061.118c-.114,0-.231.006-.286.124.006.118.07.411.072.533l.144,1.119c.072.474.19.586.6.516.114-.063.291-.066.4-.19a.63.63,0,0,0,.105-.474l.116-.063.074.708c-.057,0-.114,0-.175,0-.522.074-1.1.208-1.621.284V28.3c.116-.059.231-.061.229-.183a1.908,1.908,0,0,0-.015-.533Zm-1.853.343a1.216,1.216,0,0,0-.129-.474c-.063-.112-.179-.109-.3-.105l0-.059a1.29,1.29,0,0,1,.468-.074c.116,0,.229-.065.347-.068.345-.072.756-.022.826.452a.606.606,0,0,1-.395.664.626.626,0,0,1,.474.105.96.96,0,0,1,.36.459.815.815,0,0,1-.216.6.776.776,0,0,1-.579.2c-.057.061-.23.065-.347.068a1.682,1.682,0,0,0-.52.129v-.114c.055,0,.225-.007.223-.184-.005-.118-.066-.356-.07-.472Zm-1.962.345c0-.114-.066-.409-.068-.527-.061-.114-.179-.113-.291-.048l-.006-.118a.939.939,0,0,0,.4-.074.821.821,0,0,0,.409-.07.623.623,0,0,1,.828.511.559.559,0,0,1-.332.657,1.022,1.022,0,0,1,.463.052.732.732,0,0,1,.09,1.121.8.8,0,0,1-.52.19.786.786,0,0,0-.4.072c-.236.006-.349.072-.585.079V29c.112-.063.232-.066.288-.184,0-.116-.066-.411-.068-.527Zm19.7.314-.175-1.084-.47.968Zm3.945-.269c0-.12-.057-.42-.057-.483-.055-.181-.175-.118-.293-.118v-.124h.468c.116,0,.3-.061.474-.061V26.6c-.116,0-.243,0-.3.122v.542l.12,1.092a1.679,1.679,0,0,0,.061.544c.057.118.175.118.288.118v.061h-.468a1.253,1.253,0,0,1-.468.061v-.061c.061,0,.236,0,.236-.179a1.428,1.428,0,0,0,0-.485Zm-2.313-.231c0-.12.063-.424.063-.542a.331.331,0,0,0-.3-.186l.063-.053c.114,0,.293.053.411.053a1.476,1.476,0,0,0,.526.065l-.055.122c-.061,0-.238-.057-.3.059s-.061.424-.118.54l-.175,1.156c-.061.479,0,.6.35.662.177,0,.35.059.47,0,.24-.122.24-.245.293-.485h.12l-.173.727c0-.061-.122-.061-.122-.061-.588-.122-1.118-.181-1.7-.3v-.061a.426.426,0,0,0,.349-.12,1.834,1.834,0,0,1,.12-.485Zm-2.453.623c-.059.118-.179.419-.236.546,0,.175.177.175.236.24V28.5c-.122,0-.236-.059-.352-.059s-.242-.065-.354-.065l.057-.053c.175,0,.23-.065.352-.249.118-.24.238-.479.354-.721l.706-1.451.114.057.356,2.056c.059.122.059.361.118.485s.112.125.232.183v.061c-.12,0-.291-.061-.468-.061a1.185,1.185,0,0,0-.47-.057l.057-.125c.061,0,.238.063.238-.059v-.367l-.063-.419-.821-.124Zm-.229-1.237-.063-.059c.063-.365-.055-.489-.35-.548-.175,0-.352-.055-.352.059l-.293,1.874c0,.3,0,.363.293.489v.059a1.632,1.632,0,0,1-.527-.12,1.491,1.491,0,0,1-.529-.065v-.059c.352,0,.415-.059.472-.363l.231-1.874c.061-.055-.12-.122-.231-.122-.358-.053-.472-.053-.533.424l-.118-.059.118-.607,2,.363Zm-2.98-.408c0-.122.063-.36,0-.485,0-.12-.114-.181-.229-.181v-.12a1.788,1.788,0,0,0,.467.12c.181,0,.352.061.531.061l-.061.059c-.063,0-.234,0-.29.124s-.063.361-.122.483l-.114,1.147a1.517,1.517,0,0,0-.061.487c0,.179.116.179.234.179V28c-.173-.063-.293-.063-.47-.122a1.229,1.229,0,0,1-.467-.061V27.76c.114,0,.23,0,.29-.12a1.11,1.11,0,0,0,.118-.483ZM363.868,24.2l-.882-.6.35,1.029Zm-3.963,2.916-.765-.725.177,1.031Zm3.493-2.252a1.836,1.836,0,0,0,.177.6c.12.124.234,0,.293-.061l.057.12a1.061,1.061,0,0,1-.291.186.8.8,0,0,0-.236.242l-.061-.122c.12-.12.12-.179.12-.365a5.024,5.024,0,0,1-.236-.784l-.47-1.571.059-.063,1.706,1.212a1.286,1.286,0,0,0,.35.242c.116.059.236,0,.356-.063v.122a1.16,1.16,0,0,0-.356.242c-.114.12-.232.184-.35.3l-.057-.065c.057-.055.175-.179.116-.3-.059-.061-.177-.12-.236-.181l-.35-.243-.651.485Zm-2.94.437a.332.332,0,0,0-.411.063l-.057-.125c.114-.057.173-.057.234-.177a.425.425,0,0,0,.234-.122l2.292.787-.645-.911c-.12-.118-.232-.363-.352-.481-.175-.12-.242-.061-.411,0l-.063-.061c.118-.061.232-.124.358-.181a.482.482,0,0,1,.236-.247l.057.066c-.057.12-.177.12-.118.3.061.122.293.424.413.6l.937,1.333-.057.059a.806.806,0,0,1-.354-.122l-2.117-.723.764,1.088a2.421,2.421,0,0,0,.356.42c.12.063.232,0,.352-.061v.061a.582.582,0,0,1-.3.243,1.05,1.05,0,0,0-.3.243l-.05-.061c.116-.125.175-.183.116-.363a2.137,2.137,0,0,0-.3-.426Zm-1.079,2.42a2.756,2.756,0,0,0,.112.6c.061.124.234.059.291,0l.063.059c-.12.065-.173.124-.293.186a1.121,1.121,0,0,0-.293.177l-.061-.061a.341.341,0,0,0,.118-.42,3.488,3.488,0,0,0-.118-.786l-.3-1.634h.124l1.522,1.389a1.859,1.859,0,0,0,.354.3c.114.063.234,0,.293,0l.059.063a1.319,1.319,0,0,0-.408.24,1.509,1.509,0,0,0-.419.242l-.055-.12c.118,0,.238-.122.175-.242a.84.84,0,0,0-.234-.24l-.291-.247-.706.367Z" transform="translate(618.707 1650.821)" fill="#fff"/>
    <path id="Tracciato_69696" data-name="Tracciato 69696" d="M327.994,26.312c-.155-.487-.334-1.064-.389-1.256l-.035-.118,1.35-.786a17.234,17.234,0,0,1-.3-1.935l-1.52-.319,0-.124c-.013-.332-.013-1.7,0-2.034l0-.122,1.52-.319a16.118,16.118,0,0,1,.293-1.935l-.747-.432.511-.061.577.334-.022.111a15.939,15.939,0,0,0-.321,2.121l-.009.114-1.509.321c-.007.408-.007,1.361,0,1.77l1.509.317.009.116a17.086,17.086,0,0,0,.321,2.123l.02.111-1.331.775c.066.21.171.551.277.885Zm2.689,4.511c.133.186.253.356.337.472l1.392-.647.072.085a17.856,17.856,0,0,0,1.492,1.516l.081.076-.634,1.435c.314.249,1.068.8,1.4,1.033l1.125-1.06.1.059a14.83,14.83,0,0,0,1.876.974l.105.044-.173,1.568c.384.135,1.265.43,1.649.55l.747-1.367.111.024a14.945,14.945,0,0,0,2.069.33l.112.009.31,1.544c.194,0,.511,0,.872,0s.671,0,.861,0l.3-1.529.112-.011a15.319,15.319,0,0,0,2.069-.343l.113-.026.758,1.368c.391-.122,1.276-.415,1.649-.548l-.171-1.555.1-.048a15.294,15.294,0,0,0,1.866-.985l.1-.059,1.14,1.06c.326-.225,1.075-.787,1.391-1.033l-.642-1.426.085-.076a13.793,13.793,0,0,0,1.486-1.523l.074-.089,1.405.651c.24-.323.786-1.092,1.011-1.429l-1.036-1.156.057-.1a16.317,16.317,0,0,0,.952-1.911l.044-.105,1.529.166c.136-.393.426-1.293.529-1.676l-1.326-.776.026-.111a16.293,16.293,0,0,0,.317-2.123l.011-.116,1.509-.317c.017-.408.017-1.363,0-1.769l-1.509-.31-.011-.112a13.324,13.324,0,0,0-.332-2.119l-.026-.112,1.341-.78c-.113-.4-.4-1.306-.527-1.684l-1.533.186-.044-.109a13.712,13.712,0,0,0-.95-1.918l-.057-.1,1.038-1.158c-.225-.343-.773-1.119-1.02-1.437l-1.385.658-.076-.087a15.394,15.394,0,0,0-1.485-1.521l-.087-.076L354,7.769c-.314-.249-1.064-.819-1.4-1.044l-1.119,1.06-.1-.059a15.071,15.071,0,0,0-1.876-.972l-.1-.044.171-1.56c-.367-.14-1.254-.433-1.645-.548l-.749,1.372-.111-.028A13.728,13.728,0,0,0,345,5.605l-.112-.007-.312-1.534c-.186-.007-.5-.013-.865-.013s-.675.006-.863.013l-.3,1.534-.113.007a12.834,12.834,0,0,0-2.067.339l-.111.03L339.489,4.6c-.382.114-1.261.406-1.638.548l.173,1.558-.105.046a13.83,13.83,0,0,0-1.865.972l-.1.059-1.138-1.06c-.162.112-.417.3-.677.494l.048-.417c.242-.181.456-.337.559-.4l.1-.066L336,7.4a14.274,14.274,0,0,1,1.7-.889l-.173-1.564.107-.042c.313-.133,1.575-.551,1.89-.634l.111-.031.776,1.376a13.026,13.026,0,0,1,1.892-.312l.3-1.54.116-.009h.015v0l.1-.006h.005l.024,0h.127c.214,0,.489-.007.729-.007.363,0,.817.006,1,.017l.114.009.312,1.54a13.551,13.551,0,0,1,1.89.312l.752-1.374.111.03c.336.085,1.606.5,1.907.634l.1.044-.17,1.564a14.3,14.3,0,0,1,1.708.887l1.125-1.066.1.057c.3.184,1.37,1,1.623,1.212l.09.074-.636,1.435a15.543,15.543,0,0,1,1.356,1.391l1.389-.664.074.089c.216.258,1,1.37,1.182,1.665l.061.1-1.046,1.162a14.1,14.1,0,0,1,.87,1.756l1.54-.192.042.114c.116.31.524,1.6.609,1.946l.026.114-1.343.782a13.582,13.582,0,0,1,.3,1.936l1.514.308.011.116c.022.336.022,1.711,0,2.045l-.011.118-1.514.319a15.7,15.7,0,0,1-.293,1.935l1.33.782-.024.111c-.074.343-.5,1.641-.609,1.938l-.041.112-1.542-.166a16.544,16.544,0,0,1-.87,1.745l1.048,1.164-.065.1c-.183.286-.959,1.387-1.165,1.645l-.074.092-1.409-.653a14.546,14.546,0,0,1-1.363,1.391l.651,1.438-.094.077c-.26.2-1.328,1.012-1.608,1.191l-.1.061-1.147-1.066a16.7,16.7,0,0,1-1.7.9l.172,1.568-.107.044c-.3.116-1.569.533-1.9.627l-.112.035-.767-1.378a16.244,16.244,0,0,1-1.89.31l-.3,1.545-.118,0c-.184.007-.631.009-.99.009s-.811,0-1-.009l-.12,0-.312-1.556a15.487,15.487,0,0,1-1.889-.3l-.758,1.379-.114-.035c-.312-.09-1.573-.507-1.894-.627l-.111-.044L337.7,35a15.415,15.415,0,0,1-1.715-.889l-1.136,1.07-.1-.066c-.28-.186-1.354-.979-1.608-1.193l-.088-.076.636-1.448a18.573,18.573,0,0,1-1.357-1.381l-1.407.657-.074-.1c-.068-.092-.2-.28-.361-.5Z" transform="translate(620.13 1635.07)" fill="#fff"/>
    <path id="Tracciato_69697" data-name="Tracciato 69697" d="M341.683,31.13a11.9,11.9,0,0,1-5.114-1.145l-.218-.1,5.346-6.89,5.227,6.942-.216.1a12.119,12.119,0,0,1-5.025,1.1m-4.74-1.392a11.525,11.525,0,0,0,4.74,1.011,11.79,11.79,0,0,0,4.655-.966L341.7,23.615Zm13.57-2.434-4.747-7.331,8.065-2.945.024.243a12.7,12.7,0,0,1-3.179,9.854Zm-4.172-7.132,4.22,6.51a12.318,12.318,0,0,0,2.947-9.127ZM332.794,27.2l-.159-.179a12.781,12.781,0,0,1-3.074-9.892l.028-.242,8.052,3.071Zm-2.888-9.782a12.4,12.4,0,0,0,2.849,9.162l4.308-6.434ZM344.22,15.08l-.243-8.771.231.05a12.237,12.237,0,0,1,8.17,6.152l.114.212Zm.142-8.3.219,7.8,7.351-2.1a11.876,11.876,0,0,0-7.57-5.7m-5.169,8.286-8.214-2.482.118-.208a12.247,12.247,0,0,1,8.229-6.047l.234-.046Zm-7.65-2.711,7.294,2.206.328-7.8a11.866,11.866,0,0,0-7.622,5.6" transform="translate(622.143 1637.219)" fill="#fff"/>
    <path id="Tracciato_69698" data-name="Tracciato 69698" d="M341.4,7.3l-2.584,7.548-.039.118-.124,0-7.819.2,6.217,4.847.1.074-.035.12-2.239,7.688,6.427-4.548.1-.072.1.072,6.438,4.548L345.7,20.229l-.033-.12.1-.076,6.215-4.869-7.8-.184-.125,0-.04-.116Zm-2.877,7.31,2.709-7.917.168-.487.166.485,2.735,7.932,8.19.188.5.013-.4.315-6.519,5.107,2.346,8.035.146.5-.415-.291L341.4,23.711l-6.737,4.775-.417.291.142-.5,2.35-8.061-6.517-5.081-.4-.314.505-.015Z" transform="translate(622.435 1637.151)" fill="#fff"/>
    <path id="Tracciato_69699" data-name="Tracciato 69699" d="M328.278,19.881h0l0,0Z" transform="translate(621.132 1648.696)" fill="#fff"/>
    <path id="Tracciato_69700" data-name="Tracciato 69700" d="M327.895,19.084l.706,1.472Z" transform="translate(620.808 1648.022)" fill="#fff"/>
  </g>
</svg>
