<svg xmlns="http://www.w3.org/2000/svg" width="169.707" height="51.055" viewBox="0 0 169.707 51.055">
  <g id="Raggruppa_9243" data-name="Raggruppa 9243" transform="translate(-1086.387 -1633.39)">
    <path id="Tracciato_69616" data-name="Tracciato 69616" d="M436.835,27.059v5.5a4.713,4.713,0,0,0,.312,2.217,1.458,1.458,0,0,0,1.282.61h.579V35.9h-6.471v-.516h.568a1.428,1.428,0,0,0,1.37-.78,5.66,5.66,0,0,0,.223-2.047v-12.2a4.851,4.851,0,0,0-.3-2.213,1.492,1.492,0,0,0-1.293-.614h-.568v-.513h5.534a7.955,7.955,0,0,1,3.2.527A4.521,4.521,0,0,1,443.24,19.3a5.294,5.294,0,0,1,.8,2.938A5.609,5.609,0,0,1,442.815,26a4.234,4.234,0,0,1-3.441,1.448,7.881,7.881,0,0,1-1.18-.1,12.879,12.879,0,0,1-1.359-.291m0-.795c.393.094.743.162,1.046.208a5.14,5.14,0,0,0,.78.07,2.438,2.438,0,0,0,1.994-1.114,4.7,4.7,0,0,0,.846-2.908,6.322,6.322,0,0,0-.4-2.27,3.262,3.262,0,0,0-1.136-1.573,2.8,2.8,0,0,0-1.671-.529,5.408,5.408,0,0,0-1.461.264Z" transform="translate(709.146 1646.281)" fill="#fff" fill-rule="evenodd"/>
    <path id="Tracciato_69617" data-name="Tracciato 69617" d="M445.987,35.384V35.9h-6.469v-.516h.533a1.479,1.479,0,0,0,1.359-.682,5.187,5.187,0,0,0,.267-2.143v-12.2a7.787,7.787,0,0,0-.144-1.892,1.207,1.207,0,0,0-.457-.6,1.807,1.807,0,0,0-1.025-.332h-.533v-.516h6.469v.516h-.546a1.463,1.463,0,0,0-1.346.682,4.978,4.978,0,0,0-.279,2.143v12.2a7.776,7.776,0,0,0,.144,1.892,1.166,1.166,0,0,0,.467.6,1.746,1.746,0,0,0,1.014.334Z" transform="translate(715.04 1646.279)" fill="#fff"/>
    <path id="Tracciato_69618" data-name="Tracciato 69618" d="M447.881,18.051v7.462h3.32a2.3,2.3,0,0,0,1.726-.487,3.613,3.613,0,0,0,.645-2.255h.413v6.571h-.413a8.777,8.777,0,0,0-.312-1.769,1.578,1.578,0,0,0-.657-.765,2.78,2.78,0,0,0-1.4-.277h-3.32v6.222a7.272,7.272,0,0,0,.09,1.531.865.865,0,0,0,.31.433,1.636,1.636,0,0,0,.846.153h2.564a5.529,5.529,0,0,0,1.859-.225,2.771,2.771,0,0,0,1.116-.876,11.179,11.179,0,0,0,1.414-2.6h.444l-1.3,4.732H443.582v-.515h.535a1.808,1.808,0,0,0,1.014-.321,1.094,1.094,0,0,0,.478-.668,7.734,7.734,0,0,0,.135-1.826V20.306a4.966,4.966,0,0,0-.29-2.215,1.542,1.542,0,0,0-1.337-.557h-.535V17.02h11.639l.166,4.137h-.433a7.483,7.483,0,0,0-.524-2.049,1.909,1.909,0,0,0-.835-.85,4.11,4.11,0,0,0-1.569-.207Z" transform="translate(718.471 1646.28)" fill="#fff"/>
    <path id="Tracciato_69619" data-name="Tracciato 69619" d="M460.044,35.9l-5.837-15.888V32.626a4.65,4.65,0,0,0,.3,2.172,1.481,1.481,0,0,0,1.3.585h.535V35.9h-5.258v-.516h.535a1.43,1.43,0,0,0,1.361-.723,5.21,5.21,0,0,0,.243-2.034V20.292a5.326,5.326,0,0,0-.223-1.811,1.362,1.362,0,0,0-.579-.666,2.444,2.444,0,0,0-1.337-.282V17.02h4.279l5.481,14.77,5.391-14.77h4.277v.513h-.524a1.433,1.433,0,0,0-1.368.725,5.107,5.107,0,0,0-.247,2.034V32.626a4.481,4.481,0,0,0,.313,2.172,1.481,1.481,0,0,0,1.3.585h.524V35.9H464.1v-.516h.533a1.414,1.414,0,0,0,1.361-.723,5.162,5.162,0,0,0,.245-2.034V20.011L460.411,35.9Z" transform="translate(724.808 1646.28)" fill="#fff"/>
    <path id="Tracciato_69620" data-name="Tracciato 69620" d="M469.858,16.786a6.293,6.293,0,0,1,5.09,2.8,11.021,11.021,0,0,1,2.16,6.962,11.42,11.42,0,0,1-2.171,7.143,6.318,6.318,0,0,1-10.5.07,11.491,11.491,0,0,1-2.117-7.17,10.856,10.856,0,0,1,2.449-7.338,6.522,6.522,0,0,1,5.092-2.464m-.212,1.016a3.735,3.735,0,0,0-3.253,1.879q-1.524,2.338-1.523,6.851a13.3,13.3,0,0,0,1.581,7.113,3.672,3.672,0,0,0,3.209,1.894,4.1,4.1,0,0,0,3.508-2.073q1.391-2.075,1.392-6.545,0-4.844-1.525-7.227a3.836,3.836,0,0,0-3.388-1.892" transform="translate(734.287 1646.083)" fill="#fff" fill-rule="evenodd"/>
    <path id="Tracciato_69621" data-name="Tracciato 69621" d="M470.651,17.02h4.1l9.232,14.16V20.293a4.574,4.574,0,0,0-.312-2.174,1.489,1.489,0,0,0-1.3-.585h-.522V17.02H487.1v.515h-.535a1.428,1.428,0,0,0-1.359.723,5.166,5.166,0,0,0-.245,2.036V36.205h-.4L474.6,21V32.627a4.666,4.666,0,0,0,.3,2.171,1.5,1.5,0,0,0,1.3.586h.535V35.9h-5.258v-.515h.524a1.436,1.436,0,0,0,1.37-.725,5.192,5.192,0,0,0,.243-2.032V19.5a7.844,7.844,0,0,0-1-1.269,3.28,3.28,0,0,0-.992-.568,2.829,2.829,0,0,0-.979-.127Z" transform="translate(741.322 1646.28)" fill="#fff"/>
    <path id="Tracciato_69622" data-name="Tracciato 69622" d="M492.629,17.02l.168,4.428h-.424a6.494,6.494,0,0,0-.334-1.673,2.525,2.525,0,0,0-.924-1.18,2.6,2.6,0,0,0-1.5-.391h-2.128V32.627a4.7,4.7,0,0,0,.3,2.171,1.5,1.5,0,0,0,1.3.586h.524V35.9h-6.407v-.515h.535a1.425,1.425,0,0,0,1.359-.725,5.1,5.1,0,0,0,.247-2.032V18.2H483.53a4.068,4.068,0,0,0-1.5.2,2.211,2.211,0,0,0-.99,1.016,4.822,4.822,0,0,0-.492,2.032h-.422l.177-4.428Z" transform="translate(749.317 1646.28)" fill="#fff"/>
    <path id="Tracciato_69623" data-name="Tracciato 69623" d="M491.856,18.051v7.462h3.32a2.3,2.3,0,0,0,1.726-.487,3.613,3.613,0,0,0,.645-2.255h.413v6.571h-.413a8.772,8.772,0,0,0-.312-1.769,1.588,1.588,0,0,0-.657-.765,2.78,2.78,0,0,0-1.4-.277h-3.32v6.222a7.47,7.47,0,0,0,.089,1.531.879.879,0,0,0,.312.433,1.632,1.632,0,0,0,.846.153h2.563a5.517,5.517,0,0,0,1.857-.225,2.776,2.776,0,0,0,1.118-.876,11.115,11.115,0,0,0,1.413-2.6h.446L499.2,35.9H487.557v-.515h.535a1.808,1.808,0,0,0,1.014-.321,1.094,1.094,0,0,0,.478-.668,7.839,7.839,0,0,0,.135-1.826V20.306a4.966,4.966,0,0,0-.29-2.215,1.542,1.542,0,0,0-1.337-.557h-.535V17.02H499.2l.166,4.137h-.433a7.479,7.479,0,0,0-.524-2.049,1.909,1.909,0,0,0-.835-.85A4.123,4.123,0,0,0,496,18.051Z" transform="translate(755.594 1646.28)" fill="#fff"/>
    <path id="Tracciato_69624" data-name="Tracciato 69624" d="M449.886,23.982h-4.644L439.35,13.809c-.435.022-.791.031-1.064.031h-.361l-.4-.031v6.322a5.4,5.4,0,0,0,.358,2.551,1.658,1.658,0,0,0,1.464.7h.681v.6h-7.458v-.6h.656a1.643,1.643,0,0,0,1.577-.9,6.161,6.161,0,0,0,.271-2.357V6.077a5.413,5.413,0,0,0-.36-2.551,1.715,1.715,0,0,0-1.488-.7h-.656v-.6h6.342a11.876,11.876,0,0,1,4.079.516A4.646,4.646,0,0,1,445.23,4.6a5.581,5.581,0,0,1,.924,3.226,5.851,5.851,0,0,1-1.051,3.48,5.614,5.614,0,0,1-3.235,2.086l3.592,6.241a10.565,10.565,0,0,0,2.115,2.855,4.633,4.633,0,0,0,2.311.9ZM437.528,12.8c.162,0,.3.006.422.017h.3a4.885,4.885,0,0,0,3.747-1.346,4.81,4.81,0,0,0,1.269-3.434,5.085,5.085,0,0,0-1.025-3.3,3.263,3.263,0,0,0-2.694-1.285,9.2,9.2,0,0,0-2.016.306Z" transform="translate(709.177 1633.791)" fill="#fff" fill-rule="evenodd"/>
    <path id="Tracciato_69625" data-name="Tracciato 69625" d="M447.083,3.414v8.6h3.823a2.661,2.661,0,0,0,1.992-.561,4.174,4.174,0,0,0,.743-2.6h.476v7.572h-.476a10.294,10.294,0,0,0-.36-2.04,1.827,1.827,0,0,0-.758-.882,3.2,3.2,0,0,0-1.617-.319h-3.823v7.17a8.4,8.4,0,0,0,.1,1.765,1,1,0,0,0,.358.5,1.876,1.876,0,0,0,.976.175h2.953a6.5,6.5,0,0,0,2.141-.255,3.219,3.219,0,0,0,1.285-1.011,12.915,12.915,0,0,0,1.63-3h.513l-1.5,5.453H442.128v-.592h.616a2.064,2.064,0,0,0,1.167-.371,1.244,1.244,0,0,0,.553-.771,8.946,8.946,0,0,0,.153-2.1V6.012a5.723,5.723,0,0,0-.332-2.551,1.782,1.782,0,0,0-1.542-.642h-.616V2.226h13.413l.194,4.765h-.5a8.644,8.644,0,0,0-.6-2.359,2.18,2.18,0,0,0-.961-.977,4.724,4.724,0,0,0-1.811-.242Z" transform="translate(717.243 1633.791)" fill="#fff"/>
    <path id="Tracciato_69626" data-name="Tracciato 69626" d="M466.251,1.957l.45,6.866h-.45a10.15,10.15,0,0,0-1.758-3.867A4.951,4.951,0,0,0,460.5,3.078a5.467,5.467,0,0,0-5.057,3.29,14.113,14.113,0,0,0-1.451,6.61,16.1,16.1,0,0,0,.963,5.678,8.293,8.293,0,0,0,2.515,3.77,5.251,5.251,0,0,0,3.209,1.188,5.762,5.762,0,0,0,1.861-.3,6.649,6.649,0,0,0,1.734-.9V16.122a6.8,6.8,0,0,0-.207-2.132,1.467,1.467,0,0,0-.616-.771,2.8,2.8,0,0,0-1.464-.275v-.609h6.741v.609h-.323a1.373,1.373,0,0,0-1.372.834,6.944,6.944,0,0,0-.256,2.344v6.659a11.829,11.829,0,0,1-2.914,1.459,10.424,10.424,0,0,1-3.2.467,8.562,8.562,0,0,1-7.663-4.046,12.584,12.584,0,0,1-1.962-6.993,14.092,14.092,0,0,1,1.1-5.5,11.124,11.124,0,0,1,3.594-4.812,7.456,7.456,0,0,1,4.516-1.4,7.042,7.042,0,0,1,1.719.192,13.558,13.558,0,0,1,2.209.85,3,3,0,0,0,.963.337.484.484,0,0,0,.409-.273,2.575,2.575,0,0,0,.218-1.107Z" transform="translate(724.771 1633.564)" fill="#fff"/>
    <path id="Tracciato_69627" data-name="Tracciato 69627" d="M468.645,23.387v.594h-7.454v-.594h.614a1.705,1.705,0,0,0,1.566-.786,5.988,5.988,0,0,0,.306-2.471V6.078a9.114,9.114,0,0,0-.164-2.182,1.385,1.385,0,0,0-.527-.69,2.056,2.056,0,0,0-1.18-.385h-.614V2.227h7.454v.594h-.629a1.7,1.7,0,0,0-1.555.787,5.782,5.782,0,0,0-.319,2.469V20.13a8.991,8.991,0,0,0,.166,2.184,1.362,1.362,0,0,0,.54.69,2.007,2.007,0,0,0,1.167.384Z" transform="translate(733.336 1633.792)" fill="#fff"/>
    <path id="Tracciato_69628" data-name="Tracciato 69628" d="M474.77,1.958a7.25,7.25,0,0,1,5.866,3.224,12.707,12.707,0,0,1,2.49,8.02,13.165,13.165,0,0,1-2.5,8.231,7.281,7.281,0,0,1-12.1.081,13.232,13.232,0,0,1-2.438-8.262A12.482,12.482,0,0,1,468.905,4.8a7.505,7.505,0,0,1,5.865-2.838m-.243,1.171a4.291,4.291,0,0,0-3.746,2.165q-1.762,2.694-1.759,7.891,0,5.328,1.822,8.2a4.23,4.23,0,0,0,3.7,2.18,4.724,4.724,0,0,0,4.043-2.39q1.6-2.39,1.6-7.539,0-5.582-1.759-8.325a4.412,4.412,0,0,0-3.9-2.184" transform="translate(737.465 1633.565)" fill="#fff" fill-rule="evenodd"/>
    <path id="Tracciato_69629" data-name="Tracciato 69629" d="M475.685,2.227h4.723l10.639,16.316V6a5.226,5.226,0,0,0-.36-2.5,1.706,1.706,0,0,0-1.5-.675h-.6V2.227h6.058v.594h-.616a1.64,1.64,0,0,0-1.566.835A5.953,5.953,0,0,0,492.178,6V24.335h-.463L480.242,6.815V20.21a5.393,5.393,0,0,0,.347,2.5,1.725,1.725,0,0,0,1.5.673h.616v.594h-6.058v-.594h.6a1.656,1.656,0,0,0,1.579-.834,5.974,5.974,0,0,0,.28-2.344V5.084a8.763,8.763,0,0,0-1.154-1.459,3.788,3.788,0,0,0-1.143-.66,3.355,3.355,0,0,0-1.129-.144Z" transform="translate(745.572 1633.792)" fill="#fff"/>
    <path id="Tracciato_69630" data-name="Tracciato 69630" d="M491.411,3.414v8.6h3.825a2.657,2.657,0,0,0,1.99-.561,4.174,4.174,0,0,0,.743-2.6h.476v7.572h-.476a10.161,10.161,0,0,0-.36-2.04,1.833,1.833,0,0,0-.756-.882,3.2,3.2,0,0,0-1.617-.319h-3.825v7.17a8.4,8.4,0,0,0,.1,1.765,1.007,1.007,0,0,0,.361.5,1.855,1.855,0,0,0,.974.175H495.8a6.511,6.511,0,0,0,2.141-.255,3.214,3.214,0,0,0,1.284-1.011,12.773,12.773,0,0,0,1.63-3h.515l-1.5,5.453H486.458v-.592h.616a2.069,2.069,0,0,0,1.167-.371,1.244,1.244,0,0,0,.553-.771,8.946,8.946,0,0,0,.153-2.1V6.012a5.713,5.713,0,0,0-.334-2.551,1.777,1.777,0,0,0-1.54-.642h-.616V2.226h13.413l.192,4.765h-.5a8.729,8.729,0,0,0-.6-2.359A2.206,2.206,0,0,0,498,3.655a4.706,4.706,0,0,0-1.809-.242Z" transform="translate(754.666 1633.791)" fill="#fff"/>
    <rect id="Rettangolo_146247" data-name="Rettangolo 146247" width="51.234" height="50.59" transform="translate(1086.619 1633.622)" fill="#bcbcbb"/>
    <rect id="Rettangolo_146248" data-name="Rettangolo 146248" width="51.234" height="50.59" transform="translate(1086.619 1633.622)" fill="none" stroke="#bcbcbb" stroke-width="0.465"/>
    <rect id="Rettangolo_146249" data-name="Rettangolo 146249" width="16.88" height="16.452" transform="translate(1118.525 1665.364)" fill="#e20e17"/>
    <rect id="Rettangolo_146250" data-name="Rettangolo 146250" width="16.88" height="16.452" transform="translate(1118.525 1665.364)" fill="none" stroke="#e20e17" stroke-width="0.349"/>
    <rect id="Rettangolo_146251" data-name="Rettangolo 146251" width="16.882" height="16.452" transform="translate(1089.141 1665.364)" fill="#e20e17"/>
    <rect id="Rettangolo_146252" data-name="Rettangolo 146252" width="16.882" height="16.452" transform="translate(1089.141 1665.364)" fill="none" stroke="#e20e17" stroke-width="0.349"/>
    <rect id="Rettangolo_146253" data-name="Rettangolo 146253" width="16.882" height="16.452" transform="translate(1089.141 1636.211)" fill="#e20e17"/>
    <rect id="Rettangolo_146254" data-name="Rettangolo 146254" width="16.882" height="16.452" transform="translate(1089.141 1636.211)" fill="none" stroke="#e20e17" stroke-width="0.349"/>
    <rect id="Rettangolo_146255" data-name="Rettangolo 146255" width="16.882" height="16.452" transform="translate(1118.508 1636.211)" fill="#e20e17"/>
    <rect id="Rettangolo_146256" data-name="Rettangolo 146256" width="16.882" height="16.452" transform="translate(1118.508 1636.211)" fill="none" stroke="#e20e17" stroke-width="0.349"/>
    <path id="Tracciato_69631" data-name="Tracciato 69631" d="M410.438,3.891h25.671l1.553,4.878h-4.716l.8-2.252H412.692l.8,2.2h-4.769Z" transform="translate(689.043 1635.197)" fill="#0a77bd"/>
    <path id="Tracciato_69632" data-name="Tracciato 69632" d="M410.438,3.891h25.671l1.553,4.878h-4.716l.8-2.252H412.692l.8,2.2h-4.769Z" transform="translate(689.043 1635.197)" fill="none" stroke="#0a77bd" stroke-width="0.349"/>
    <path id="Tracciato_69633" data-name="Tracciato 69633" d="M416.1,5.4l-.749,2.108h4.607l-.8-2.161Z" transform="translate(694.637 1636.424)" fill="#0a77bd"/>
    <path id="Tracciato_69634" data-name="Tracciato 69634" d="M416.1,5.4l-.749,2.108h4.607l-.8-2.161Z" transform="translate(694.637 1636.424)" fill="none" stroke="#0a77bd" stroke-width="0.349"/>
  </g>
</svg>
