<svg xmlns="http://www.w3.org/2000/svg" width="248.478" height="54.009" viewBox="0 0 248.478 54.009">
  <g id="Raggruppa_9242" data-name="Raggruppa 9242" transform="translate(-587.574 -1631.913)">
    <rect id="Rettangolo_146257" data-name="Rettangolo 146257" width="77.655" height="54.009" transform="translate(587.574 1631.913)" fill="#fff"/>
    <rect id="Rettangolo_146258" data-name="Rettangolo 146258" width="74.666" height="50.97" transform="translate(589.068 1633.394)" fill="#164194"/>
    <path id="Tracciato_69635" data-name="Tracciato 69635" d="M160.192,9.118l1.575-1.178,1.577,1.178-.6-1.9,1.6-1.178H162.37l-.6-1.927-.6,1.929-1.97,0,1.6,1.178Zm-8.155,2.243,1.577-1.178,1.573,1.178-.6-1.9,1.6-1.18h-1.973l-.6-1.929-.6,1.931-1.971,0,1.6,1.18Zm-4.389,1.114-.6,1.929-1.971,0,1.6,1.177-.6,1.905,1.577-1.178,1.575,1.178-.6-1.905,1.6-1.177h-1.971Zm-2.191,12.17,1.575,1.177-.6-1.9,1.6-1.177h-1.971l-.6-1.931-.6,1.935-1.975,0,1.6,1.177-.6,1.9Zm2.794,6.46-.6-1.929-.6,1.931-1.971,0,1.6,1.175-.6,1.905L147.648,33l1.575,1.18-.6-1.905,1.6-1.175Zm5.977,6.119-.6-1.927-.6,1.929-1.971,0,1.6,1.177-.6,1.9,1.577-1.177L155.2,40.3l-.6-1.9,1.6-1.177Zm8.142,2.217-.6-1.929-.6,1.931-1.971,0,1.6,1.178-.6,1.9,1.575-1.175,1.575,1.175-.6-1.9,1.6-1.178Zm8.144-2.217-.6-1.927-.607,1.929-1.97,0,1.6,1.177-.6,1.9,1.577-1.177,1.575,1.177-.6-1.9,1.6-1.177Zm5.979-6.119-.6-1.929-.6,1.931-1.97,0,1.6,1.175-.6,1.905L175.89,33l1.575,1.18-.6-1.905,1.6-1.175Zm4.138-8.387h-1.973l-.6-1.929-.6,1.931-1.971,0,1.6,1.177-.6,1.9,1.573-1.177,1.575,1.177-.6-1.9Zm-6.318-5.258,1.577-1.18,1.575,1.18-.6-1.907,1.6-1.173h-1.971l-.6-1.929-.6,1.931-1.97,0,1.6,1.173ZM169.935,6.352l-.6,1.933-1.973-.006,1.6,1.182-.6,1.9,1.579-1.182,1.575,1.182-.6-1.9,1.6-1.182h-1.975Z" transform="translate(464.62 1635.381)" fill="#ffed00"/>
    <path id="Tracciato_69636" data-name="Tracciato 69636" d="M187.394,12.734l2.4.78a5.537,5.537,0,0,1-1.837,3.054,5.161,5.161,0,0,1-3.261,1,5.221,5.221,0,0,1-4.018-1.708,6.643,6.643,0,0,1-1.571-4.677,6.967,6.967,0,0,1,1.58-4.871,5.356,5.356,0,0,1,4.161-1.735,5.038,5.038,0,0,1,3.657,1.361,5.02,5.02,0,0,1,1.256,2.314l-2.453.6a2.692,2.692,0,0,0-.909-1.544,2.553,2.553,0,0,0-1.676-.564,2.771,2.771,0,0,0-2.217,1,5.012,5.012,0,0,0-.846,3.249,5.373,5.373,0,0,0,.835,3.393,2.686,2.686,0,0,0,2.176,1.009,2.448,2.448,0,0,0,1.7-.642,3.764,3.764,0,0,0,1.02-2.021" transform="translate(495.204 1635.774)" fill="#fff"/>
    <path id="Tracciato_69637" data-name="Tracciato 69637" d="M185.754,11.085a5,5,0,0,1,.577-2.322,4.011,4.011,0,0,1,1.638-1.715,4.749,4.749,0,0,1,2.362-.59A4.39,4.39,0,0,1,193.638,7.8a4.7,4.7,0,0,1,1.289,3.39,4.753,4.753,0,0,1-1.3,3.425,4.346,4.346,0,0,1-3.277,1.357,5.069,5.069,0,0,1-2.329-.562,3.842,3.842,0,0,1-1.687-1.66,5.63,5.63,0,0,1-.577-2.661m2.41.129a3.06,3.06,0,0,0,.627,2.073,2.019,2.019,0,0,0,3.093,0,3.1,3.1,0,0,0,.625-2.091,3.037,3.037,0,0,0-.625-2.054,2.019,2.019,0,0,0-3.093,0,3.057,3.057,0,0,0-.627,2.073" transform="translate(500.813 1637.364)" fill="#fff"/>
    <path id="Tracciato_69638" data-name="Tracciato 69638" d="M191.2,8.25h1.3V7.564a4.609,4.609,0,0,1,.24-1.711,1.911,1.911,0,0,1,.878-.922,3.322,3.322,0,0,1,1.621-.356,6.421,6.421,0,0,1,1.966.308l-.317,1.68a4.6,4.6,0,0,0-1.079-.136.944.944,0,0,0-.732.243,1.437,1.437,0,0,0-.223.939V8.25h1.759v1.9h-1.759v7.205H192.5V10.146h-1.3Zm6.6-3.462h2.353V7.017H197.8Zm0,3.462h2.353v9.1H197.8Z" transform="translate(505.41 1635.774)" fill="#fff"/>
    <path id="Tracciato_69639" data-name="Tracciato 69639" d="M205.5,15.765h-2.351V11.119a7.363,7.363,0,0,0-.151-1.905,1.343,1.343,0,0,0-.489-.673,1.392,1.392,0,0,0-.817-.24,1.87,1.87,0,0,0-1.1.341,1.743,1.743,0,0,0-.664.911,8.027,8.027,0,0,0-.179,2.089v4.122h-2.353v-9.1h2.184V8a3.534,3.534,0,0,1,2.93-1.544,3.479,3.479,0,0,1,1.422.288,2.375,2.375,0,0,1,.976.734,2.662,2.662,0,0,1,.461,1.011,7.7,7.7,0,0,1,.129,1.619Z" transform="translate(510.64 1637.363)" fill="#fff"/>
    <path id="Tracciato_69640" data-name="Tracciato 69640" d="M205.12,9.441l-2.134-.4a3.421,3.421,0,0,1,1.237-1.951,4.446,4.446,0,0,1,2.611-.636,5.5,5.5,0,0,1,2.344.384,2.351,2.351,0,0,1,1.084.968,5.067,5.067,0,0,1,.315,2.154l-.026,2.812a9.967,9.967,0,0,0,.112,1.769,5.241,5.241,0,0,0,.422,1.221h-2.326c-.063-.159-.138-.4-.227-.712-.039-.142-.068-.234-.083-.282a4.247,4.247,0,0,1-1.289.9,3.6,3.6,0,0,1-1.466.3,2.977,2.977,0,0,1-2.161-.763,2.555,2.555,0,0,1-.791-1.927,2.635,2.635,0,0,1,.36-1.376,2.376,2.376,0,0,1,1.007-.926,7.721,7.721,0,0,1,1.872-.561,12.407,12.407,0,0,0,2.285-.594V9.587a1.27,1.27,0,0,0-.334-.99,1.988,1.988,0,0,0-1.265-.3,1.662,1.662,0,0,0-.979.253,1.772,1.772,0,0,0-.57.887m3.148,1.953a14.04,14.04,0,0,1-1.433.367,4.305,4.305,0,0,0-1.278.422,1.008,1.008,0,0,0-.463.848,1.2,1.2,0,0,0,.369.874,1.276,1.276,0,0,0,.939.369,2,2,0,0,0,1.212-.43,1.49,1.49,0,0,0,.563-.795,4.912,4.912,0,0,0,.092-1.175Z" transform="translate(515.156 1637.363)" fill="#fff"/>
    <path id="Tracciato_69641" data-name="Tracciato 69641" d="M216.343,15.765h-2.353V11.119a7.392,7.392,0,0,0-.149-1.905,1.344,1.344,0,0,0-.489-.673,1.4,1.4,0,0,0-.817-.24,1.87,1.87,0,0,0-1.1.341,1.743,1.743,0,0,0-.664.911,7.979,7.979,0,0,0-.183,2.089v4.122h-2.35v-9.1h2.184V8a3.534,3.534,0,0,1,2.93-1.544,3.479,3.479,0,0,1,1.422.288,2.369,2.369,0,0,1,.974.734,2.639,2.639,0,0,1,.463,1.011,7.708,7.708,0,0,1,.129,1.619Z" transform="translate(519.797 1637.363)" fill="#fff"/>
    <path id="Tracciato_69642" data-name="Tracciato 69642" d="M213.415,15.67V13.793l3.331-3.917c.544-.636.95-1.094,1.212-1.361-.273.018-.633.03-1.077.033l-3.143.018v-2h7.351V8.275l-3.4,4.009-1.2,1.33c.651-.041,1.057-.061,1.212-.061h3.64V15.67Z" transform="translate(524.164 1637.458)" fill="#fff"/>
    <path id="Tracciato_69643" data-name="Tracciato 69643" d="M218.575,4.691h2.351V6.919h-2.351Zm0,3.462h2.351v9.1h-2.351Z" transform="translate(528.521 1635.872)" fill="#fff"/>
    <path id="Tracciato_69644" data-name="Tracciato 69644" d="M223.2,9.441l-2.134-.4A3.421,3.421,0,0,1,222.3,7.093a4.452,4.452,0,0,1,2.613-.636,5.506,5.506,0,0,1,2.344.384,2.355,2.355,0,0,1,1.083.968,5.066,5.066,0,0,1,.315,2.154l-.026,2.812a9.928,9.928,0,0,0,.114,1.769,5.228,5.228,0,0,0,.42,1.221h-2.326c-.063-.159-.138-.4-.227-.712-.039-.142-.066-.234-.083-.282a4.226,4.226,0,0,1-1.289.9,3.594,3.594,0,0,1-1.464.3,2.978,2.978,0,0,1-2.163-.763,2.561,2.561,0,0,1-.791-1.927,2.635,2.635,0,0,1,.36-1.376,2.386,2.386,0,0,1,1.007-.926,7.748,7.748,0,0,1,1.872-.561,12.405,12.405,0,0,0,2.285-.594V9.587a1.269,1.269,0,0,0-.334-.99,1.988,1.988,0,0,0-1.265-.3,1.662,1.662,0,0,0-.979.253,1.8,1.8,0,0,0-.57.887m3.148,1.953a14.1,14.1,0,0,1-1.431.367,4.344,4.344,0,0,0-1.28.422,1.011,1.011,0,0,0-.461.848,1.2,1.2,0,0,0,.369.874,1.269,1.269,0,0,0,.937.369,2.011,2.011,0,0,0,1.213-.43,1.5,1.5,0,0,0,.561-.795,4.914,4.914,0,0,0,.092-1.175Z" transform="translate(530.416 1637.363)" fill="#fff"/>
    <path id="Tracciato_69645" data-name="Tracciato 69645" d="M230.847,8.04v1.92h-1.608v3.666a9.612,9.612,0,0,0,.046,1.3.523.523,0,0,0,.21.3.648.648,0,0,0,.4.12,2.964,2.964,0,0,0,.946-.232l.2,1.87a4.577,4.577,0,0,1-1.857.36,2.876,2.876,0,0,1-1.145-.219,1.67,1.67,0,0,1-.751-.564,2.289,2.289,0,0,1-.33-.939,11.727,11.727,0,0,1-.076-1.7V9.959H225.8V8.04h1.081V6.23l2.359-1.4V8.04Z" transform="translate(534.619 1635.987)" fill="#fff"/>
    <path id="Tracciato_69646" data-name="Tracciato 69646" d="M229.126,11.085a5,5,0,0,1,.577-2.322,4.011,4.011,0,0,1,1.638-1.715,4.749,4.749,0,0,1,2.362-.59A4.39,4.39,0,0,1,237.01,7.8a4.7,4.7,0,0,1,1.289,3.39,4.753,4.753,0,0,1-1.3,3.425,4.346,4.346,0,0,1-3.277,1.357,5.068,5.068,0,0,1-2.329-.562,3.843,3.843,0,0,1-1.687-1.66,5.63,5.63,0,0,1-.577-2.661m2.41.129a3.051,3.051,0,0,0,.629,2.073,2.017,2.017,0,0,0,3.091,0,3.1,3.1,0,0,0,.625-2.091,3.037,3.037,0,0,0-.625-2.054,2.017,2.017,0,0,0-3.091,0,3.048,3.048,0,0,0-.629,2.073" transform="translate(537.428 1637.364)" fill="#fff"/>
    <path id="Tracciato_69647" data-name="Tracciato 69647" d="M187.731,28.674h-2.185V27.338a3.557,3.557,0,0,1-1.285,1.16,3.254,3.254,0,0,1-1.494.384,3.358,3.358,0,0,1-2.624-1.267,5.229,5.229,0,0,1-1.092-3.526,5.172,5.172,0,0,1,1.062-3.517,3.426,3.426,0,0,1,2.689-1.2,3.294,3.294,0,0,1,2.576,1.269V16.111h2.353Zm-6.276-4.747a4.284,4.284,0,0,0,.389,2.108,1.774,1.774,0,0,0,1.592.942,1.723,1.723,0,0,0,1.381-.7,3.335,3.335,0,0,0,.568-2.115,3.659,3.659,0,0,0-.548-2.257,1.791,1.791,0,0,0-2.818-.009,3.128,3.128,0,0,0-.564,2.036" transform="translate(495.153 1645.513)" fill="#fff"/>
    <path id="Tracciato_69648" data-name="Tracciato 69648" d="M187.053,20.859l-2.134-.395a3.432,3.432,0,0,1,1.237-1.953,4.466,4.466,0,0,1,2.613-.634,5.51,5.51,0,0,1,2.344.382,2.358,2.358,0,0,1,1.083.97,5.067,5.067,0,0,1,.315,2.154l-.026,2.812a9.926,9.926,0,0,0,.114,1.769,5.258,5.258,0,0,0,.42,1.221H190.7c-.063-.16-.138-.4-.227-.712q-.058-.213-.083-.282a4.187,4.187,0,0,1-1.289.9,3.6,3.6,0,0,1-1.466.3,2.97,2.97,0,0,1-2.161-.765,2.56,2.56,0,0,1-.791-1.925,2.635,2.635,0,0,1,.36-1.376,2.363,2.363,0,0,1,1.007-.926,7.639,7.639,0,0,1,1.872-.561,12.56,12.56,0,0,0,2.285-.594V21a1.268,1.268,0,0,0-.334-.988,1.975,1.975,0,0,0-1.265-.3,1.661,1.661,0,0,0-.979.254,1.782,1.782,0,0,0-.57.885m3.148,1.955a14.1,14.1,0,0,1-1.431.367,4.268,4.268,0,0,0-1.28.422,1.008,1.008,0,0,0-.461.848,1.191,1.191,0,0,0,.369.872,1.27,1.27,0,0,0,.937.371,2.023,2.023,0,0,0,1.214-.43,1.5,1.5,0,0,0,.561-.795A4.911,4.911,0,0,0,190.2,23.3Z" transform="translate(499.904 1647.003)" fill="#fff"/>
    <rect id="Rettangolo_146259" data-name="Rettangolo 146259" width="2.351" height="12.563" transform="translate(694.735 1661.626)" fill="#fff"/>
    <rect id="Rettangolo_146260" data-name="Rettangolo 146260" width="2.351" height="12.563" transform="translate(699.498 1661.626)" fill="#fff"/>
    <path id="Tracciato_69649" data-name="Tracciato 69649" d="M195.542,20.577l-.444-2.342V16.112h2.562v2.123l-.385,2.342Z" transform="translate(508.7 1645.514)" fill="#fff"/>
    <path id="Tracciato_69650" data-name="Tracciato 69650" d="M197.558,16.112h2.479v6.805a14.559,14.559,0,0,0,.09,2.1,2.028,2.028,0,0,0,.758,1.237,2.582,2.582,0,0,0,1.638.468,2.455,2.455,0,0,0,1.588-.439,1.764,1.764,0,0,0,.645-1.086,14.547,14.547,0,0,0,.109-2.134V16.112h2.477v6.6a17.505,17.505,0,0,1-.2,3.2,3.608,3.608,0,0,1-.741,1.577,3.74,3.74,0,0,1-1.446,1.024,6.125,6.125,0,0,1-2.357.38,6.617,6.617,0,0,1-2.667-.415,3.8,3.8,0,0,1-1.437-1.079A3.5,3.5,0,0,1,197.8,26a15.591,15.591,0,0,1-.242-3.187Z" transform="translate(510.778 1645.514)" fill="#fff"/>
    <path id="Tracciato_69651" data-name="Tracciato 69651" d="M212.363,27.185h-2.351V22.539a7.353,7.353,0,0,0-.151-1.905,1.325,1.325,0,0,0-.489-.673,1.379,1.379,0,0,0-.817-.24,1.857,1.857,0,0,0-1.1.341,1.731,1.731,0,0,0-.664.909,8.042,8.042,0,0,0-.179,2.091v4.122h-2.353v-9.1h2.184v1.337a3.534,3.534,0,0,1,2.93-1.544,3.479,3.479,0,0,1,1.422.288,2.348,2.348,0,0,1,.976.734,2.654,2.654,0,0,1,.461,1.009,7.712,7.712,0,0,1,.129,1.621Z" transform="translate(516.437 1647.003)" fill="#fff"/>
    <path id="Tracciato_69652" data-name="Tracciato 69652" d="M209.948,16.112H212.3V18.34h-2.351Zm0,3.462H212.3v9.1h-2.351Z" transform="translate(521.237 1645.514)" fill="#fff"/>
    <path id="Tracciato_69653" data-name="Tracciato 69653" d="M212.234,22.505a5,5,0,0,1,.579-2.324,4.013,4.013,0,0,1,1.636-1.713,4.759,4.759,0,0,1,2.362-.59,4.384,4.384,0,0,1,3.307,1.339,4.7,4.7,0,0,1,1.291,3.39,4.755,4.755,0,0,1-1.3,3.425,4.346,4.346,0,0,1-3.277,1.357,5.078,5.078,0,0,1-2.331-.564,3.838,3.838,0,0,1-1.686-1.66,5.6,5.6,0,0,1-.579-2.659m2.412.127a3.062,3.062,0,0,0,.627,2.075,2.022,2.022,0,0,0,3.093,0,3.1,3.1,0,0,0,.623-2.091,3.042,3.042,0,0,0-.623-2.056,2.019,2.019,0,0,0-3.093,0,3.06,3.06,0,0,0-.627,2.073" transform="translate(523.167 1647.004)" fill="#fff"/>
    <path id="Tracciato_69654" data-name="Tracciato 69654" d="M226.3,27.185h-2.353V22.539a7.382,7.382,0,0,0-.149-1.905,1.336,1.336,0,0,0-.489-.673,1.383,1.383,0,0,0-.817-.24,1.857,1.857,0,0,0-1.1.341,1.731,1.731,0,0,0-.664.909,8.044,8.044,0,0,0-.179,2.091v4.122H218.2v-9.1h2.184v1.337a3.534,3.534,0,0,1,2.93-1.544,3.479,3.479,0,0,1,1.422.288,2.353,2.353,0,0,1,.974.734,2.63,2.63,0,0,1,.463,1.009,7.712,7.712,0,0,1,.129,1.621Z" transform="translate(528.202 1647.003)" fill="#fff"/>
    <path id="Tracciato_69655" data-name="Tracciato 69655" d="M229.346,24.287l2.342.4a3.942,3.942,0,0,1-1.426,2.012,4.142,4.142,0,0,1-2.44.688,3.936,3.936,0,0,1-3.432-1.551,5.31,5.31,0,0,1-.88-3.137,5.1,5.1,0,0,1,1.156-3.543,3.762,3.762,0,0,1,2.921-1.28,3.9,3.9,0,0,1,3.128,1.339,6.039,6.039,0,0,1,1.1,4.111h-5.892a2.472,2.472,0,0,0,.568,1.665,1.758,1.758,0,0,0,1.355.6,1.413,1.413,0,0,0,.929-.308,1.924,1.924,0,0,0,.57-.994m.133-2.434a2.349,2.349,0,0,0-.527-1.59,1.594,1.594,0,0,0-1.221-.542,1.615,1.615,0,0,0-1.272.572,2.256,2.256,0,0,0-.494,1.56Z" transform="translate(532.688 1647.004)" fill="#fff"/>
    <path id="Tracciato_69656" data-name="Tracciato 69656" d="M237.1,24.287l2.342.4a3.942,3.942,0,0,1-1.426,2.012,4.142,4.142,0,0,1-2.44.688,3.936,3.936,0,0,1-3.432-1.551,5.31,5.31,0,0,1-.88-3.137,5.1,5.1,0,0,1,1.156-3.543,3.763,3.763,0,0,1,2.921-1.28,3.9,3.9,0,0,1,3.128,1.339,6.039,6.039,0,0,1,1.1,4.111h-5.894a2.464,2.464,0,0,0,.57,1.665,1.758,1.758,0,0,0,1.355.6,1.413,1.413,0,0,0,.929-.308,1.924,1.924,0,0,0,.57-.994m.133-2.434a2.349,2.349,0,0,0-.527-1.59,1.594,1.594,0,0,0-1.221-.542,1.615,1.615,0,0,0-1.273.572,2.256,2.256,0,0,0-.494,1.56Z" transform="translate(539.231 1647.004)" fill="#fff"/>
    <path id="Tracciato_69657" data-name="Tracciato 69657" d="M242.678,27.09V25.727a3.479,3.479,0,0,1-1.274,1.149,3.541,3.541,0,0,1-1.671.419,3.205,3.205,0,0,1-1.606-.4A2.353,2.353,0,0,1,237.1,25.76a5.147,5.147,0,0,1-.317-2.014V17.989h2.351V22.17a12.033,12.033,0,0,0,.129,2.353,1.259,1.259,0,0,0,.474.684,1.42,1.42,0,0,0,.87.254,1.827,1.827,0,0,0,1.079-.337,1.735,1.735,0,0,0,.653-.841,9.919,9.919,0,0,0,.177-2.456V17.989h2.35v9.1Z" transform="translate(543.888 1647.098)" fill="#fff"/>
    <path id="Tracciato_69658" data-name="Tracciato 69658" d="M244.779,27.185h-2.351v-9.1h2.184v1.293a3.868,3.868,0,0,1,1.009-1.208,1.845,1.845,0,0,1,1.016-.291,2.937,2.937,0,0,1,1.549.456l-.728,2.1a2.015,2.015,0,0,0-1.1-.393,1.292,1.292,0,0,0-.839.277,1.933,1.933,0,0,0-.54,1.007,14.7,14.7,0,0,0-.2,3.052Z" transform="translate(548.657 1647.003)" fill="#fff"/>
    <path id="Tracciato_69659" data-name="Tracciato 69659" d="M245.8,22.505a5.018,5.018,0,0,1,.579-2.324,4.017,4.017,0,0,1,1.638-1.713,4.749,4.749,0,0,1,2.362-.59,4.39,4.39,0,0,1,3.307,1.339,4.7,4.7,0,0,1,1.289,3.39,4.756,4.756,0,0,1-1.3,3.425,4.346,4.346,0,0,1-3.277,1.357,5.083,5.083,0,0,1-2.331-.564,3.838,3.838,0,0,1-1.686-1.66,5.622,5.622,0,0,1-.579-2.659m2.412.127a3.062,3.062,0,0,0,.627,2.075,2.022,2.022,0,0,0,3.093,0,3.1,3.1,0,0,0,.623-2.091,3.042,3.042,0,0,0-.623-2.056,2.019,2.019,0,0,0-3.093,0,3.06,3.06,0,0,0-.627,2.073" transform="translate(551.506 1647.004)" fill="#fff"/>
    <path id="Tracciato_69660" data-name="Tracciato 69660" d="M251.739,18.083h2.195v1.339a3.321,3.321,0,0,1,1.154-1.118,3.138,3.138,0,0,1,1.616-.426,3.35,3.35,0,0,1,2.628,1.243,5.1,5.1,0,0,1,1.079,3.462,5.255,5.255,0,0,1-1.088,3.543,3.356,3.356,0,0,1-2.635,1.265,2.933,2.933,0,0,1-1.337-.3,4.445,4.445,0,0,1-1.258-1.027v4.585h-2.353Zm2.327,4.4a3.561,3.561,0,0,0,.6,2.268,1.806,1.806,0,0,0,1.446.73,1.685,1.685,0,0,0,1.365-.671,3.531,3.531,0,0,0,.544-2.209,3.337,3.337,0,0,0-.561-2.123,1.714,1.714,0,0,0-1.389-.7,1.784,1.784,0,0,0-1.431.682,3.076,3.076,0,0,0-.57,2.018" transform="translate(556.518 1647.004)" fill="#fff"/>
    <path id="Tracciato_69661" data-name="Tracciato 69661" d="M262.914,24.287l2.342.4a3.922,3.922,0,0,1-1.426,2.012,4.142,4.142,0,0,1-2.44.688,3.94,3.94,0,0,1-3.432-1.551,5.309,5.309,0,0,1-.878-3.137,5.1,5.1,0,0,1,1.156-3.543,3.76,3.76,0,0,1,2.921-1.28,3.9,3.9,0,0,1,3.128,1.339,6.039,6.039,0,0,1,1.1,4.111h-5.892a2.464,2.464,0,0,0,.57,1.665,1.753,1.753,0,0,0,1.355.6,1.408,1.408,0,0,0,.928-.308,1.9,1.9,0,0,0,.57-.994m.137-2.434a2.34,2.34,0,0,0-.529-1.59,1.672,1.672,0,0,0-2.492.03,2.248,2.248,0,0,0-.5,1.56Z" transform="translate(561.027 1647.004)" fill="#fff"/>
    <path id="Tracciato_69662" data-name="Tracciato 69662" d="M264.664,20.859l-2.136-.395a3.433,3.433,0,0,1,1.237-1.953,4.469,4.469,0,0,1,2.615-.634,5.507,5.507,0,0,1,2.342.382,2.358,2.358,0,0,1,1.083.97,5.066,5.066,0,0,1,.315,2.154L270.1,24.2a9.959,9.959,0,0,0,.113,1.769,5.268,5.268,0,0,0,.422,1.221H268.3c-.063-.16-.138-.4-.227-.712-.039-.142-.068-.236-.083-.282a4.208,4.208,0,0,1-1.289.9,3.6,3.6,0,0,1-1.466.3,2.97,2.97,0,0,1-2.161-.765,2.553,2.553,0,0,1-.791-1.925,2.636,2.636,0,0,1,.36-1.376,2.353,2.353,0,0,1,1.007-.926,7.639,7.639,0,0,1,1.872-.561,12.636,12.636,0,0,0,2.287-.594V21a1.268,1.268,0,0,0-.336-.988,1.975,1.975,0,0,0-1.265-.3,1.661,1.661,0,0,0-.979.254,1.744,1.744,0,0,0-.568.885m3.148,1.955a14.379,14.379,0,0,1-1.431.367,4.209,4.209,0,0,0-1.28.422,1,1,0,0,0-.465.848,1.191,1.191,0,0,0,.369.872,1.277,1.277,0,0,0,.939.371,2.023,2.023,0,0,0,1.214-.43,1.5,1.5,0,0,0,.561-.795,4.882,4.882,0,0,0,.094-1.175Z" transform="translate(565.422 1647.003)" fill="#fff"/>
    <rect id="Rettangolo_146261" data-name="Rettangolo 146261" width="77.655" height="54.009" transform="translate(587.574 1631.913)" fill="#fff"/>
    <rect id="Rettangolo_146262" data-name="Rettangolo 146262" width="74.666" height="50.97" transform="translate(589.068 1633.394)" fill="#164194"/>
    <path id="Tracciato_69663" data-name="Tracciato 69663" d="M160.192,9.118l1.575-1.178,1.577,1.178-.6-1.9,1.6-1.178H162.37l-.6-1.927-.6,1.929-1.97,0,1.6,1.178Zm-8.155,2.243,1.577-1.178,1.573,1.178-.6-1.9,1.6-1.18h-1.973l-.6-1.929-.6,1.931-1.971,0,1.6,1.18Zm-4.389,1.114-.6,1.929-1.971,0,1.6,1.177-.6,1.905,1.577-1.178,1.575,1.178-.6-1.905,1.6-1.177h-1.971Zm-2.191,12.17,1.575,1.177-.6-1.9,1.6-1.177h-1.971l-.6-1.931-.6,1.935-1.975,0,1.6,1.177-.6,1.9Zm2.794,6.46-.6-1.929-.6,1.931-1.971,0,1.6,1.175-.6,1.905L147.648,33l1.575,1.18-.6-1.905,1.6-1.175Zm5.977,6.119-.6-1.927-.6,1.929-1.971,0,1.6,1.177-.6,1.9,1.577-1.177L155.2,40.3l-.6-1.9,1.6-1.177Zm8.142,2.217-.6-1.929-.6,1.931-1.971,0,1.6,1.178-.6,1.9,1.575-1.175,1.575,1.175-.6-1.9,1.6-1.178Zm8.144-2.217-.6-1.927-.607,1.929-1.97,0,1.6,1.177-.6,1.9,1.577-1.177,1.575,1.177-.6-1.9,1.6-1.177Zm5.979-6.119-.6-1.929-.6,1.931-1.97,0,1.6,1.175-.6,1.905L175.89,33l1.575,1.18-.6-1.905,1.6-1.175Zm4.138-8.387h-1.973l-.6-1.929-.6,1.931-1.971,0,1.6,1.177-.6,1.9,1.573-1.177,1.575,1.177-.6-1.9Zm-6.318-5.258,1.577-1.18,1.575,1.18-.6-1.907,1.6-1.173h-1.971l-.6-1.929-.6,1.931-1.97,0,1.6,1.173ZM169.935,6.352l-.6,1.933-1.973-.006,1.6,1.182-.6,1.9,1.579-1.182,1.575,1.182-.6-1.9,1.6-1.182h-1.975Z" transform="translate(464.62 1635.381)" fill="#ffed00"/>
    <path id="Tracciato_69664" data-name="Tracciato 69664" d="M187.394,12.734l2.4.78a5.537,5.537,0,0,1-1.837,3.054,5.161,5.161,0,0,1-3.261,1,5.221,5.221,0,0,1-4.018-1.708,6.643,6.643,0,0,1-1.571-4.677,6.967,6.967,0,0,1,1.58-4.871,5.356,5.356,0,0,1,4.161-1.735,5.038,5.038,0,0,1,3.657,1.361,5.02,5.02,0,0,1,1.256,2.314l-2.453.6a2.692,2.692,0,0,0-.909-1.544,2.553,2.553,0,0,0-1.676-.564,2.771,2.771,0,0,0-2.217,1,5.012,5.012,0,0,0-.846,3.249,5.373,5.373,0,0,0,.835,3.393,2.686,2.686,0,0,0,2.176,1.009,2.448,2.448,0,0,0,1.7-.642,3.764,3.764,0,0,0,1.02-2.021" transform="translate(495.204 1635.774)" fill="#fff"/>
    <path id="Tracciato_69665" data-name="Tracciato 69665" d="M185.754,11.085a5,5,0,0,1,.577-2.322,4.011,4.011,0,0,1,1.638-1.715,4.749,4.749,0,0,1,2.362-.59A4.39,4.39,0,0,1,193.638,7.8a4.7,4.7,0,0,1,1.289,3.39,4.753,4.753,0,0,1-1.3,3.425,4.346,4.346,0,0,1-3.277,1.357,5.069,5.069,0,0,1-2.329-.562,3.842,3.842,0,0,1-1.687-1.66,5.63,5.63,0,0,1-.577-2.661m2.41.129a3.06,3.06,0,0,0,.627,2.073,2.019,2.019,0,0,0,3.093,0,3.1,3.1,0,0,0,.625-2.091,3.037,3.037,0,0,0-.625-2.054,2.019,2.019,0,0,0-3.093,0,3.057,3.057,0,0,0-.627,2.073" transform="translate(500.813 1637.364)" fill="#fff"/>
    <path id="Tracciato_69666" data-name="Tracciato 69666" d="M191.2,8.25h1.3V7.564a4.609,4.609,0,0,1,.24-1.711,1.911,1.911,0,0,1,.878-.922,3.322,3.322,0,0,1,1.621-.356,6.421,6.421,0,0,1,1.966.308l-.317,1.68a4.6,4.6,0,0,0-1.079-.136.944.944,0,0,0-.732.243,1.437,1.437,0,0,0-.223.939V8.25h1.759v1.9h-1.759v7.205H192.5V10.146h-1.3Zm6.6-3.462h2.353V7.017H197.8Zm0,3.462h2.353v9.1H197.8Z" transform="translate(505.41 1635.774)" fill="#fff"/>
    <path id="Tracciato_69667" data-name="Tracciato 69667" d="M205.5,15.765h-2.351V11.119a7.363,7.363,0,0,0-.151-1.905,1.343,1.343,0,0,0-.489-.673,1.392,1.392,0,0,0-.817-.24,1.87,1.87,0,0,0-1.1.341,1.743,1.743,0,0,0-.664.911,8.027,8.027,0,0,0-.179,2.089v4.122h-2.353v-9.1h2.184V8a3.534,3.534,0,0,1,2.93-1.544,3.479,3.479,0,0,1,1.422.288,2.375,2.375,0,0,1,.976.734,2.662,2.662,0,0,1,.461,1.011,7.7,7.7,0,0,1,.129,1.619Z" transform="translate(510.64 1637.363)" fill="#fff"/>
    <path id="Tracciato_69668" data-name="Tracciato 69668" d="M205.12,9.441l-2.134-.4a3.421,3.421,0,0,1,1.237-1.951,4.446,4.446,0,0,1,2.611-.636,5.5,5.5,0,0,1,2.344.384,2.351,2.351,0,0,1,1.084.968,5.067,5.067,0,0,1,.315,2.154l-.026,2.812a9.967,9.967,0,0,0,.112,1.769,5.241,5.241,0,0,0,.422,1.221h-2.326c-.063-.159-.138-.4-.227-.712-.039-.142-.068-.234-.083-.282a4.247,4.247,0,0,1-1.289.9,3.6,3.6,0,0,1-1.466.3,2.977,2.977,0,0,1-2.161-.763,2.555,2.555,0,0,1-.791-1.927,2.635,2.635,0,0,1,.36-1.376,2.376,2.376,0,0,1,1.007-.926,7.721,7.721,0,0,1,1.872-.561,12.407,12.407,0,0,0,2.285-.594V9.587a1.27,1.27,0,0,0-.334-.99,1.988,1.988,0,0,0-1.265-.3,1.662,1.662,0,0,0-.979.253,1.772,1.772,0,0,0-.57.887m3.148,1.953a14.04,14.04,0,0,1-1.433.367,4.305,4.305,0,0,0-1.278.422,1.008,1.008,0,0,0-.463.848,1.2,1.2,0,0,0,.369.874,1.276,1.276,0,0,0,.939.369,2,2,0,0,0,1.212-.43,1.49,1.49,0,0,0,.563-.795,4.912,4.912,0,0,0,.092-1.175Z" transform="translate(515.156 1637.363)" fill="#fff"/>
    <path id="Tracciato_69669" data-name="Tracciato 69669" d="M216.343,15.765h-2.353V11.119a7.392,7.392,0,0,0-.149-1.905,1.344,1.344,0,0,0-.489-.673,1.4,1.4,0,0,0-.817-.24,1.87,1.87,0,0,0-1.1.341,1.743,1.743,0,0,0-.664.911,7.979,7.979,0,0,0-.183,2.089v4.122h-2.35v-9.1h2.184V8a3.534,3.534,0,0,1,2.93-1.544,3.479,3.479,0,0,1,1.422.288,2.369,2.369,0,0,1,.974.734,2.639,2.639,0,0,1,.463,1.011,7.708,7.708,0,0,1,.129,1.619Z" transform="translate(519.797 1637.363)" fill="#fff"/>
    <path id="Tracciato_69670" data-name="Tracciato 69670" d="M213.415,15.67V13.793l3.331-3.917c.544-.636.95-1.094,1.212-1.361-.273.018-.633.03-1.077.033l-3.143.018v-2h7.351V8.275l-3.4,4.009-1.2,1.33c.651-.041,1.057-.061,1.212-.061h3.64V15.67Z" transform="translate(524.164 1637.458)" fill="#fff"/>
    <path id="Tracciato_69671" data-name="Tracciato 69671" d="M218.575,4.691h2.351V6.919h-2.351Zm0,3.462h2.351v9.1h-2.351Z" transform="translate(528.521 1635.872)" fill="#fff"/>
    <path id="Tracciato_69672" data-name="Tracciato 69672" d="M223.2,9.441l-2.134-.4A3.421,3.421,0,0,1,222.3,7.093a4.452,4.452,0,0,1,2.613-.636,5.506,5.506,0,0,1,2.344.384,2.355,2.355,0,0,1,1.083.968,5.066,5.066,0,0,1,.315,2.154l-.026,2.812a9.928,9.928,0,0,0,.114,1.769,5.228,5.228,0,0,0,.42,1.221h-2.326c-.063-.159-.138-.4-.227-.712-.039-.142-.066-.234-.083-.282a4.226,4.226,0,0,1-1.289.9,3.594,3.594,0,0,1-1.464.3,2.978,2.978,0,0,1-2.163-.763,2.561,2.561,0,0,1-.791-1.927,2.635,2.635,0,0,1,.36-1.376,2.386,2.386,0,0,1,1.007-.926,7.748,7.748,0,0,1,1.872-.561,12.405,12.405,0,0,0,2.285-.594V9.587a1.269,1.269,0,0,0-.334-.99,1.988,1.988,0,0,0-1.265-.3,1.662,1.662,0,0,0-.979.253,1.8,1.8,0,0,0-.57.887m3.148,1.953a14.1,14.1,0,0,1-1.431.367,4.344,4.344,0,0,0-1.28.422,1.011,1.011,0,0,0-.461.848,1.2,1.2,0,0,0,.369.874,1.269,1.269,0,0,0,.937.369,2.011,2.011,0,0,0,1.213-.43,1.5,1.5,0,0,0,.561-.795,4.914,4.914,0,0,0,.092-1.175Z" transform="translate(530.416 1637.363)" fill="#fff"/>
    <path id="Tracciato_69673" data-name="Tracciato 69673" d="M230.847,8.04v1.92h-1.608v3.666a9.612,9.612,0,0,0,.046,1.3.523.523,0,0,0,.21.3.648.648,0,0,0,.4.12,2.964,2.964,0,0,0,.946-.232l.2,1.87a4.577,4.577,0,0,1-1.857.36,2.876,2.876,0,0,1-1.145-.219,1.67,1.67,0,0,1-.751-.564,2.289,2.289,0,0,1-.33-.939,11.727,11.727,0,0,1-.076-1.7V9.959H225.8V8.04h1.081V6.23l2.359-1.4V8.04Z" transform="translate(534.619 1635.987)" fill="#fff"/>
    <path id="Tracciato_69674" data-name="Tracciato 69674" d="M229.126,11.085a5,5,0,0,1,.577-2.322,4.011,4.011,0,0,1,1.638-1.715,4.749,4.749,0,0,1,2.362-.59A4.39,4.39,0,0,1,237.01,7.8a4.7,4.7,0,0,1,1.289,3.39,4.753,4.753,0,0,1-1.3,3.425,4.346,4.346,0,0,1-3.277,1.357,5.068,5.068,0,0,1-2.329-.562,3.843,3.843,0,0,1-1.687-1.66,5.63,5.63,0,0,1-.577-2.661m2.41.129a3.051,3.051,0,0,0,.629,2.073,2.017,2.017,0,0,0,3.091,0,3.1,3.1,0,0,0,.625-2.091,3.037,3.037,0,0,0-.625-2.054,2.017,2.017,0,0,0-3.091,0,3.048,3.048,0,0,0-.629,2.073" transform="translate(537.428 1637.364)" fill="#fff"/>
    <path id="Tracciato_69675" data-name="Tracciato 69675" d="M187.731,28.674h-2.185V27.338a3.557,3.557,0,0,1-1.285,1.16,3.254,3.254,0,0,1-1.494.384,3.358,3.358,0,0,1-2.624-1.267,5.229,5.229,0,0,1-1.092-3.526,5.172,5.172,0,0,1,1.062-3.517,3.426,3.426,0,0,1,2.689-1.2,3.294,3.294,0,0,1,2.576,1.269V16.111h2.353Zm-6.276-4.747a4.284,4.284,0,0,0,.389,2.108,1.774,1.774,0,0,0,1.592.942,1.723,1.723,0,0,0,1.381-.7,3.335,3.335,0,0,0,.568-2.115,3.659,3.659,0,0,0-.548-2.257,1.791,1.791,0,0,0-2.818-.009,3.128,3.128,0,0,0-.564,2.036" transform="translate(495.153 1645.513)" fill="#fff"/>
    <path id="Tracciato_69676" data-name="Tracciato 69676" d="M187.053,20.859l-2.134-.395a3.432,3.432,0,0,1,1.237-1.953,4.466,4.466,0,0,1,2.613-.634,5.51,5.51,0,0,1,2.344.382,2.358,2.358,0,0,1,1.083.97,5.067,5.067,0,0,1,.315,2.154l-.026,2.812a9.926,9.926,0,0,0,.114,1.769,5.258,5.258,0,0,0,.42,1.221H190.7c-.063-.16-.138-.4-.227-.712q-.058-.213-.083-.282a4.187,4.187,0,0,1-1.289.9,3.6,3.6,0,0,1-1.466.3,2.97,2.97,0,0,1-2.161-.765,2.56,2.56,0,0,1-.791-1.925,2.635,2.635,0,0,1,.36-1.376,2.363,2.363,0,0,1,1.007-.926,7.639,7.639,0,0,1,1.872-.561,12.56,12.56,0,0,0,2.285-.594V21a1.268,1.268,0,0,0-.334-.988,1.975,1.975,0,0,0-1.265-.3,1.661,1.661,0,0,0-.979.254,1.782,1.782,0,0,0-.57.885m3.148,1.955a14.1,14.1,0,0,1-1.431.367,4.268,4.268,0,0,0-1.28.422,1.008,1.008,0,0,0-.461.848,1.191,1.191,0,0,0,.369.872,1.27,1.27,0,0,0,.937.371,2.023,2.023,0,0,0,1.214-.43,1.5,1.5,0,0,0,.561-.795A4.911,4.911,0,0,0,190.2,23.3Z" transform="translate(499.904 1647.003)" fill="#fff"/>
    <rect id="Rettangolo_146263" data-name="Rettangolo 146263" width="2.351" height="12.563" transform="translate(694.735 1661.626)" fill="#fff"/>
    <rect id="Rettangolo_146264" data-name="Rettangolo 146264" width="2.351" height="12.563" transform="translate(699.498 1661.626)" fill="#fff"/>
    <path id="Tracciato_69677" data-name="Tracciato 69677" d="M195.542,20.577l-.444-2.342V16.112h2.562v2.123l-.385,2.342Z" transform="translate(508.7 1645.514)" fill="#fff"/>
    <path id="Tracciato_69678" data-name="Tracciato 69678" d="M197.558,16.112h2.479v6.805a14.559,14.559,0,0,0,.09,2.1,2.028,2.028,0,0,0,.758,1.237,2.582,2.582,0,0,0,1.638.468,2.455,2.455,0,0,0,1.588-.439,1.764,1.764,0,0,0,.645-1.086,14.547,14.547,0,0,0,.109-2.134V16.112h2.477v6.6a17.505,17.505,0,0,1-.2,3.2,3.608,3.608,0,0,1-.741,1.577,3.74,3.74,0,0,1-1.446,1.024,6.125,6.125,0,0,1-2.357.38,6.617,6.617,0,0,1-2.667-.415,3.8,3.8,0,0,1-1.437-1.079A3.5,3.5,0,0,1,197.8,26a15.591,15.591,0,0,1-.242-3.187Z" transform="translate(510.778 1645.514)" fill="#fff"/>
    <path id="Tracciato_69679" data-name="Tracciato 69679" d="M212.363,27.185h-2.351V22.539a7.353,7.353,0,0,0-.151-1.905,1.325,1.325,0,0,0-.489-.673,1.379,1.379,0,0,0-.817-.24,1.857,1.857,0,0,0-1.1.341,1.731,1.731,0,0,0-.664.909,8.042,8.042,0,0,0-.179,2.091v4.122h-2.353v-9.1h2.184v1.337a3.534,3.534,0,0,1,2.93-1.544,3.479,3.479,0,0,1,1.422.288,2.348,2.348,0,0,1,.976.734,2.654,2.654,0,0,1,.461,1.009,7.712,7.712,0,0,1,.129,1.621Z" transform="translate(516.437 1647.003)" fill="#fff"/>
    <path id="Tracciato_69680" data-name="Tracciato 69680" d="M209.948,16.112H212.3V18.34h-2.351Zm0,3.462H212.3v9.1h-2.351Z" transform="translate(521.237 1645.514)" fill="#fff"/>
    <path id="Tracciato_69681" data-name="Tracciato 69681" d="M212.234,22.505a5,5,0,0,1,.579-2.324,4.013,4.013,0,0,1,1.636-1.713,4.759,4.759,0,0,1,2.362-.59,4.384,4.384,0,0,1,3.307,1.339,4.7,4.7,0,0,1,1.291,3.39,4.755,4.755,0,0,1-1.3,3.425,4.346,4.346,0,0,1-3.277,1.357,5.078,5.078,0,0,1-2.331-.564,3.838,3.838,0,0,1-1.686-1.66,5.6,5.6,0,0,1-.579-2.659m2.412.127a3.062,3.062,0,0,0,.627,2.075,2.022,2.022,0,0,0,3.093,0,3.1,3.1,0,0,0,.623-2.091,3.042,3.042,0,0,0-.623-2.056,2.019,2.019,0,0,0-3.093,0,3.06,3.06,0,0,0-.627,2.073" transform="translate(523.167 1647.004)" fill="#fff"/>
    <path id="Tracciato_69682" data-name="Tracciato 69682" d="M226.3,27.185h-2.353V22.539a7.382,7.382,0,0,0-.149-1.905,1.336,1.336,0,0,0-.489-.673,1.383,1.383,0,0,0-.817-.24,1.857,1.857,0,0,0-1.1.341,1.731,1.731,0,0,0-.664.909,8.044,8.044,0,0,0-.179,2.091v4.122H218.2v-9.1h2.184v1.337a3.534,3.534,0,0,1,2.93-1.544,3.479,3.479,0,0,1,1.422.288,2.353,2.353,0,0,1,.974.734,2.63,2.63,0,0,1,.463,1.009,7.712,7.712,0,0,1,.129,1.621Z" transform="translate(528.202 1647.003)" fill="#fff"/>
    <path id="Tracciato_69683" data-name="Tracciato 69683" d="M229.346,24.287l2.342.4a3.942,3.942,0,0,1-1.426,2.012,4.142,4.142,0,0,1-2.44.688,3.936,3.936,0,0,1-3.432-1.551,5.31,5.31,0,0,1-.88-3.137,5.1,5.1,0,0,1,1.156-3.543,3.762,3.762,0,0,1,2.921-1.28,3.9,3.9,0,0,1,3.128,1.339,6.039,6.039,0,0,1,1.1,4.111h-5.892a2.472,2.472,0,0,0,.568,1.665,1.758,1.758,0,0,0,1.355.6,1.413,1.413,0,0,0,.929-.308,1.924,1.924,0,0,0,.57-.994m.133-2.434a2.349,2.349,0,0,0-.527-1.59,1.594,1.594,0,0,0-1.221-.542,1.615,1.615,0,0,0-1.272.572,2.256,2.256,0,0,0-.494,1.56Z" transform="translate(532.688 1647.004)" fill="#fff"/>
    <path id="Tracciato_69684" data-name="Tracciato 69684" d="M237.1,24.287l2.342.4a3.942,3.942,0,0,1-1.426,2.012,4.142,4.142,0,0,1-2.44.688,3.936,3.936,0,0,1-3.432-1.551,5.31,5.31,0,0,1-.88-3.137,5.1,5.1,0,0,1,1.156-3.543,3.763,3.763,0,0,1,2.921-1.28,3.9,3.9,0,0,1,3.128,1.339,6.039,6.039,0,0,1,1.1,4.111h-5.894a2.464,2.464,0,0,0,.57,1.665,1.758,1.758,0,0,0,1.355.6,1.413,1.413,0,0,0,.929-.308,1.924,1.924,0,0,0,.57-.994m.133-2.434a2.349,2.349,0,0,0-.527-1.59,1.594,1.594,0,0,0-1.221-.542,1.615,1.615,0,0,0-1.273.572,2.256,2.256,0,0,0-.494,1.56Z" transform="translate(539.231 1647.004)" fill="#fff"/>
    <path id="Tracciato_69685" data-name="Tracciato 69685" d="M242.678,27.09V25.727a3.479,3.479,0,0,1-1.274,1.149,3.541,3.541,0,0,1-1.671.419,3.205,3.205,0,0,1-1.606-.4A2.353,2.353,0,0,1,237.1,25.76a5.147,5.147,0,0,1-.317-2.014V17.989h2.351V22.17a12.033,12.033,0,0,0,.129,2.353,1.259,1.259,0,0,0,.474.684,1.42,1.42,0,0,0,.87.254,1.827,1.827,0,0,0,1.079-.337,1.735,1.735,0,0,0,.653-.841,9.919,9.919,0,0,0,.177-2.456V17.989h2.35v9.1Z" transform="translate(543.888 1647.098)" fill="#fff"/>
    <path id="Tracciato_69686" data-name="Tracciato 69686" d="M244.779,27.185h-2.351v-9.1h2.184v1.293a3.868,3.868,0,0,1,1.009-1.208,1.845,1.845,0,0,1,1.016-.291,2.937,2.937,0,0,1,1.549.456l-.728,2.1a2.015,2.015,0,0,0-1.1-.393,1.292,1.292,0,0,0-.839.277,1.933,1.933,0,0,0-.54,1.007,14.7,14.7,0,0,0-.2,3.052Z" transform="translate(548.657 1647.003)" fill="#fff"/>
    <path id="Tracciato_69687" data-name="Tracciato 69687" d="M245.8,22.505a5.018,5.018,0,0,1,.579-2.324,4.017,4.017,0,0,1,1.638-1.713,4.749,4.749,0,0,1,2.362-.59,4.39,4.39,0,0,1,3.307,1.339,4.7,4.7,0,0,1,1.289,3.39,4.756,4.756,0,0,1-1.3,3.425,4.346,4.346,0,0,1-3.277,1.357,5.083,5.083,0,0,1-2.331-.564,3.838,3.838,0,0,1-1.686-1.66,5.622,5.622,0,0,1-.579-2.659m2.412.127a3.062,3.062,0,0,0,.627,2.075,2.022,2.022,0,0,0,3.093,0,3.1,3.1,0,0,0,.623-2.091,3.042,3.042,0,0,0-.623-2.056,2.019,2.019,0,0,0-3.093,0,3.06,3.06,0,0,0-.627,2.073" transform="translate(551.506 1647.004)" fill="#fff"/>
    <path id="Tracciato_69688" data-name="Tracciato 69688" d="M251.739,18.083h2.195v1.339a3.321,3.321,0,0,1,1.154-1.118,3.138,3.138,0,0,1,1.616-.426,3.35,3.35,0,0,1,2.628,1.243,5.1,5.1,0,0,1,1.079,3.462,5.255,5.255,0,0,1-1.088,3.543,3.356,3.356,0,0,1-2.635,1.265,2.933,2.933,0,0,1-1.337-.3,4.445,4.445,0,0,1-1.258-1.027v4.585h-2.353Zm2.327,4.4a3.561,3.561,0,0,0,.6,2.268,1.806,1.806,0,0,0,1.446.73,1.685,1.685,0,0,0,1.365-.671,3.531,3.531,0,0,0,.544-2.209,3.337,3.337,0,0,0-.561-2.123,1.714,1.714,0,0,0-1.389-.7,1.784,1.784,0,0,0-1.431.682,3.076,3.076,0,0,0-.57,2.018" transform="translate(556.518 1647.004)" fill="#fff"/>
    <path id="Tracciato_69689" data-name="Tracciato 69689" d="M262.914,24.287l2.342.4a3.922,3.922,0,0,1-1.426,2.012,4.142,4.142,0,0,1-2.44.688,3.94,3.94,0,0,1-3.432-1.551,5.309,5.309,0,0,1-.878-3.137,5.1,5.1,0,0,1,1.156-3.543,3.76,3.76,0,0,1,2.921-1.28,3.9,3.9,0,0,1,3.128,1.339,6.039,6.039,0,0,1,1.1,4.111h-5.892a2.464,2.464,0,0,0,.57,1.665,1.753,1.753,0,0,0,1.355.6,1.408,1.408,0,0,0,.928-.308,1.9,1.9,0,0,0,.57-.994m.137-2.434a2.34,2.34,0,0,0-.529-1.59,1.672,1.672,0,0,0-2.492.03,2.248,2.248,0,0,0-.5,1.56Z" transform="translate(561.027 1647.004)" fill="#fff"/>
    <path id="Tracciato_69690" data-name="Tracciato 69690" d="M264.664,20.859l-2.136-.395a3.433,3.433,0,0,1,1.237-1.953,4.469,4.469,0,0,1,2.615-.634,5.507,5.507,0,0,1,2.342.382,2.358,2.358,0,0,1,1.083.97,5.066,5.066,0,0,1,.315,2.154L270.1,24.2a9.959,9.959,0,0,0,.113,1.769,5.268,5.268,0,0,0,.422,1.221H268.3c-.063-.16-.138-.4-.227-.712-.039-.142-.068-.236-.083-.282a4.208,4.208,0,0,1-1.289.9,3.6,3.6,0,0,1-1.466.3,2.97,2.97,0,0,1-2.161-.765,2.553,2.553,0,0,1-.791-1.925,2.636,2.636,0,0,1,.36-1.376,2.353,2.353,0,0,1,1.007-.926,7.639,7.639,0,0,1,1.872-.561,12.636,12.636,0,0,0,2.287-.594V21a1.268,1.268,0,0,0-.336-.988,1.975,1.975,0,0,0-1.265-.3,1.661,1.661,0,0,0-.979.254,1.744,1.744,0,0,0-.568.885m3.148,1.955a14.379,14.379,0,0,1-1.431.367,4.209,4.209,0,0,0-1.28.422,1,1,0,0,0-.465.848,1.191,1.191,0,0,0,.369.872,1.277,1.277,0,0,0,.939.371,2.023,2.023,0,0,0,1.214-.43,1.5,1.5,0,0,0,.561-.795,4.882,4.882,0,0,0,.094-1.175Z" transform="translate(565.422 1647.003)" fill="#fff"/>
  </g>
</svg>
