<svg xmlns="http://www.w3.org/2000/svg" xmlns:xlink="http://www.w3.org/1999/xlink" width="742" height="526.484" viewBox="0 0 742 526.484">
  <defs>
    <clipPath id="clip-path">
      <rect id="Rettangolo_146223" data-name="Rettangolo 146223" width="742" height="492" transform="translate(0.441)" fill="#fff"/>
    </clipPath>
    <clipPath id="clip-path-2">
      <rect id="Rettangolo_146215" data-name="Rettangolo 146215" width="1026" height="719" transform="translate(0.436 -0.225)" fill="none"/>
    </clipPath>
    <clipPath id="clip-path-3">
      <rect id="Rettangolo_146214" data-name="Rettangolo 146214" width="156.889" height="6.761" fill="none"/>
    </clipPath>
    <clipPath id="clip-path-4">
      <rect id="Rettangolo_146218" data-name="Rettangolo 146218" width="143.592" height="27.88" fill="#c6ddf7"/>
    </clipPath>
    <clipPath id="clip-path-5">
      <rect id="Rettangolo_146217" data-name="Rettangolo 146217" width="143.591" height="27.879" fill="#c6ddf7"/>
    </clipPath>
    <clipPath id="clip-path-10">
      <rect id="Rettangolo_146199" data-name="Rettangolo 146199" width="240.018" height="427.39" transform="translate(0 0)" fill="none"/>
    </clipPath>
  </defs>
  <g id="Raggruppa_9239" data-name="Raggruppa 9239" transform="translate(-857.999 -473)">
    <g id="Gruppo_di_maschere_3" data-name="Gruppo di maschere 3" transform="translate(857.559 473)" clip-path="url(#clip-path)">
      <g id="Raggruppa_9212" data-name="Raggruppa 9212" transform="translate(-37.995 -67.775)" opacity="0.587">
        <g id="Raggruppa_9217" data-name="Raggruppa 9217" clip-path="url(#clip-path-2)">
          <path id="Tracciato_60469" data-name="Tracciato 60469" d="M412.632,125.472a9.106,9.106,0,0,1,9.105-9.105H507a8.487,8.487,0,0,1,5.94,2.466,9.069,9.069,0,0,1,2.889,6.64v14.144h20.147V206.5h106.97V452.847H392.485V139.617h20.147Z" transform="translate(-19.093 3.129)" fill="#e7f1fb"/>
          <path id="Tracciato_60470" data-name="Tracciato 60470" d="M50.5,446.484c7.066-60.7,105.84-108.822,226.672-108.822s219.608,48.119,226.674,108.822Z" transform="translate(471.183 9.079)" fill="#d6e6f7"/>
          <path id="Tracciato_60471" data-name="Tracciato 60471" d="M545.978,446.484c6.458-60.7,96.741-108.822,207.185-108.822s200.728,48.119,207.186,108.822Z" transform="translate(-494.119 9.079)" fill="#d6e6f7"/>
          <path id="Tracciato_60472" data-name="Tracciato 60472" d="M197.92,448.079c23.631-96.638,134-169.76,266.612-169.76s242.98,73.122,266.611,169.76Z" transform="translate(92.504 7.484)" fill="#d6e6f7"/>
          <path id="Tracciato_60473" data-name="Tracciato 60473" d="M782.218,266.218s3.932,32.9-13.527,64.148-33.725,20.417-33.725,20.417-17.749-8.177-.289-39.423,47.541-45.141,47.541-45.141" transform="translate(-502.246 7.158)" fill="#d6e6f7"/>
          <path id="Tracciato_60474" data-name="Tracciato 60474" d="M291.4,280.225s6.191,26.792-7.581,48.742-29.689,10.666-29.689,10.666-17.087-9.422-3.317-31.372S291.4,280.225,291.4,280.225" transform="translate(482.053 7.535)" fill="#d6e6f7"/>
          <path id="Tracciato_60475" data-name="Tracciato 60475" d="M784.952,236.339s-25.313,30.413-28.115,73.063,20.531,42.364,20.531,42.364,23.1,3.336,25.9-39.314-18.314-76.113-18.314-76.113" transform="translate(-553.579 6.355)" fill="#d6e6f7"/>
          <path id="Tracciato_60476" data-name="Tracciato 60476" d="M294.387,208.673s-27.533,38.5-27.142,89.622,28.2,48.74,28.2,48.74,27.843,1.957,27.452-49.167-28.512-89.195-28.512-89.195" transform="translate(429.56 5.611)" fill="#d6e6f7"/>
          <path id="Tracciato_60477" data-name="Tracciato 60477" d="M575.578,241.276s12.191,24.647,3.843,49.179-26.438,17.213-26.438,17.213-18.8-5.235-10.449-29.766,33.044-36.625,33.044-36.625" transform="translate(-110.381 6.488)" fill="#d6e6f7"/>
          <path id="Tracciato_60478" data-name="Tracciato 60478" d="M570.352,182.742s-17.934,43.8-5.785,93.462,38.663,40.941,38.663,40.941,27.545-4.5,15.4-54.165-48.276-80.238-48.276-80.238" transform="translate(-170.244 4.914)" fill="#d6e6f7"/>
          <path id="Tracciato_60479" data-name="Tracciato 60479" d="M755.781,348.709a9.917,9.917,0,0,0,4.948-9.265,9.5,9.5,0,0,0-6.627-7.834c-2.015-.584-4.166-.47-6.224-.875s-4.208-1.556-4.8-3.569c-.759-2.6,1.39-5.4.624-8-.771-2.617-4.168-3.572-6.805-2.875s-4.81,2.512-7.208,3.813a19.905,19.905,0,0,1-9.391,2.4c-2.666.009-5.338-.519-7.984-.2s-5.42,1.774-6.192,4.325c-.641,2.117.186,4.632-1.029,6.48-1.24,1.888-3.92,2.067-5.808,3.309a5.91,5.91,0,0,0-1.517,8.026Z" transform="translate(-449.438 8.499)" fill="#d6e6f7"/>
          <path id="Tracciato_60480" data-name="Tracciato 60480" d="M485.243,281.285a11.979,11.979,0,0,0,5.141-11.6,11.475,11.475,0,0,0-8.675-8.85c-2.478-.526-5.058-.2-7.573-.5s-5.206-1.5-6.093-3.877c-1.144-3.064,1.2-6.623.044-9.685-1.159-3.084-5.336-3.934-8.45-2.861s-5.572,3.45-8.343,5.23a24.084,24.084,0,0,1-11.1,3.724c-3.21.246-6.475-.153-9.634.465s-6.371,2.616-7.076,5.758c-.584,2.606.635,5.562-.665,7.895-1.328,2.384-4.539,2.836-6.7,4.5a7.139,7.139,0,0,0-1.118,9.8Z" transform="translate(111.679 6.547)" fill="#d6e6f7"/>
          <rect id="Rettangolo_146203" data-name="Rettangolo 146203" width="10.747" height="126.639" transform="translate(332.328 328.924)" fill="#b2d6f9"/>
          <rect id="Rettangolo_146204" data-name="Rettangolo 146204" width="10.748" height="126.639" transform="translate(586.514 328.924)" fill="#b2d6f9"/>
          <rect id="Rettangolo_146205" data-name="Rettangolo 146205" width="319.142" height="12.15" transform="translate(305.224 420.514)" fill="#9fc6f2"/>
          <path id="Tracciato_60481" data-name="Tracciato 60481" d="M402.658,400.961H700.45a10.675,10.675,0,0,0,0-21.349H402.658a10.675,10.675,0,1,0,0,21.349" transform="translate(-86.759 10.207)" fill="#9fc6f2"/>
          <path id="Tracciato_60482" data-name="Tracciato 60482" d="M402.658,374.268H700.45a10.675,10.675,0,0,0,0-21.349H402.658a10.675,10.675,0,0,0,0,21.349" transform="translate(-86.759 9.49)" fill="#9fc6f2"/>
          <path id="Tracciato_60483" data-name="Tracciato 60483" d="M402.658,347.575H700.45a10.674,10.674,0,1,0,0-21.349H402.658a10.674,10.674,0,1,0,0,21.349" transform="translate(-86.759 8.772)" fill="#9fc6f2"/>
          <path id="Tracciato_60484" data-name="Tracciato 60484" d="M400.715,336.708a3.33,3.33,0,1,0,3.329-3.329,3.329,3.329,0,0,0-3.329,3.329" transform="translate(208.025 8.964)" fill="#b2d6f9"/>
          <path id="Tracciato_60485" data-name="Tracciato 60485" d="M687.552,336.708a3.33,3.33,0,1,0,3.329-3.329,3.329,3.329,0,0,0-3.329,3.329" transform="translate(-373.362 8.964)" fill="#b2d6f9"/>
          <path id="Tracciato_60486" data-name="Tracciato 60486" d="M400.715,363.4a3.33,3.33,0,1,0,3.329-3.329,3.329,3.329,0,0,0-3.329,3.329" transform="translate(208.025 9.682)" fill="#b2d6f9"/>
          <path id="Tracciato_60487" data-name="Tracciato 60487" d="M687.552,363.4a3.33,3.33,0,1,0,3.329-3.329,3.329,3.329,0,0,0-3.329,3.329" transform="translate(-373.362 9.682)" fill="#b2d6f9"/>
          <path id="Tracciato_60488" data-name="Tracciato 60488" d="M400.715,390.094a3.33,3.33,0,1,0,3.329-3.329,3.329,3.329,0,0,0-3.329,3.329" transform="translate(208.025 10.4)" fill="#b2d6f9"/>
          <path id="Tracciato_60489" data-name="Tracciato 60489" d="M687.552,390.094a3.33,3.33,0,1,0,3.329-3.329,3.329,3.329,0,0,0-3.329,3.329" transform="translate(-373.362 10.4)" fill="#b2d6f9"/>
          <path id="Tracciato_60490" data-name="Tracciato 60490" d="M303.294,445.38H343.88a9.7,9.7,0,0,0,9.658-8.8l5.409-57.871H288.228l5.409,57.871a9.7,9.7,0,0,0,9.658,8.8" transform="translate(371.964 10.183)" fill="#9fc6f2"/>
          <path id="Tracciato_60491" data-name="Tracciato 60491" d="M288.523,381.98h70.407a5.452,5.452,0,0,0,5.452-5.452v-4.2a5.452,5.452,0,0,0-5.452-5.452H288.523a5.452,5.452,0,0,0-5.452,5.452v4.2a5.452,5.452,0,0,0,5.452,5.452" transform="translate(371.826 9.865)" fill="#b2d6f9"/>
          <path id="Tracciato_60492" data-name="Tracciato 60492" d="M196.644,443.887h49.144v-.222a9.43,9.43,0,0,0-9.43-9.43H206.073a9.43,9.43,0,0,0-9.429,9.43Z" transform="translate(579.17 11.676)" fill="#9fc6f2"/>
          <path id="Tracciato_60493" data-name="Tracciato 60493" d="M212.469,376.223h15.279a3.109,3.109,0,0,1,3.106,2.975l2.534,58.926H208.095l1.266-58.859a3.108,3.108,0,0,1,3.107-3.042" transform="translate(579.811 10.116)" fill="#9fc6f2"/>
          <path id="Tracciato_60494" data-name="Tracciato 60494" d="M212.089,377.6h17.539a2.129,2.129,0,0,0,2.13-2.13V357.936a2.13,2.13,0,0,0-2.13-2.13H212.089a2.13,2.13,0,0,0-2.13,2.13v17.539a2.13,2.13,0,0,0,2.13,2.13" transform="translate(579.527 9.567)" fill="#9fc6f2"/>
          <rect id="Rettangolo_146206" data-name="Rettangolo 146206" width="6.369" height="181.038" transform="translate(797.201 184.495)" fill="#9fc6f2"/>
          <path id="Tracciato_60495" data-name="Tracciato 60495" d="M207.336,184.087H234.57a3.994,3.994,0,1,0,0-7.987H207.336a3.994,3.994,0,1,0,0,7.987" transform="translate(579.516 4.735)" fill="#9fc6f2"/>
          <path id="Tracciato_60496" data-name="Tracciato 60496" d="M207.719,177.19h26.624l4.215-41.656H203.5Z" transform="translate(579.354 3.644)" fill="#d6e6f7"/>
          <path id="Tracciato_60497" data-name="Tracciato 60497" d="M201.395,137.742H241a3.994,3.994,0,0,0,0-7.987h-39.6a3.994,3.994,0,0,0,0,7.987" transform="translate(579.189 3.489)" fill="#9fc6f2"/>
          <path id="Tracciato_60498" data-name="Tracciato 60498" d="M216.6,116.761h8.154v-4.077a4.077,4.077,0,1,0-8.154,0Z" transform="translate(579.706 2.92)" fill="#9fc6f2"/>
          <path id="Tracciato_60499" data-name="Tracciato 60499" d="M199.831,131.158h42.932v-4.493a11.981,11.981,0,0,0-11.982-11.981H211.813a11.982,11.982,0,0,0-11.982,11.981Z" transform="translate(578.922 3.084)" fill="#9fc6f2"/>
          <rect id="Rettangolo_146208" data-name="Rettangolo 146208" width="11.004" height="1.722" transform="translate(917.756 92.28) rotate(-103.381)" fill="#ff847e"/>
          <rect id="Rettangolo_146209" data-name="Rettangolo 146209" width="1.722" height="11.004" transform="translate(912.166 88.839) rotate(-103.381)" fill="#ff847e"/>
          <rect id="Rettangolo_146210" data-name="Rettangolo 146210" width="17.054" height="2.668" transform="matrix(-0.231, -0.973, 0.973, -0.231, 242.013, 168.376)" fill="#ffdd38"/>
          <rect id="Rettangolo_146211" data-name="Rettangolo 146211" width="2.668" height="17.054" transform="matrix(-0.232, -0.973, 0.973, -0.232, 233.352, 163.046)" fill="#ffdd38"/>
          <rect id="Rettangolo_146212" data-name="Rettangolo 146212" width="12.387" height="1.938" transform="translate(505.429 52.015) rotate(-143)" fill="#ffe627"/>
          <rect id="Rettangolo_146219" data-name="Rettangolo 146219" width="12.387" height="1.938" transform="translate(100.834 260.049) rotate(-143)" fill="#ffe627"/>
          <rect id="Rettangolo_146221" data-name="Rettangolo 146221" width="12.387" height="1.938" transform="translate(545.477 197.687) rotate(-143)" fill="#ffe627"/>
          <rect id="Rettangolo_146213" data-name="Rettangolo 146213" width="1.938" height="12.388" transform="matrix(-0.799, -0.602, 0.602, -0.799, 498.111, 53.044)" fill="#ffe627"/>
          <rect id="Rettangolo_146220" data-name="Rettangolo 146220" width="1.938" height="12.388" transform="matrix(-0.799, -0.602, 0.602, -0.799, 93.517, 261.078)" fill="#ffe627"/>
          <rect id="Rettangolo_146222" data-name="Rettangolo 146222" width="1.938" height="12.388" transform="matrix(-0.799, -0.602, 0.602, -0.799, 538.16, 198.716)" fill="#ffe627"/>
          <path id="Tracciato_60508" data-name="Tracciato 60508" d="M51.317,165.328a51.208,51.208,0,0,1,17.267,2.986v96.66a51.319,51.319,0,1,1-17.267-99.646" transform="translate(958.305 4.445)" fill="#b2d6f9"/>
          <path id="Tracciato_60509" data-name="Tracciato 60509" d="M3.1,170.368l-3.1-3.1q.957.276,1.9.583l1.2,1.2Z" transform="translate(1023.792 4.498)" fill="#fff"/>
          <path id="Tracciato_60510" data-name="Tracciato 60510" d="M9.45,166.15c-.528-.1-1.055-.193-1.588-.272Z" transform="translate(1009.366 4.46)" fill="#fff"/>
          <path id="Tracciato_60511" data-name="Tracciato 60511" d="M9.661,175.531,0,165.877c.533.079,1.06.178,1.588.273l8.073,8.066Z" transform="translate(1017.228 4.46)" fill="#fff"/>
          <path id="Tracciato_60512" data-name="Tracciato 60512" d="M14.941,165.447c-.46-.029-.922-.053-1.385-.07Z" transform="translate(998.028 4.447)" fill="#fff"/>
          <path id="Tracciato_60513" data-name="Tracciato 60513" d="M15.306,180.67,0,165.377c.463.016.925.041,1.386.07l13.919,13.909Z" transform="translate(1011.584 4.447)" fill="#fff"/>
          <path id="Tracciato_60514" data-name="Tracciato 60514" d="M19.882,165.374c-.421.014-.841.031-1.259.055Z" transform="translate(987.884 4.447)" fill="#fff"/>
          <path id="Tracciato_60515" data-name="Tracciato 60515" d="M20.382,185.8,0,165.429c.418-.026.838-.041,1.258-.055l19.124,19.108Z" transform="translate(1006.508 4.447)" fill="#fff"/>
          <path id="Tracciato_60516" data-name="Tracciato 60516" d="M24.4,165.753c-.388.05-.78.09-1.167.148Z" transform="translate(978.622 4.457)" fill="#fff"/>
          <path id="Tracciato_60517" data-name="Tracciato 60517" d="M25.029,190.911,0,165.9c.386-.059.777-.1,1.167-.148L25.029,189.6Z" transform="translate(1001.86 4.457)" fill="#fff"/>
          <path id="Tracciato_60518" data-name="Tracciato 60518" d="M28.569,166.486c-.357.077-.714.16-1.068.246Z" transform="translate(970.08 4.477)" fill="#fff"/>
          <path id="Tracciato_60519" data-name="Tracciato 60519" d="M29.308,196.017,0,166.731c.355-.086.711-.169,1.068-.246L29.308,194.7Z" transform="translate(997.581 4.477)" fill="#fff"/>
          <path id="Tracciato_60520" data-name="Tracciato 60520" d="M32.456,167.515c-.333.1-.661.215-.991.324Z" transform="translate(962.122 4.504)" fill="#fff"/>
          <path id="Tracciato_60521" data-name="Tracciato 60521" d="M33.3,201.116,0,167.839c.33-.11.658-.223.991-.324L33.3,199.8Z" transform="translate(993.587 4.504)" fill="#fff"/>
          <path id="Tracciato_60522" data-name="Tracciato 60522" d="M36.1,168.818c-.314.124-.632.242-.943.372Z" transform="translate(954.687 4.539)" fill="#fff"/>
          <path id="Tracciato_60523" data-name="Tracciato 60523" d="M37.045,206.206,0,169.19c.311-.129.628-.247.943-.372l36.1,36.075Z" transform="translate(989.844 4.539)" fill="#fff"/>
          <path id="Tracciato_60524" data-name="Tracciato 60524" d="M39.5,170.334c-.294.143-.579.3-.869.446Z" transform="translate(947.714 4.58)" fill="#fff"/>
          <path id="Tracciato_60525" data-name="Tracciato 60525" d="M40.542,211.29,0,170.78c.29-.149.576-.3.869-.447l39.673,39.643Z" transform="translate(986.348 4.58)" fill="#fff"/>
          <path id="Tracciato_60526" data-name="Tracciato 60526" d="M42.719,172.078c-.277.161-.561.313-.835.479Z" transform="translate(941.16 4.627)" fill="#fff"/>
          <path id="Tracciato_60527" data-name="Tracciato 60527" d="M43.845,216.369,0,172.558c.274-.166.558-.318.835-.48l43.01,42.977Z" transform="translate(983.044 4.627)" fill="#fff"/>
          <path id="Tracciato_60528" data-name="Tracciato 60528" d="M45.721,174c-.26.178-.512.363-.768.546Z" transform="translate(935.007 4.679)" fill="#fff"/>
          <path id="Tracciato_60529" data-name="Tracciato 60529" d="M46.93,221.442,0,174.549c.256-.183.508-.37.768-.546L46.93,220.129Z" transform="translate(979.96 4.679)" fill="#fff"/>
          <path id="Tracciato_60530" data-name="Tracciato 60530" d="M48.559,176.127c-.244.193-.495.38-.736.578Z" transform="translate(929.221 4.736)" fill="#fff"/>
          <path id="Tracciato_60531" data-name="Tracciato 60531" d="M49.844,226.512,0,176.706c.24-.2.491-.385.735-.578L49.844,225.2Z" transform="translate(977.045 4.736)" fill="#fff"/>
          <path id="Tracciato_60532" data-name="Tracciato 60532" d="M51.2,178.415c-.229.211-.448.428-.673.642Z" transform="translate(923.804 4.797)" fill="#fff"/>
          <path id="Tracciato_60533" data-name="Tracciato 60533" d="M52.558,231.575,0,179.057c.225-.214.444-.431.673-.642l51.886,51.847Z" transform="translate(974.331 4.797)" fill="#fff"/>
          <path id="Tracciato_60534" data-name="Tracciato 60534" d="M53.682,180.9c-.214.226-.432.446-.642.674Z" transform="translate(918.741 4.864)" fill="#fff"/>
          <path id="Tracciato_60535" data-name="Tracciato 60535" d="M55.107,236.634,0,181.569c.209-.228.428-.447.641-.672l54.466,54.424Z" transform="translate(971.782 4.864)" fill="#fff"/>
          <path id="Tracciato_60536" data-name="Tracciato 60536" d="M55.972,183.535c-.2.24-.384.492-.578.737Z" transform="translate(914.034 4.935)" fill="#fff"/>
          <path id="Tracciato_60537" data-name="Tracciato 60537" d="M57.462,241.689,0,184.272c.194-.244.38-.5.578-.737l56.884,56.84Z" transform="translate(969.428 4.935)" fill="#fff"/>
          <path id="Tracciato_60538" data-name="Tracciato 60538" d="M58.1,186.372c-.182.257-.369.508-.546.768Z" transform="translate(909.696 5.011)" fill="#fff"/>
          <path id="Tracciato_60539" data-name="Tracciato 60539" d="M59.644,246.738,0,187.14c.178-.261.364-.512.546-.769l59.1,59.052Z" transform="translate(967.246 5.011)" fill="#fff"/>
          <path id="Tracciato_60540" data-name="Tracciato 60540" d="M60.024,189.372c-.166.274-.319.557-.481.834Z" transform="translate(905.722 5.092)" fill="#fff"/>
          <path id="Tracciato_60541" data-name="Tracciato 60541" d="M61.625,251.783,0,190.206c.161-.276.314-.56.481-.834l61.144,61.1Z" transform="translate(965.265 5.092)" fill="#fff"/>
          <path id="Tracciato_60542" data-name="Tracciato 60542" d="M61.767,192.585c-.148.29-.3.577-.445.869Z" transform="translate(902.152 5.178)" fill="#fff"/>
          <path id="Tracciato_60543" data-name="Tracciato 60543" d="M63.417,256.822,0,193.455c.143-.293.3-.579.446-.87l62.971,62.924Z" transform="translate(963.473 5.178)" fill="#fff"/>
          <path id="Tracciato_60544" data-name="Tracciato 60544" d="M63.287,195.986c-.13.311-.247.628-.372.942Z" transform="translate(898.996 5.27)" fill="#fff"/>
          <path id="Tracciato_60545" data-name="Tracciato 60545" d="M64.978,261.856,0,196.928c.125-.313.241-.631.372-.942l64.607,64.556Z" transform="translate(961.911 5.27)" fill="#fff"/>
          <path id="Tracciato_60546" data-name="Tracciato 60546" d="M64.592,199.627c-.109.33-.224.655-.326.988Z" transform="translate(896.304 5.368)" fill="#fff"/>
          <path id="Tracciato_60547" data-name="Tracciato 60547" d="M1.431,199.627,66.29,264.436c-.33.109-.655.225-.987.329l-64.2-64.15c.1-.333.217-.658.326-.988" transform="translate(959.465 5.368)" fill="#fff"/>
          <path id="Tracciato_60548" data-name="Tracciato 60548" d="M4.987,264.1q.536-.117,1.068-.246Z" transform="translate(1015.713 7.095)" fill="#fff"/>
          <path id="Tracciato_60549" data-name="Tracciato 60549" d="M65.622,203.51c-.085.353-.168.709-.246,1.066Z" transform="translate(894.133 5.472)" fill="#fff"/>
          <path id="Tracciato_60550" data-name="Tracciato 60550" d="M5.233,203.51l62.013,61.965q-.531.129-1.068.246L4.987,204.576c.078-.357.161-.713.246-1.066" transform="translate(954.522 5.472)" fill="#fff"/>
          <path id="Tracciato_60551" data-name="Tracciato 60551" d="M9.146,264.838c.389-.05.779-.091,1.164-.151Z" transform="translate(1007.187 7.117)" fill="#fff"/>
          <path id="Tracciato_60552" data-name="Tracciato 60552" d="M66.357,207.669c-.059.385-.1.776-.149,1.166Z" transform="translate(892.544 5.584)" fill="#fff"/>
          <path id="Tracciato_60553" data-name="Tracciato 60553" d="M9.295,207.669l58.6,58.552c-.385.06-.776.1-1.163.15L9.146,208.835c.05-.389.09-.78.149-1.166" transform="translate(949.606 5.584)" fill="#fff"/>
          <path id="Tracciato_60554" data-name="Tracciato 60554" d="M13.664,265.226q.628-.023,1.253-.062Z" transform="translate(997.941 7.13)" fill="#fff"/>
          <path id="Tracciato_60555" data-name="Tracciato 60555" d="M66.742,212.187c-.026.417-.044.835-.06,1.254Z" transform="translate(891.673 5.705)" fill="#fff"/>
          <path id="Tracciato_60556" data-name="Tracciato 60556" d="M13.724,212.187l54.444,54.4c-.417.027-.834.046-1.253.063l-53.25-53.21c.015-.419.034-.837.06-1.254" transform="translate(944.691 5.705)" fill="#fff"/>
          <path id="Tracciato_60557" data-name="Tracciato 60557" d="M18.595,265.166c.458.028.917.047,1.378.064Z" transform="translate(987.821 7.13)" fill="#fff"/>
          <path id="Tracciato_60558" data-name="Tracciato 60558" d="M66.678,217.118c.016.462.037.921.066,1.38Z" transform="translate(891.675 5.838)" fill="#fff"/>
          <path id="Tracciato_60559" data-name="Tracciato 60559" d="M18.595,217.118l49.442,49.4q-.692-.023-1.378-.064l-48-47.96c-.029-.459-.049-.918-.066-1.38" transform="translate(939.758 5.838)" fill="#fff"/>
          <path id="Tracciato_60560" data-name="Tracciato 60560" d="M24.077,264.485c.525.093,1.048.187,1.578.263Z" transform="translate(976.51 7.112)" fill="#fff"/>
          <path id="Tracciato_60561" data-name="Tracciato 60561" d="M65.994,222.6c.078.529.171,1.055.265,1.578Z" transform="translate(892.862 5.986)" fill="#fff"/>
          <path id="Tracciato_60562" data-name="Tracciato 60562" d="M24.077,222.6l43.309,43.274c-.53-.076-1.055-.169-1.578-.263L24.342,224.178c-.093-.524-.187-1.049-.265-1.578" transform="translate(934.779 5.986)" fill="#fff"/>
          <path id="Tracciato_60563" data-name="Tracciato 60563" d="M64.328,228.959c.18.633.368,1.261.57,1.884Z" transform="translate(895.934 6.156)" fill="#fff"/>
          <path id="Tracciato_60564" data-name="Tracciato 60564" d="M30.436,262.826c.622.2,1.251.389,1.883.568Z" transform="translate(963.316 7.067)" fill="#fff"/>
          <path id="Tracciato_60565" data-name="Tracciato 60565" d="M30.437,228.959,65.809,264.3c-.633-.178-1.261-.365-1.883-.567L31.007,230.843c-.2-.623-.39-1.252-.57-1.884" transform="translate(929.825 6.156)" fill="#fff"/>
          <path id="Tracciato_60566" data-name="Tracciato 60566" d="M38.456,258.948c.907.506,1.824,1,2.762,1.446Z" transform="translate(946.181 6.963)" fill="#fff"/>
          <path id="Tracciato_60567" data-name="Tracciato 60567" d="M60.443,236.975c.453.94.943,1.858,1.45,2.763Z" transform="translate(902.928 6.372)" fill="#fff"/>
          <path id="Tracciato_60568" data-name="Tracciato 60568" d="M38.456,236.975l24.028,24.01c-.939-.451-1.856-.939-2.761-1.446l-19.817-19.8c-.507-.906-1-1.824-1.45-2.763" transform="translate(924.915 6.372)" fill="#fff"/>
          <path id="Tracciato_60569" data-name="Tracciato 60569" d="M683,110.521a8.919,8.919,0,1,0-8.919-8.919A8.929,8.929,0,0,0,683,110.521m0-16.81a7.892,7.892,0,1,1-7.892,7.892A7.9,7.9,0,0,1,683,93.711" transform="translate(-357.231 2.492)" fill="#5cc5e5"/>
          <path id="Tracciato_60570" data-name="Tracciato 60570" d="M874.5,274.216a5.972,5.972,0,1,0-5.972-5.972,5.979,5.979,0,0,0,5.972,5.972m0-9.891a3.919,3.919,0,1,1-3.919,3.919,3.923,3.923,0,0,1,3.919-3.919" transform="translate(-745.467 7.052)" fill="#5cc5e5"/>
          <path id="Tracciato_60571" data-name="Tracciato 60571" d="M150.657,263.2a9.432,9.432,0,1,0-9.432-9.432,9.442,9.442,0,0,0,9.432,9.432m0-16.81a7.378,7.378,0,1,1-7.378,7.378,7.386,7.386,0,0,1,7.378-7.378" transform="translate(721.778 6.57)" fill="#4673ae"/>
          <g id="Raggruppa_9216" data-name="Raggruppa 9216" transform="translate(62.241 469.87)" opacity="0.4">
            <g id="Raggruppa_9215" data-name="Raggruppa 9215">
              <g id="Raggruppa_9214" data-name="Raggruppa 9214" clip-path="url(#clip-path-3)">
                <path id="Tracciato_60572" data-name="Tracciato 60572" d="M943.5,460.947c0,1.867-35.121,3.38-78.445,3.38s-78.444-1.514-78.444-3.38,35.121-3.381,78.444-3.381,78.445,1.514,78.445,3.381" transform="translate(-786.608 -457.566)" fill="#5c9ce5"/>
              </g>
            </g>
          </g>
        </g>
      </g>
    </g>
    <g id="Raggruppa_9218" data-name="Raggruppa 9218" transform="translate(1072.998 937.121)">
      <g id="Raggruppa_9224" data-name="Raggruppa 9224" transform="translate(0 0)" clip-path="url(#clip-path-4)">
        <g id="Raggruppa_9223" data-name="Raggruppa 9223" transform="translate(0 0.001)">
          <g id="Raggruppa_9222" data-name="Raggruppa 9222" clip-path="url(#clip-path-5)">
            <g id="Raggruppa_9221" data-name="Raggruppa 9221" transform="translate(0 -0.001)" opacity="0.4">
              <g id="Raggruppa_9220" data-name="Raggruppa 9220" transform="translate(0 0)">
                <g id="Raggruppa_9219" data-name="Raggruppa 9219" clip-path="url(#clip-path-4)">
                  <path id="Tracciato_60573" data-name="Tracciato 60573" d="M0,13.939c0,7.7,32.145,13.939,71.8,13.939s71.8-6.241,71.8-13.939S111.448,0,71.8,0,0,6.241,0,13.939" transform="translate(0 0)" fill="#c6ddf7"/>
                </g>
              </g>
            </g>
          </g>
        </g>
      </g>
    </g>
    <g id="Raggruppa_9219-2" data-name="Raggruppa 9219" transform="translate(1189.225 943.12)">
      <g id="Raggruppa_9224-2" data-name="Raggruppa 9224" clip-path="url(#clip-path-4)">
        <g id="Raggruppa_9223-2" data-name="Raggruppa 9223" transform="translate(0 0.001)">
          <g id="Raggruppa_9222-2" data-name="Raggruppa 9222" clip-path="url(#clip-path-5)">
            <g id="Raggruppa_9221-2" data-name="Raggruppa 9221" transform="translate(0 -0.001)" opacity="0.4">
              <g id="Raggruppa_9220-2" data-name="Raggruppa 9220" transform="translate(0 0)">
                <g id="Raggruppa_9219-3" data-name="Raggruppa 9219" clip-path="url(#clip-path-4)">
                  <path id="Tracciato_60573-2" data-name="Tracciato 60573" d="M0,13.939c0,7.7,32.145,13.939,71.8,13.939s71.8-6.241,71.8-13.939S111.448,0,71.8,0,0,6.241,0,13.939" transform="translate(0 0)" fill="#c6ddf7"/>
                </g>
              </g>
            </g>
          </g>
        </g>
      </g>
    </g>
    <g id="Raggruppa_9220-3" data-name="Raggruppa 9220" transform="translate(1082.722 572.095)">
      <g id="Raggruppa_9210" data-name="Raggruppa 9210" transform="translate(0 0)" clip-path="url(#clip-path-10)">
        <path id="Tracciato_60396" data-name="Tracciato 60396" d="M87.045,1690.687a44.929,44.929,0,0,1-3.653,8.042c-1.5,2.5-5.13,6.691-5.52,7.685-1.943,4.944,2.387,6.2,4.5,6.767,4.373,1.179,11.143.219,13.938-1.807a12.428,12.428,0,0,0,4.838-6.079c1.016-3.271,1.867-4.055,1.867-4.055l.852.5,3.777-3.555.089-2.562s.851-.639.74-2.887c-.124-2.48-.341-2.691-.341-2.691Z" transform="translate(-60.96 -1331.388)" fill="#ccc"/>
        <path id="Tracciato_60397" data-name="Tracciato 60397" d="M85.039,1752.649a9.845,9.845,0,0,1,1.927-1.859c1.814-1.5,7.617-4.627,8.5-4.568s-6.407-.535-7.736-.517c-.64.007-2.1,2.094-3,3.229-.972,1.223-.972,2.789-.534,3.105Z" transform="translate(-66.105 -1375.235)" fill="#fff"/>
        <path id="Tracciato_60398" data-name="Tracciato 60398" d="M121.694,1766.117s7.486-1.046,12.1-6.477l-.127,1.892a12.393,12.393,0,0,1-11.975,4.585" transform="translate(-95.868 -1386.213)" fill="gray"/>
        <path id="Tracciato_60399" data-name="Tracciato 60399" d="M98.21,1770.264s6.848-6,11.978-1.3c0,0-3.609,3.44-11.978,1.3" transform="translate(-77.368 -1392.142)" fill="#fff"/>
        <path id="Tracciato_60400" data-name="Tracciato 60400" d="M175.506,1731.89a36.782,36.782,0,0,0-1.922,4.882c-.966,3.488-1.764,4.154-3.709,5.883a11.611,11.611,0,0,0,3.226-6.617c.659-4.362,2.4-4.149,2.4-4.149" transform="translate(-133.825 -1364.351)" fill="#999"/>
        <path id="Tracciato_60401" data-name="Tracciato 60401" d="M100.829,1782.763c-.02.274-.656.454-1.424.4s-1.373-.315-1.355-.589.656-.455,1.422-.4,1.374.315,1.356.59" transform="translate(-77.242 -1403.958)" fill="#b3b3b3"/>
        <path id="Tracciato_60402" data-name="Tracciato 60402" d="M122.783,1725.748s6.031-.791,7.352,1.291c0,0-2.615-3.417-7.352-1.291" transform="translate(-96.726 -1358.964)" fill="#4d4d4d"/>
        <path id="Tracciato_60403" data-name="Tracciato 60403" d="M197.846,1718.075l5.083-4.729-.229,3.678-5.073,4.586.121-1.947Z" transform="translate(-155.687 -1349.744)" fill="#999"/>
        <path id="Tracciato_60404" data-name="Tracciato 60404" d="M77.347,1779.836s-1.174,1.7-.256,2.562,2.5,1.429,6.111,1.673c5.929.4,13.184.614,15.494-6.034,0,0-2.761,4.7-13.013,4.209-7.78-.373-8.337-2.409-8.337-2.409" transform="translate(-60.455 -1400.706)" fill="#999"/>
        <path id="Tracciato_60405" data-name="Tracciato 60405" d="M192.565,1745.22l1.153.078.125-1.852s-.8.229-1.279,1.774" transform="translate(-151.699 -1373.456)" fill="#333"/>
        <path id="Tracciato_60406" data-name="Tracciato 60406" d="M86.428,1779.373s-.278,1.164,1.287,1.607,8.824,2.4,15.768-1.721c0,0-2.116,2.681-7.248,2.934s-10.546-.71-10.664-2.429.857-.391.857-.391" transform="translate(-67.404 -1401.373)" fill="#4d4d4d"/>
        <path id="Tracciato_60407" data-name="Tracciato 60407" d="M101.157,1796.558c-.018.274-.655.454-1.422.4s-1.374-.315-1.354-.588.654-.455,1.421-.4,1.375.315,1.356.59" transform="translate(-77.502 -1414.824)" fill="gray"/>
        <path id="Tracciato_60408" data-name="Tracciato 60408" d="M351.717,1707.185a44.907,44.907,0,0,0,3.967,7.9c1.6,2.435,5.391,6.485,5.82,7.465,2.136,4.863-2.141,6.286-4.233,6.94-4.324,1.352-11.127.659-14-1.256a12.408,12.408,0,0,1-5.074-5.883c-1.145-3.226-2.026-3.976-2.026-3.976l-.831.532-3.915-3.4-.189-2.558a5.69,5.69,0,0,1-1.2-2.825c-.034-2.484.2-2.231.2-2.231Z" transform="translate(-259.997 -1344.89)" fill="#ccc"/>
        <path id="Tracciato_60409" data-name="Tracciato 60409" d="M429.343,1765.837a9.819,9.819,0,0,0-2-1.784c-1.873-1.432-7.795-4.323-8.673-4.228s6.381-.786,7.71-.823c.64-.017,2.179,2.011,3.125,3.108,1.02,1.185,1.081,2.748.657,3.083Z" transform="translate(-329.764 -1385.711)" fill="#fff"/>
        <path id="Tracciato_60410" data-name="Tracciato 60410" d="M391.854,1781.911s-7.639-.737-12.349-5.994l.2,1.884a12.392,12.392,0,0,0,12.146,4.109" transform="translate(-298.967 -1399.036)" fill="gray"/>
        <path id="Tracciato_60411" data-name="Tracciato 60411" d="M415.761,1784.469s-7.078-5.728-12.018-.823c0,0,3.742,3.293,12.018.823" transform="translate(-318.062 -1403.561)" fill="#fff"/>
        <path id="Tracciato_60412" data-name="Tracciato 60412" d="M360.288,1748.922a36.745,36.745,0,0,1,2.115,4.8c1.1,3.447,1.925,4.081,3.937,5.732a11.6,11.6,0,0,1-3.485-6.484c-.831-4.332-2.567-4.05-2.567-4.05" transform="translate(-283.828 -1377.767)" fill="#999"/>
        <path id="Tracciato_60413" data-name="Tracciato 60413" d="M447.577,1796.153c.029.273.674.427,1.437.345s1.361-.37,1.331-.642-.673-.427-1.437-.345-1.361.369-1.331.642" transform="translate(-352.593 -1414.454)" fill="#b3b3b3"/>
        <path id="Tracciato_60414" data-name="Tracciato 60414" d="M406.636,1740.307s-6.058-.551-7.3,1.581c0,0,2.477-3.518,7.3-1.581" transform="translate(-314.593 -1370.524)" fill="gray"/>
        <path id="Tracciato_60415" data-name="Tracciato 60415" d="M338.639,1735.962l-5.265-4.524.373,3.665,5.25,4.383-.2-1.941Z" transform="translate(-262.626 -1363.996)" fill="#999"/>
        <path id="Tracciato_60416" data-name="Tracciato 60416" d="M399.7,1795.357s1.24,1.656.356,2.551-2.445,1.526-6.04,1.913c-5.909.634-13.15,1.133-15.721-5.418,0,0,2.946,4.587,13.17,3.691,7.76-.679,8.236-2.737,8.236-2.737" transform="translate(-298.017 -1413.599)" fill="#999"/>
        <path id="Tracciato_60417" data-name="Tracciato 60417" d="M360.266,1762.251l-1.054.114-.2-1.846s.709.208,1.252,1.732" transform="translate(-282.825 -1386.906)" fill="#333"/>
        <path id="Tracciato_60418" data-name="Tracciato 60418" d="M405.642,1792.07s.324,1.153-1.222,1.658-8.723,2.74-15.823-1.1c0,0,2.22,2.6,7.356,2.645s10.511-1.125,10.56-2.847-.872-.357-.872-.357" transform="translate(-306.13 -1411.357)" fill="#4d4d4d"/>
        <path id="Tracciato_60419" data-name="Tracciato 60419" d="M447.8,1809.948c.03.273.672.427,1.436.345s1.361-.37,1.331-.643-.673-.427-1.437-.345-1.361.369-1.33.643" transform="translate(-352.77 -1425.322)" fill="gray"/>
        <path id="Tracciato_60420" data-name="Tracciato 60420" d="M283.974,1058.456l-36.266-1.368,15.98,137.962s3.68,5.776,13.919,6.289c18.653.936,12.516-9.528,12.516-9.528Z" transform="translate(-195.14 -832.754)" fill="#70ceef" fill-rule="evenodd"/>
        <path id="Tracciato_60421" data-name="Tracciato 60421" d="M90.587,1086.843l4.079,128.051s-7.44,10.947,9.994,6.787c11.442-2.73,14.082-6.569,14.082-6.569l10.594-127.747Z" transform="translate(-71.363 -856.196)" fill="#98dfff"/>
        <path id="Tracciato_60422" data-name="Tracciato 60422" d="M379.421,350.909s.22,13.189-.325,16.289c-1.205,6.856-.927,25.911.905,31.808.775,2.5,4.177,7.776,5.287,11.852,1.393,5.11,2,9.644,3.7,13.141,0,0,5.106,9.063,13.06,11.974,2.942,1.076,4.973,4.686,7.959,4.84s19.814,10.551,18.985,8.916c-3.192-6.294.8-15.819,5.854-15.877,0,0-8.615-6.7-10.8-8.191-1.787-1.216-3.264-1.552-4.762-3.11-.7-.731-1.616-2.446-2.581-3.127-1.326-.935-1.356.369-2.376-.748-.605-.661-1.143-2.007-1.9-2.48a8.783,8.783,0,0,0-2.324-.463,9.534,9.534,0,0,1-3.94-5.826c-.782-4.79-7.352-25.2-7.352-25.2s-5.943-20.607-19.381-33.795" transform="translate(-298.07 -276.44)" fill="#4bc5ef"/>
        <path id="Tracciato_60423" data-name="Tracciato 60423" d="M86.178,327.162s-.478.639,13.6,3.254c0,0,5.427,19.628,6.935,80.944l.886,77.277-4.816,1.349L74.9,489.191l-14.525-.317s-17.532,4.553-27.035.593l.925-82-3.394-22.958s2.08-36.336-7.479-47.441A122.357,122.357,0,0,0,47.163,325.1l.624-.2,33.19,19.675Z" transform="translate(-18.424 -255.946)" fill="#98dfff"/>
        <path id="Tracciato_60424" data-name="Tracciato 60424" d="M171.863,226.546c.266,2.2-6.525,13.981-4.229,16.317.374,3.877,6.872,5.547,6.8,5.752-1.151,4.61-4.835,18.1-4.835,18.1s-33.071-19.132-34.181-20.168c9.878-3.069,7.909-9.086,7.045-18.631,4.637-4.183,18.7-3.086,26.43.082.633.949,2.114-2.552,2.967-1.457" transform="translate(-106.682 -177.398)" fill="#f7ba9b" fill-rule="evenodd"/>
        <path id="Tracciato_60425" data-name="Tracciato 60425" d="M169.8,230.765l-.448,1.115s1.41,9.451,5.073,12.633,9.4,6.849,16.563,6.427a65.457,65.457,0,0,1,10.178.557s-4.781-2.071-5.6-3.7c-1.972-3.93,2.9-18.953,2.9-18.953Z" transform="translate(-133.415 -180.281)" fill="#9f5d45" fill-rule="evenodd"/>
        <path id="Tracciato_60426" data-name="Tracciato 60426" d="M140.839,127.45s-7.813-6.885-9.077-21.66a22.57,22.57,0,0,1,1.132-9.247,1.384,1.384,0,0,1,1.522-1.164Z" transform="translate(-103.729 -75.13)" fill="#102336"/>
        <path id="Tracciato_60427" data-name="Tracciato 60427" d="M186.185,31.147s2.392,11.652.893,18.627c-.532,2.469-.552,4.381-1.075,6.051-2.223,7.1-.694,13.382-8.55,13.954-4.524.329-15.745-1.407-23.956-9.825a14.058,14.058,0,0,1-3.623-7.532c-.778-6.4-1.752-23.548-1.734-25.8S146.286,9.935,166.284,9.238c19.337-.677,19.847,14.15,19.9,21.909" transform="translate(-116.67 -7.26)" fill="#f7ba9b"/>
        <path id="Tracciato_60428" data-name="Tracciato 60428" d="M161.312,72.676s2.22-7.172,2.741-8.237c1.411-2.891,5.533-6.451,9.172-8.055a23.228,23.228,0,0,1,16-.942c1.532.539,2.338,1.348,3.3,5.126,1.452,5.732.546,17.125.546,17.125s1.789-6.031.917-17.71c-.895-11.986-13.209-14.89-16.515-15.3s-17.845,3.393-19.472,8.587c-1.118,3.567-2.621,14.222-.362,18.583.3.576,3.68.82,3.68.82" transform="translate(-123.256 -35.179)" fill="#b77b67" fill-rule="evenodd"/>
        <path id="Tracciato_60429" data-name="Tracciato 60429" d="M136.354,124.236c-1.706-1.445-6.2.522-4.191,4.245,2.48,4.593,1.678,9.447,4.107,9.249s3.563-12.694.084-13.494" transform="translate(-103.716 -97.496)" fill="#f7ba9b" fill-rule="evenodd"/>
        <path id="Tracciato_60430" data-name="Tracciato 60430" d="M138.665,137.5a2.381,2.381,0,0,0-.029,2.443c.754,1.294.133,2.139-.62,1.135s-.782-2.519-1.743-3.9-1.713-3.982-.389-4.406a2.328,2.328,0,0,1,2.291.614s-1.608-.347-2.061.667a1.538,1.538,0,0,0,.516,1.759,1.839,1.839,0,0,1,.661-1.745s-.526,2.676-.212,3.022,1.329-2.7,1.585.411" transform="translate(-106.486 -104.516)" fill="#9e5e45" fill-rule="evenodd"/>
        <path id="Tracciato_60431" data-name="Tracciato 60431" d="M135.032,5.025c5.889-4.165,8.855-6.347,20.711-4.169,7.881,1.448,9.15,3.076,11.381,4.713,4.159,3.051,6.147,5.032,5.67,11.184-.208,2.69-.452,6.344-.452,6.344-.6-1.484-3.217-6.14-13.316-5.141-9.826.973-13.9,4.736-14.216,5-2.489,2.065-3.427,3.362-4.213,5.56-.888,2.483-1.189,8.121-1.189,8.121s-2.13.455-3.039-.411.2-3.694-.175-6.266c-.307-2.112-.062-2.434-2.164-3.543a.172.172,0,0,0-.071-.02l-.522-.1c-.087,0-.388-.012-.39-.1l-.273.076c0-.109-.363.037-.468.068-2.092.616-2.31-.845-2.31-.845-1.346-10.878-1.455-15.879,5.036-20.47" transform="translate(-101.829 0.002)" fill="#102336"/>
        <path id="Tracciato_60432" data-name="Tracciato 60432" d="M315.341,471.229l13.493-.493,1.517,9.481h-12.6Z" transform="translate(-248.42 -370.837)" fill="#fff"/>
        <path id="Tracciato_60433" data-name="Tracciato 60433" d="M65.2,576.251l1.074,40.236,6.964,1.72s11.472-9.376,10.724-32.227c-.918-28.061,32.068-6.476,32.068-6.476l-7.926-29.948S98.093,533.684,90.554,529.33s-17.131-29.664-16.346-34.916-2.232-10.826-4.449-7.036S65.2,576.251,65.2,576.251" transform="translate(-51.366 -382.966)" fill="#4bc5ef"/>
        <path id="Tracciato_60434" data-name="Tracciato 60434" d="M5.859,380.392s-3.731.5-3.9,2.732C1.729,386.1.933,390.183.933,390.183l.351,1.618s-3.38,11.84.828,20.45c0,0-.643,3.226,1.2,9.775.781,2.771-.5,8.2.606,12.721,1.386,5.668-.039,13.948,1.73,17.849,0,0,5.36,10.129,14.035,13.566,3.21,1.271,5.34,5.3,8.624,5.562s23.056,13.615,22.54,11.662c-1.771-6.7.828-16.163,6.4-16.079,0,0-10.673-10.155-13.039-11.86-1.933-1.391-3.55-1.8-5.155-3.563-.752-.825-1.708-2.741-2.751-3.519-1.434-1.069-1.5.366-2.6-.893-.647-.745-1.2-2.244-2.024-2.786a9.7,9.7,0,0,0-2.546-.577s-1-.925-.728-5.029c.233-3.525-3.9-17.853-3.9-17.853s-4.232-25.92-18.648-40.834" transform="translate(0 -299.666)" fill="#98dfff"/>
        <path id="Tracciato_60435" data-name="Tracciato 60435" d="M86.671,686.118s.37.95,1.846-.72,7.052-5.187,7.052-5.187-6.11,1.737-8.9,5.907" transform="translate(-68.278 -535.858)" fill="#29abe2"/>
        <path id="Tracciato_60436" data-name="Tracciato 60436" d="M60.089,681.944s.22,1,2.833-.624,11.608-4.877,11.608-4.877-9.174,1.4-14.441,5.5" transform="translate(-47.337 -532.89)" fill="#29abe2"/>
        <path id="Tracciato_60437" data-name="Tracciato 60437" d="M949.061,1646.305a9.738,9.738,0,0,1,5.81,4.312c1.523,2.828,2.479,4.212.173,8.388S947,1669.8,944.235,1672.5c-3.451,3.369-6.8,7.781-15.45,8.353-9.166.605-14.155-2.411-13-4.67s6.776-4.5,9.543-7.767,7.31-8.256,7.31-8.256-9.746,9.807-6.849,11.13c10.233,4.672,13.281-3.84,16.6-7.537,3.228-3.593,8.449-13.3,6.671-17.448" transform="translate(-721.309 -1296.93)" fill="#15596c"/>
        <path id="Tracciato_60438" data-name="Tracciato 60438" d="M604.637,1711.591s3.8,4.13,1.9,8.708-14.527,11.571-19.888,13.522-11.786,5.662-17.905,2.557c-5.038-2.557-1.825-7.674,3.018-9.634s12.7-7.5,12.7-7.5-11.73,7.007-10.238,11.267c1.018,2.906,16.418-3.645,20.4-8.194s6.211-9.484,10.016-10.726" transform="translate(-446.045 -1348.361)" fill="#15596c"/>
        <path id="Tracciato_60439" data-name="Tracciato 60439" d="M616.96,300.123c.089,1.947,7.693,11.179,6.041,13.539.239,3.417-5.1,6.228-5.016,6.4,1.668,3.831,5.2,14.812,5.2,14.812s27.479-21.631,28.292-22.691c-9.014-1.226-8.065-8.684-8.7-17.089-4.63-2.954-16.787,1.994-23.03,5.866-.411.915-2.2-1.907-2.785-.833" transform="translate(-486.03 -231.758)" fill="#f7ba9b" fill-rule="evenodd"/>
        <path id="Tracciato_60440" data-name="Tracciato 60440" d="M642.214,304.323l.238-.96s.463,10.264-2.252,13.557-6.823,7.632-12.631,9.414c-6.385,1.96-9.5.949-9.5.949s3.8-2.909,4.268-4.439c1.139-3.7-5.27-16.019-5.27-16.019Z" transform="translate(-486.114 -238.984)" fill="#9f5d45" fill-rule="evenodd"/>
        <path id="Tracciato_60441" data-name="Tracciato 60441" d="M566.824,147.2s.89,11.018,3.77,17.056c1.02,2.137,2.425,6.163,3.517,7.387,4.775,5.357,7.153,6.545,11.095,5.764,4.172-.829,12.412-4.207,16.48-15.75-.957,2.715,2.341-5.31,2.11-7.357-.677-6-2.743-17.425-3.248-19.478S598.62,119.2,580.228,122.9c-17.786,3.575-15.037,17.211-13.4,24.3" transform="translate(-445.586 -96.317)" fill="#f7ba9b"/>
        <path id="Tracciato_60442" data-name="Tracciato 60442" d="M598.842,166.632s-.295,6.334-4.379,5.756c-5.429-.769-8.676-8.234-11.176-11-6.944-7.685-6.346-4.624-8.516-3.546-3.609,1.794-7.717.409-8.733,7-.427,2.769-.844.611-.844.611s1.48,5.5-.257-5.348c-1.782-11.128,11.243-7.913,14.171-9s14.9,1.406,17.513,5.791a18.741,18.741,0,0,1,2.221,9.738" transform="translate(-444.917 -118.836)" fill="#9f5d45" fill-rule="evenodd"/>
        <path id="Tracciato_60443" data-name="Tracciato 60443" d="M574.195,221.074a28.307,28.307,0,0,1,6.631-.139c2.576.481,3.023-.328,4.366-.86a48.771,48.771,0,0,1,6.286-1.194s-6.593,1.845-7.582,2.206a5.188,5.188,0,0,1-3.026.275c-1.636-.176-5.7-.573-6.675-.287" transform="translate(-452.341 -172.43)" fill="#9f5d45" fill-rule="evenodd"/>
        <path id="Tracciato_60444" data-name="Tracciato 60444" d="M577.752,214.841a24.955,24.955,0,0,1,5.839-.123c2.269.424,2.662-.288,3.845-.757a43.015,43.015,0,0,1,5.537-1.052s-5.807,1.625-6.677,1.943a4.566,4.566,0,0,1-2.665.242c-1.441-.155-5.017-.5-5.879-.253" transform="translate(-455.143 -167.726)" fill="#9f5d45" fill-rule="evenodd"/>
        <path id="Tracciato_60445" data-name="Tracciato 60445" d="M581.182,207.188a21.655,21.655,0,0,1,5.067-.106c1.969.367,2.31-.251,3.337-.658a37.344,37.344,0,0,1,4.8-.912s-5.039,1.41-5.794,1.685a3.963,3.963,0,0,1-2.312.21,26.223,26.223,0,0,0-5.1-.22" transform="translate(-457.845 -161.899)" fill="#9f5d45" fill-rule="evenodd"/>
        <path id="Tracciato_60446" data-name="Tracciato 60446" d="M565.879,91.51s.893,3.044-4.079,3.809-7.938,4-7.824,7.2a54.928,54.928,0,0,0,.692,6.507s-5.6-9.344-4.474-14.559,3.356-7.993,8.37-10.82,15.559-3.782,15.559-3.782,1.148-7.168,8.722-7.556c11.215-.574,20.6,19.367,18.248,27.99s-5.915,4.526-5.791,5.164c3.44,17.7-5.659,19.641-5.659,19.641s2.844-28.3-.977-24.762-1.109,10.272-6.614,9.362-14.964-15.262-16.174-18.2" transform="translate(-433.315 -56.956)" fill="#ccc"/>
        <path id="Tracciato_60447" data-name="Tracciato 60447" d="M571.66,140.133s1.339,4.253-3.728,5.905-9.283,3.88-8.733,8.8c0,0-3.611-5.245,1.719-8.583s9.578-1.185,10.742-6.124" transform="translate(-439.586 -110.394)" fill="#fff"/>
        <path id="Tracciato_60448" data-name="Tracciato 60448" d="M634.294,149.151s-1.151,3.185,4.4,7.7,11.1,8.68,12.637,6.379,4.019-5.069,5.091-4.537a3.861,3.861,0,0,0-4.594,1.027c-1.835,2.331-3.145,2.8-6.2.873s-10.584-8.042-11.331-11.446" transform="translate(-499.607 -117.498)" fill="#fff"/>
        <path id="Tracciato_60449" data-name="Tracciato 60449" d="M666.426,83.942A18.988,18.988,0,0,1,683.519,95.2s.021-13.1-15.412-12.318c0,0,8.049-10.184,19.5,3.249,0,0-10.969-17.037-21.185-2.188" transform="translate(-524.999 -61.341)" fill="#fff"/>
        <path id="Tracciato_60450" data-name="Tracciato 60450" d="M727,201.642c1.243-1.688,5.769-.868,4.743,2.964-1.267,4.727.518,8.981-1.741,9.327s-6-10.807-3-12.291" transform="translate(-571.84 -158.193)" fill="#f7ba9b" fill-rule="evenodd"/>
        <path id="Tracciato_60451" data-name="Tracciato 60451" d="M289.474,824.389c-4.08-10.12-45.275,1.925-51.507,3.43a7.269,7.269,0,0,0-5.994,7.131L211.39,1043.406l5.523.545L237.5,835.495c1.035-4.759,37.131-9.177,45.075-10.216a1.728,1.728,0,0,1,1.566.631L338.1,1015.292l5.337-1.521Z" transform="translate(-166.529 -646.28)" fill="#acbcbb" fill-rule="evenodd"/>
        <path id="Tracciato_60452" data-name="Tracciato 60452" d="M202.13,1820.975s-3.881,10.611-3.833,15.128c.017,1.646,9.783,1.84,12.323-2.112s-2.913-13.016-2.913-13.016Z" transform="translate(-156.214 -1434.532)" fill="#15596c"/>
        <path id="Tracciato_60453" data-name="Tracciato 60453" d="M786.255,1676.883s-2.247,10.8-2.2,15.223c.018,1.646,8.824,1.27,11.364-2.682s-3.588-12.541-3.588-12.541Z" transform="translate(-617.664 -1321.019)" fill="#15596c"/>
        <path id="Tracciato_60454" data-name="Tracciato 60454" d="M326.407,823.705s-.7-1.913,1.779-2.478,41.109-9.4,43.94-6.435,3.428,6.294.04,7.141-42.2,8.046-43.633,7.88,1.8-5.889-2.126-6.108" transform="translate(-257.065 -641.401)" fill="#15596c"/>
        <path id="Tracciato_60455" data-name="Tracciato 60455" d="M439.2,699.055s-17.592,15.252-25.5,18.922-17.769,9.36-16.386,9.679c1.635.377,11.022-1.493,11.022-1.493a5.752,5.752,0,0,1,.22,5.139c-1.3,2.605-2.674,5.245-.361,5.024,1.988-.19,4.517-6.352,5.5-8.61s2.574-4.517,5.381-5.223,20.9-8.017,20.9-8.017Z" transform="translate(-312.898 -550.703)" fill="#f7ba9b" fill-rule="evenodd"/>
        <path id="Tracciato_60456" data-name="Tracciato 60456" d="M299.273,1147.591l58.782,14.919-2.037,14.056-58.008-14.81Z" transform="translate(-234.767 -904.052)" fill="#15596c"/>
        <path id="Tracciato_60457" data-name="Tracciato 60457" d="M611.82,1039.056s-5.141,55.92-.331,67.292c3.689,8.72,5.472,46.835,3.922,67.639-.471,6.328-4.495,15.445-4.495,15.445s-10.937,5.833-11.129,9.955c-.26,5.606,10.529,1.228,24.818-5.7,3.326-1.614,6.169-10.861,6.578-14.633.9-8.292,10.055-45.525,9.664-56.223s-5.7-11.938-2.629-31.843,10.314-44.379,10.314-44.379Z" transform="translate(-472.499 -818.55)" fill="#f7ba9b"/>
        <path id="Tracciato_60458" data-name="Tracciato 60458" d="M790.767,1107.547s7.836,32.321,9.182,44.208c.393,3.468,25.581,46.916,34.72,69.36,2.93,7.195-1.685,14.111-1.685,14.111s-9.393,9.087-5.265,10.87c4.842,2.092,11.291-.419,16.775-5.941,7.379-7.428,6.719-19.22,6.21-20.214-3.383-6.606-9.605-28.458-13.016-45.308s-8.557-24.6-11.152-28.744,1.734-40.805,1.734-40.805Z" transform="translate(-622.952 -870.566)" fill="#f7ba9b"/>
        <path id="Tracciato_60459" data-name="Tracciato 60459" d="M676.39,619.714s-42.162,20.7-96.458,10.58L581.5,509.372s-1.343-18.9-4.055-34.583c-1.374-7.942-3.776-15.766-2.464-35.75,0,0-6.232-6.822-5.833-16.045.208-4.729,2.5-10.816,4.121-18.405l-2.659-7.356s-1.111-5.7,11.407-12.716c0,0,1.928,11.594,31.64-6.693,0,0,18.623,1.888,26.5,14.365a246.3,246.3,0,0,1,9.779,36.31c2.61,13.928,6.81,59.211,8.883,76.881S676.39,619.714,676.39,619.714" transform="translate(-448.353 -297.643)" fill="#ffcdd7"/>
        <path id="Tracciato_60460" data-name="Tracciato 60460" d="M579.959,940.834c-4.08-10.121-45.275,1.925-51.507,3.43a7.269,7.269,0,0,0-5.994,7.131L501.875,1159.85l5.523.546L527.981,951.94c1.035-4.759,37.131-9.177,45.075-10.216a1.728,1.728,0,0,1,1.566.632l53.963,189.382,5.337-1.521Z" transform="translate(-395.368 -738.013)" fill="#acbcbb" fill-rule="evenodd"/>
        <path id="Tracciato_60461" data-name="Tracciato 60461" d="M492.615,1937.419s-3.881,10.611-3.833,15.128c.017,1.646,9.782,1.84,12.323-2.112s-2.913-13.016-2.913-13.016Z" transform="translate(-385.053 -1526.265)" fill="#15596c"/>
        <path id="Tracciato_60462" data-name="Tracciato 60462" d="M1076.74,1793.328s-2.247,10.8-2.2,15.223c.018,1.646,8.824,1.27,11.364-2.682s-3.588-12.541-3.588-12.541Z" transform="translate(-846.503 -1412.752)" fill="#15596c"/>
        <path id="Tracciato_60463" data-name="Tracciato 60463" d="M616.892,940.149s-.7-1.913,1.78-2.478,41.109-9.4,43.94-6.435,3.428,6.294.04,7.141-42.2,8.046-43.633,7.88,1.8-5.889-2.127-6.108" transform="translate(-485.904 -733.134)" fill="#15596c"/>
        <path id="Tracciato_60464" data-name="Tracciato 60464" d="M710.605,730.709s-3.936,10.943-16.649,24.225l-.416.452a16.828,16.828,0,0,0-1.2,1.412c-2.945,3.883-5.915,12.757-10.042,14.716s-10.561,4.655-10.561,4.655-3.759,1.177-4.518.358,3.116-2.553,3.116-2.553a15.979,15.979,0,0,1-6.834,1.1c-3.42-.344-.208-2.346-.208-2.346-2.413-.394.665-2.674.665-2.674,3.977-.511,12.348-8.623,10.094-9.1s-4.1-.986-6.435-.067-3.643.064-3.523-1.333,14.372-5.141,18.292-6.591a7.2,7.2,0,0,0,3.034-2.287l.484-.716s18.877-40.172,25.068-40.275,6.71,9.779-.364,21.032" transform="translate(-521.451 -559.069)" fill="#f7ba9b" fill-rule="evenodd"/>
        <path id="Tracciato_60465" data-name="Tracciato 60465" d="M785.766,463.688s2.729-6.4,10.352,8.046c0,0,12.139-5.906,10.728-18.6s-7.058-53.626-14.962-58.425-23.222-10.683-23.222-10.683,23.828,11.812,19.149,14.353-8.082,12.986-6.239,20.608,5.914,27.527,3.031,30,1.163,14.7,1.163,14.7" transform="translate(-605.538 -302.53)" fill="#ffb1be"/>
        <path id="Tracciato_60466" data-name="Tracciato 60466" d="M233.406,806.563c.175.762,6.971,11.284,11.541,12.977s11.976,1.8,11.976,1.8a2.844,2.844,0,0,0,2.059-.941c.729-.941-3.551-2.42-3.551-2.42a17.045,17.045,0,0,0,7.365.523c3.6-.687,0-2.512,0-2.512,2.526-.646-.958-2.779-.958-2.779-4.274-.168-13.932-8-11.582-8.724s4.1.992,6.669,1.75,3.877-.275,3.619-1.748-15.593-6.538-19.894-7.71c-1.459-.4-1.588-.307-2.514-1.226,0,0-6.573,2.963-4.73,11.007" transform="translate(-183.616 -626.725)" fill="#f7ba9b" fill-rule="evenodd"/>
      </g>
    </g>
  </g>
</svg>
