<svg xmlns="http://www.w3.org/2000/svg" xmlns:xlink="http://www.w3.org/1999/xlink" width="503.153" height="299.278" viewBox="0 0 503.153 299.278">
  <defs>
    <clipPath id="clip-path">
      <path id="Tracciato_60365" data-name="Tracciato 60365" d="M212.012,0c-47.122.014-82.344,32.3-98.565,61.387-12.561,22.525-17.541,46.712-36.8,66.928-17.867,18.755-41.112,35.444-52.609,56.8-22.422,41.663,16.9,86.784,78.807,94.926,24.953,3.282,50.4,1.872,75.8.461,30.025-1.667,59.979-3.335,88.961,2.751,39.867,8.371,80.407,18.482,122.794,15.48,64.463-4.565,110.81-50.867,76.389-92.54-17.913-21.687-50.118-33.738-78.619-47.7-12.118-5.937-23.638-12.363-33.287-20.314C319.04,108.646,316.941,68.537,290.119,35.9a97.562,97.562,0,0,0-52.4-32.773A109.069,109.069,0,0,0,212.055,0Z" transform="translate(-17.675)" fill="rgba(92,197,229,0.27)"/>
    </clipPath>
    <clipPath id="clip-path-2">
      <path id="Tracciato_60374" data-name="Tracciato 60374" d="M154.309,248.241a35.274,35.274,0,0,1-10.129-2.328,34.1,34.1,0,0,1-3.476-1.617,38.781,38.781,0,0,1-10.3-8.188q-.544-.6-1.072-1.215a86.6,86.6,0,0,1-8.713-12.808c-1.088-1.885-2.139-3.844-3.187-5.734-1.372-2.475-2.792-5.014-4.282-7.495q-.326-.546-.655-1.088-.717-1.17-1.528-2.323a54.346,54.346,0,0,0-4.195-5.189c-1.934-2.123-4.145-4.29-6.723-6.607q-.821-.738-1.642-1.462c-1.851-1.635-3.678-3.194-5.393-4.693-1.952-1.706-3.9-3.474-5.737-5.267q-.7-.688-1.351-1.352a47.972,47.972,0,0,1-3.693-4.279,35.372,35.372,0,0,1-3.842-6.134,24.336,24.336,0,0,1-2.352-12.68,32.981,32.981,0,0,1,.461-3.623,32.411,32.411,0,0,1,2.461-7.623c.413-.885.866-1.75,1.351-2.592a34.23,34.23,0,0,1,3.81-5.356,32.5,32.5,0,0,1,9.846-7.732A31.237,31.237,0,0,1,99.12,128.8a42.686,42.686,0,0,1,7.418-1.489c2.133-.259,4.307-.44,6.429-.606l.72-.057c.014-.011.387-.021.4-.032,2.691-.2,5.135-.428,7.576-.8a49.618,49.618,0,0,0,10.106-2.646q2.445-.922,4.849-2.109a70.8,70.8,0,0,0,8.685-5.191c.793-.516,1.9-1.381,2.726-1.965q.928-.692,1.887-1.436c3.1-2.406,6.146-4.978,9.362-7.672q1.433-1.2,2.895-2.415a85.391,85.391,0,0,1,14.784-9.929q1.144-.6,2.3-1.147a64.206,64.206,0,0,1,14.366-4.912,58.577,58.577,0,0,1,10.275-1.23,57.822,57.822,0,0,1,7.394.22,64.668,64.668,0,0,1,7.368,1.119q2.974.625,5.855,1.53,1.687.533,3.32,1.153a54.766,54.766,0,0,1,8.985,4.366,48.917,48.917,0,0,1,10.464,8.48,41.167,41.167,0,0,1,7.448,11.225,48.741,48.741,0,0,1,3.691,13.025,64.072,64.072,0,0,1,.627,8.517q.022,2.493-.126,5.085c-.048.818-.107,1.649-.175,2.473s-.15,1.653-.239,2.47-.191,1.642-.3,2.465a99.788,99.788,0,0,1-6.1,23.118A122.535,122.535,0,0,1,240.6,192.542l-.286.433a132.539,132.539,0,0,1-16.037,19.805,159.94,159.94,0,0,1-14.96,13.437q-4.6,3.624-9.319,6.736-3.666,2.421-7.316,4.489a99.913,99.913,0,0,1-18.276,8.182,57.15,57.15,0,0,1-9.937,2.316,47.607,47.607,0,0,1-6.489.454q-1.865,0-3.666-.154M200.87,83.5a60.262,60.262,0,0,0-7.453,1.083A66.686,66.686,0,0,0,177.038,90.4q-.414.21-.828.427a87.449,87.449,0,0,0-15.193,10.217q-1.459,1.209-2.889,2.409c-3.194,2.674-6.214,5.224-9.29,7.6q-1.367,1.058-2.669,2.01c-.84.58-1.96,1.441-2.767,1.95a67.73,67.73,0,0,1-7.657,4.5,52.057,52.057,0,0,1-5.888,2.48,48.457,48.457,0,0,1-8.722,2.167c-2.4.37-4.816.593-7.479.789-.014.011-.386.021-.4.031-.5.04-1,.077-1.51.118-1.88.149-3.793.318-5.685.548a44.6,44.6,0,0,0-7.634,1.542,33.1,33.1,0,0,0-4.652,1.8A33.567,33.567,0,0,0,82.9,137.324a34.754,34.754,0,0,0-2.991,3.987c-.526.817-1.023,1.657-1.483,2.52a34.46,34.46,0,0,0-3.389,9.572c-.123.646-.224,1.29-.312,1.93A26.29,26.29,0,0,0,77.05,170.32a39.822,39.822,0,0,0,3.8,6.4,53.142,53.142,0,0,0,4.949,5.873c.265.274.533.55.8.824,1.572,1.592,3.226,3.146,4.879,4.667,2.194,2.008,4.583,4.125,6.982,6.36q.667.617,1.306,1.225c2.019,1.9,3.8,3.713,5.406,5.486a51.649,51.649,0,0,1,5.714,7.484c.689,1.118,1.355,2.258,2.021,3.4,1.017,1.746,2.016,3.5,2.985,5.215,1.094,1.93,2.189,3.927,3.311,5.857a93.228,93.228,0,0,0,8.223,12.212q.911,1.1,1.875,2.159a40.516,40.516,0,0,0,9.847,7.957,35.572,35.572,0,0,0,12.384,4.24q1.349.2,2.736.317a44.487,44.487,0,0,0,4.827.149,49.685,49.685,0,0,0,5.628-.461,58.692,58.692,0,0,0,10.189-2.371A101.444,101.444,0,0,0,193.511,239q3.854-2.182,7.735-4.76,4.618-3.066,9.151-6.634A161.55,161.55,0,0,0,225.547,214a134.366,134.366,0,0,0,16.242-20.065l.33-.5a124.3,124.3,0,0,0,11.625-22.392,101.686,101.686,0,0,0,6.222-23.6c.112-.831.214-1.667.3-2.487s.169-1.658.237-2.489.129-1.682.178-2.514q.129-2.248.131-4.427a66.311,66.311,0,0,0-.65-9.5,50.412,50.412,0,0,0-3.8-13.423,42.9,42.9,0,0,0-7.69-11.616,51.06,51.06,0,0,0-10.764-8.809,57.723,57.723,0,0,0-11.639-5.444c-.329-.113-.661-.224-.994-.33a64.561,64.561,0,0,0-13.617-2.8q-2.916-.288-5.844-.288-2.473,0-4.944.206" transform="translate(-74.473 -83.299)" fill="none"/>
    </clipPath>
    <linearGradient id="linear-gradient" x1="-0.382" y1="1.407" x2="-0.377" y2="1.407" gradientUnits="objectBoundingBox">
      <stop offset="0" stop-color="#ffd200"/>
      <stop offset="0.152" stop-color="#fdc307"/>
      <stop offset="0.467" stop-color="#f9ab13"/>
      <stop offset="0.757" stop-color="#f79c1b"/>
      <stop offset="0.995" stop-color="#f7971e"/>
      <stop offset="1" stop-color="#f7971e"/>
    </linearGradient>
    <clipPath id="clip-path-3">
      <path id="Tracciato_60375" data-name="Tracciato 60375" d="M155.669,241.019a32.055,32.055,0,0,1-9.268-2.075,30.855,30.855,0,0,1-3.183-1.468,35.715,35.715,0,0,1-9.433-7.462q-.5-.544-.984-1.106a81.247,81.247,0,0,1-8.048-11.646c-1-1.692-1.959-3.453-2.924-5.151-1.262-2.223-2.571-4.5-3.943-6.733-.2-.327-.4-.651-.6-.976q-.659-1.051-1.4-2.089a51.694,51.694,0,0,0-3.816-4.674c-1.76-1.923-3.761-3.886-6.076-5.984q-.738-.672-1.476-1.329c-1.665-1.493-3.3-2.916-4.83-4.288-1.745-1.566-3.474-3.188-5.09-4.832q-.62-.628-1.189-1.236a39.657,39.657,0,0,1-3.205-3.916,30.312,30.312,0,0,1-3.229-5.557,21.569,21.569,0,0,1-1.664-11.35,31.324,31.324,0,0,1,.52-3.223,29.863,29.863,0,0,1,2.406-6.772c.392-.788.82-1.556,1.273-2.3a32.093,32.093,0,0,1,3.538-4.768,30.735,30.735,0,0,1,8.988-6.937,30.274,30.274,0,0,1,4.666-1.888,40.834,40.834,0,0,1,6.7-1.426c1.927-.263,3.888-.463,5.8-.65l.651-.063c.016-.013.346-.025.362-.036,2.424-.226,4.628-.478,6.828-.86a45.8,45.8,0,0,0,9.1-2.551q2.2-.867,4.364-1.969a65.846,65.846,0,0,0,7.828-4.781c.693-.452,1.736-1.288,2.459-1.8q.838-.633,1.7-1.312c2.8-2.2,5.558-4.545,8.47-7q1.3-1.1,2.624-2.2a78.038,78.038,0,0,1,13.334-9.02q1.031-.544,2.068-1.047a58.567,58.567,0,0,1,12.958-4.51,53.163,53.163,0,0,1,9.269-1.178,52.08,52.08,0,0,1,6.69.145,57.048,57.048,0,0,1,6.664.963c1.8.364,3.566.816,5.3,1.351q1.526.472,3,1.028A48.026,48.026,0,0,1,231,100.285,43.264,43.264,0,0,1,240.423,108a37.388,37.388,0,0,1,6.655,10.165,44.3,44.3,0,0,1,3.282,11.766,57.892,57.892,0,0,1,.544,7.689q.016,2.25-.123,4.587c-.044.738-.1,1.488-.163,2.231s-.137,1.493-.219,2.23-.175,1.483-.277,2.227a90.882,90.882,0,0,1-5.525,20.864,113,113,0,0,1-10.512,20.293c-.087.133-.173.265-.261.4a121.075,121.075,0,0,1-14.655,18.169,145.123,145.123,0,0,1-13.582,12.228c-2.784,2.2-5.612,4.245-8.458,6.13q-3.33,2.206-6.641,4.091a91.306,91.306,0,0,1-16.583,7.484,52.272,52.272,0,0,1-9.017,2.144,43.32,43.32,0,0,1-6.125.444c-1.048,0-2.082-.041-3.1-.12M198.519,91.2a55.057,55.057,0,0,0-6.752,1.026,60.951,60.951,0,0,0-14.83,5.357c-.251.128-.5.258-.749.39a80.14,80.14,0,0,0-13.755,9.32q-1.322,1.1-2.618,2.194c-2.889,2.431-5.623,4.755-8.4,6.927q-1.233.966-2.408,1.838c-.735.508-1.791,1.341-2.5,1.785a63.01,63.01,0,0,1-6.9,4.146,47.713,47.713,0,0,1-5.3,2.319,44.5,44.5,0,0,1-7.848,2.1c-2.163.375-4.341.623-6.737.843-.015.011-.345.023-.36.035l-1.361.131c-1.7.165-3.422.35-5.129.584a42.179,42.179,0,0,0-6.9,1.48,31.266,31.266,0,0,0-4.214,1.647,31.7,31.7,0,0,0-9.926,7.474,32.233,32.233,0,0,0-2.77,3.55c-.489.726-.955,1.473-1.387,2.24a31.927,31.927,0,0,0-3.284,8.506c-.129.574-.239,1.148-.338,1.718a23.507,23.507,0,0,0,1.583,13.408,35.006,35.006,0,0,0,3.163,5.826,44.15,44.15,0,0,0,4.271,5.409c.234.253.468.508.706.762,1.381,1.472,2.843,2.91,4.315,4.315,1.954,1.855,4.092,3.8,6.258,5.856q.6.566,1.178,1.122c1.819,1.737,3.44,3.385,4.9,5a49.633,49.633,0,0,1,5.234,6.77c.634,1,1.247,2.032,1.86,3.057.943,1.575,1.87,3.15,2.767,4.7,1.015,1.742,2.026,3.544,3.061,5.285a86.719,86.719,0,0,0,7.627,11.13q.84,1.011,1.73,1.971a37.36,37.36,0,0,0,9.054,7.261,32.316,32.316,0,0,0,11.376,3.824q1.238.18,2.51.272a40.18,40.18,0,0,0,4.387.11,45.455,45.455,0,0,0,5.121-.447,53.88,53.88,0,0,0,9.263-2.2,92.913,92.913,0,0,0,16.892-7.613q3.5-1.994,7.033-4.346,4.2-2.8,8.321-6.046a146.661,146.661,0,0,0,13.774-12.4A122.905,122.905,0,0,0,235.306,191.4c.1-.153.2-.308.3-.462a114.762,114.762,0,0,0,10.633-20.548,92.834,92.834,0,0,0,5.644-21.358c.1-.75.195-1.5.277-2.244s.154-1.5.218-2.247.119-1.521.163-2.273q.122-2.033.126-4a60.342,60.342,0,0,0-.565-8.6,45.954,45.954,0,0,0-3.391-12.153,39.186,39.186,0,0,0-6.883-10.546,45.531,45.531,0,0,0-9.714-8.051,50.952,50.952,0,0,0-10.55-4.94q-.45-.152-.9-.3A57.327,57.327,0,0,0,208.3,91.2q-2.454-.227-4.922-.227-2.429,0-4.861.22" transform="translate(-83.707 -90.978)" fill="none"/>
    </clipPath>
    <linearGradient id="linear-gradient-2" x1="-0.474" y1="1.497" x2="-0.468" y2="1.497" xlink:href="#linear-gradient"/>
    <clipPath id="clip-path-4">
      <path id="Tracciato_60376" data-name="Tracciato 60376" d="M157.026,233.794a28.784,28.784,0,0,1-8.409-1.822,27.434,27.434,0,0,1-2.888-1.318,32.642,32.642,0,0,1-8.568-6.734q-.455-.491-.9-1a75.3,75.3,0,0,1-7.384-10.482c-.906-1.5-1.78-3.063-2.66-4.57-1.153-1.972-2.351-3.992-3.6-5.972-.182-.29-.365-.577-.55-.865q-.6-.932-1.27-1.853a48.715,48.715,0,0,0-3.438-4.158c-1.587-1.724-3.376-3.484-5.426-5.363q-.656-.605-1.311-1.2c-1.479-1.349-2.924-2.637-4.267-3.883-1.537-1.426-3.043-2.9-4.444-4.4-.357-.38-.7-.753-1.026-1.122a32.261,32.261,0,0,1-2.719-3.553,25.318,25.318,0,0,1-2.615-4.979,18.891,18.891,0,0,1-.978-10.019c.153-.931.328-1.877.581-2.823A27.517,27.517,0,0,1,97.5,151.77c.372-.691.774-1.363,1.2-2.016a30.068,30.068,0,0,1,3.265-4.183,29.156,29.156,0,0,1,8.131-6.14,28.645,28.645,0,0,1,4.183-1.713,38.26,38.26,0,0,1,5.985-1.364c1.722-.267,3.469-.486,5.175-.693l.58-.07c.018-.013.305-.026.322-.04,2.155-.249,4.119-.526,6.081-.915a41.779,41.779,0,0,0,8.095-2.455c1.3-.542,2.6-1.149,3.879-1.828a62.324,62.324,0,0,0,6.969-4.372c.6-.388,1.575-1.2,2.194-1.633q.748-.573,1.521-1.188c2.5-1.986,4.971-4.112,7.58-6.324q1.165-.992,2.355-1.987a70.84,70.84,0,0,1,11.884-8.111q.918-.491,1.842-.945a52.811,52.811,0,0,1,11.548-4.112,47.81,47.81,0,0,1,8.266-1.124,46.333,46.333,0,0,1,5.983.07,50.306,50.306,0,0,1,5.959.8,47.943,47.943,0,0,1,4.744,1.174q1.365.413,2.684.9a41.489,41.489,0,0,1,7.265,3.515,37.745,37.745,0,0,1,8.373,6.947,33.65,33.65,0,0,1,5.861,9.107,39.809,39.809,0,0,1,2.872,10.506,52.129,52.129,0,0,1,.463,6.859q.007,2.007-.122,4.091c-.041.658-.092,1.327-.15,1.991s-.125,1.332-.2,1.99-.158,1.324-.252,1.988a82.023,82.023,0,0,1-4.944,18.61,103.555,103.555,0,0,1-9.52,18.448l-.236.361a109.566,109.566,0,0,1-13.272,16.531,130.037,130.037,0,0,1-12.2,11.019c-2.5,1.978-5.039,3.823-7.6,5.524q-2.994,1.992-5.967,3.694a82.778,82.778,0,0,1-14.889,6.786,47.322,47.322,0,0,1-8.1,1.97,38.917,38.917,0,0,1-5.76.437q-1.281,0-2.525-.089m39.141-134.9a49.313,49.313,0,0,0-6.052.97,55.154,55.154,0,0,0-13.283,4.9c-.225.116-.448.235-.671.354a72.967,72.967,0,0,0-12.315,8.42q-1.186.992-2.347,1.979c-2.585,2.19-5.031,4.29-7.505,6.25q-1.1.874-2.149,1.665c-.63.435-1.621,1.239-2.226,1.621a59.641,59.641,0,0,1-6.139,3.793A44.425,44.425,0,0,1,138.773,131a40.7,40.7,0,0,1-6.975,2.027c-1.926.382-3.865.652-5.993.9-.018.013-.3.026-.321.039l-1.212.146c-1.51.182-3.048.382-4.573.62a39.953,39.953,0,0,0-6.167,1.417,29.753,29.753,0,0,0-3.776,1.5,30.087,30.087,0,0,0-8.973,6.617,30.39,30.39,0,0,0-2.549,3.114c-.452.633-.886,1.288-1.291,1.961a29.549,29.549,0,0,0-3.179,7.439c-.137.5-.254,1.007-.365,1.508a20.792,20.792,0,0,0,.842,11.828,30.067,30.067,0,0,0,2.519,5.252,35.669,35.669,0,0,0,3.592,4.946c.2.232.4.467.607.7,1.191,1.351,2.462,2.673,3.753,3.965,1.711,1.7,3.6,3.482,5.533,5.35q.536.515,1.051,1.019c1.616,1.572,3.076,3.058,4.4,4.514a48.017,48.017,0,0,1,4.753,6.055c.58.893,1.138,1.8,1.7,2.713.868,1.4,1.722,2.8,2.547,4.184.937,1.555,1.865,3.161,2.813,4.714a81.419,81.419,0,0,0,7.029,10.049q.77.915,1.584,1.781a34.256,34.256,0,0,0,8.261,6.564,29.037,29.037,0,0,0,3.8,1.764,29.545,29.545,0,0,0,6.567,1.647q1.126.152,2.284.228a36.376,36.376,0,0,0,3.947.071,41.452,41.452,0,0,0,4.614-.433,48.8,48.8,0,0,0,8.335-2.023,84.288,84.288,0,0,0,15.2-6.914q3.15-1.8,6.333-3.931,3.786-2.529,7.491-5.459a131.889,131.889,0,0,0,12.4-11.2,111.4,111.4,0,0,0,13.476-16.792c.092-.14.182-.281.273-.421a105.29,105.29,0,0,0,9.641-18.706,84,84,0,0,0,5.066-19.111c.092-.669.177-1.343.25-2s.142-1.335.2-2,.11-1.36.152-2.033q.111-1.815.122-3.579a54.372,54.372,0,0,0-.481-7.691,41.485,41.485,0,0,0-2.979-10.883,35.31,35.31,0,0,0-6.076-9.474,39.954,39.954,0,0,0-8.66-7.292,44.3,44.3,0,0,0-9.464-4.435q-.4-.136-.811-.264a50.855,50.855,0,0,0-11.11-2.151q-2-.164-4.021-.165-2.377,0-4.756.235" transform="translate(-92.903 -98.657)" fill="none"/>
    </clipPath>
    <linearGradient id="linear-gradient-3" x1="-0.587" y1="1.606" x2="-0.58" y2="1.606" xlink:href="#linear-gradient"/>
    <clipPath id="clip-path-5">
      <path id="Tracciato_60377" data-name="Tracciato 60377" d="M158.381,226.571a25.5,25.5,0,0,1-7.548-1.57,23.884,23.884,0,0,1-2.593-1.169,29.511,29.511,0,0,1-7.7-6.007c-.272-.29-.543-.587-.809-.889a70.361,70.361,0,0,1-6.719-9.319c-.815-1.31-1.6-2.674-2.4-3.988-1.044-1.72-2.129-3.48-3.264-5.21q-.246-.378-.5-.754-.541-.814-1.142-1.618a47.065,47.065,0,0,0-3.06-3.644c-1.414-1.523-2.992-3.081-4.778-4.741q-.573-.537-1.145-1.065c-1.293-1.2-2.548-2.358-3.705-3.478-1.328-1.287-2.613-2.616-3.8-3.96-.3-.34-.59-.675-.864-1.006a25.183,25.183,0,0,1-2.231-3.19,20.5,20.5,0,0,1-2-4.4,16.321,16.321,0,0,1-.29-8.687c.183-.8.377-1.613.64-2.424a25.313,25.313,0,0,1,2.293-5.066c.351-.593.729-1.169,1.121-1.729a28.286,28.286,0,0,1,2.992-3.6,27.762,27.762,0,0,1,7.275-5.345,27.452,27.452,0,0,1,3.7-1.54,36.608,36.608,0,0,1,5.267-1.3c1.517-.27,3.051-.509,4.55-.735l.51-.078c.019-.014.264-.028.283-.043,1.887-.273,3.613-.574,5.333-.969a38.132,38.132,0,0,0,7.089-2.362c1.141-.506,2.273-1.066,3.395-1.689a58.6,58.6,0,0,0,6.11-3.963c.5-.321,1.413-1.1,1.928-1.465q.659-.514,1.338-1.066c2.2-1.776,4.384-3.677,6.689-5.65q1.032-.883,2.085-1.772a63.571,63.571,0,0,1,10.435-7.2q.8-.439,1.616-.845a47.056,47.056,0,0,1,10.139-3.711,42.379,42.379,0,0,1,7.261-1.072,40.977,40.977,0,0,1,5.278,0,43.409,43.409,0,0,1,5.254.649,40.565,40.565,0,0,1,4.188,1q1.2.353,2.367.78a34.975,34.975,0,0,1,6.4,3.089,32.251,32.251,0,0,1,7.327,6.182,29.864,29.864,0,0,1,5.067,8.048,35.39,35.39,0,0,1,2.463,9.247,46.394,46.394,0,0,1,.381,6.028q0,1.763-.119,3.6c-.038.578-.083,1.166-.136,1.75s-.114,1.172-.182,1.752-.144,1.163-.227,1.748a73.163,73.163,0,0,1-4.365,16.357,94.165,94.165,0,0,1-8.524,16.6l-.211.325a98.191,98.191,0,0,1-11.89,14.894,115.323,115.323,0,0,1-10.823,9.811q-3.323,2.636-6.74,4.918-2.658,1.775-5.291,3.3a74.145,74.145,0,0,1-13.195,6.087,42.457,42.457,0,0,1-7.179,1.8,34.6,34.6,0,0,1-5.4.431q-.99,0-1.954-.059m35.432-119.986a44.3,44.3,0,0,0-5.351.913,49.407,49.407,0,0,0-11.737,4.436c-.2.1-.394.209-.592.318a65.766,65.766,0,0,0-10.875,7.521q-1.048.883-2.076,1.764c-2.28,1.949-4.44,3.823-6.613,5.574q-.969.782-1.89,1.491c-.525.362-1.451,1.14-1.955,1.456a56.238,56.238,0,0,1-5.379,3.44,41.158,41.158,0,0,1-4.118,2,37.039,37.039,0,0,1-6.1,1.957c-1.688.388-3.39.681-5.25.949-.019.014-.263.029-.282.043l-1.064.159c-1.325.2-2.675.414-4.017.655a38.037,38.037,0,0,0-5.434,1.354,28.284,28.284,0,0,0-11.357,7.107,28.205,28.205,0,0,0-2.328,2.676c-.415.542-.818,1.1-1.2,1.681a27.211,27.211,0,0,0-3.075,6.372c-.143.433-.268.867-.39,1.3a18.186,18.186,0,0,0,.1,10.249,25.1,25.1,0,0,0,1.876,4.678,28.03,28.03,0,0,0,2.915,4.482c.167.21.335.424.508.636,1,1.232,2.078,2.437,3.19,3.614,1.467,1.551,3.111,3.161,4.808,4.846.313.307.62.614.925.915,1.415,1.405,2.71,2.729,3.9,4.029a46.654,46.654,0,0,1,4.275,5.34c.525.779,1.031,1.575,1.539,2.368.792,1.233,1.572,2.461,2.328,3.67.856,1.368,1.7,2.778,2.563,4.143a76.4,76.4,0,0,0,6.433,8.967q.7.819,1.437,1.592a30.861,30.861,0,0,0,7.47,5.869,26.03,26.03,0,0,0,3.432,1.566,26.3,26.3,0,0,0,5.929,1.429q1.013.127,2.057.184a32.574,32.574,0,0,0,3.507.032,37.017,37.017,0,0,0,4.107-.419,44.1,44.1,0,0,0,7.408-1.849,75.621,75.621,0,0,0,13.5-6.215q2.8-1.614,5.631-3.515,3.369-2.26,6.66-4.872a116.892,116.892,0,0,0,11.021-9.992,100.11,100.11,0,0,0,12.092-15.154c.082-.125.164-.253.245-.379a95.969,95.969,0,0,0,8.65-16.865,75.21,75.21,0,0,0,4.487-16.865c.083-.589.157-1.18.224-1.761s.127-1.174.18-1.76.1-1.2.138-1.792q.1-1.6.117-3.155a48.431,48.431,0,0,0-.4-6.785,37.022,37.022,0,0,0-2.565-9.612,31.564,31.564,0,0,0-5.269-8.4,34.467,34.467,0,0,0-7.608-6.532,37.743,37.743,0,0,0-8.377-3.932q-.358-.119-.718-.23a43.764,43.764,0,0,0-9.857-1.826q-1.545-.11-3.1-.111a42.647,42.647,0,0,0-4.673.256" transform="translate(-102.043 -106.329)" fill="none"/>
    </clipPath>
    <linearGradient id="linear-gradient-4" x1="-0.729" y1="1.741" x2="-0.721" y2="1.741" xlink:href="#linear-gradient"/>
    <clipPath id="clip-path-6">
      <path id="Tracciato_60378" data-name="Tracciato 60378" d="M159.734,219.346a22.2,22.2,0,0,1-6.687-1.316,20.58,20.58,0,0,1-2.3-1.019,26.241,26.241,0,0,1-6.837-5.28c-.244-.256-.486-.515-.724-.781a65.739,65.739,0,0,1-6.052-8.156c-.724-1.119-1.421-2.284-2.135-3.405-.934-1.469-1.912-2.968-2.925-4.449-.148-.215-.294-.43-.443-.644q-.482-.695-1.012-1.381c-.806-1.039-1.7-2.075-2.683-3.13-1.238-1.322-2.606-2.677-4.127-4.118l-.979-.932c-1.107-1.061-2.173-2.079-3.143-3.071-1.122-1.147-2.183-2.331-3.15-3.524-.244-.3-.479-.6-.7-.893a18.645,18.645,0,0,1-1.746-2.826,15.905,15.905,0,0,1-1.388-3.826,13.927,13.927,0,0,1,.4-7.356c.212-.668.427-1.349.7-2.023A23.486,23.486,0,0,1,116.037,157c.332-.5.684-.976,1.043-1.439a27.282,27.282,0,0,1,2.72-3.01,26.52,26.52,0,0,1,9.633-5.916,35.539,35.539,0,0,1,4.55-1.238c1.313-.275,2.633-.532,3.923-.778l.439-.085c.022-.015.222-.031.244-.046,1.619-.3,3.1-.624,4.586-1.025a34.665,34.665,0,0,0,6.083-2.266c.978-.47,1.949-.984,2.909-1.549a56.262,56.262,0,0,0,5.253-3.554c.4-.257,1.249-1.008,1.662-1.3q.568-.456,1.155-.942c1.9-1.566,3.8-3.244,5.8-4.975q.9-.779,1.815-1.559a56.337,56.337,0,0,1,8.983-6.292q.693-.388,1.39-.745a41.446,41.446,0,0,1,8.73-3.312,37.088,37.088,0,0,1,6.256-1.018,35.176,35.176,0,0,1,4.574-.081,36.864,36.864,0,0,1,4.55.491,34,34,0,0,1,3.632.817q1.042.3,2.048.657a28.725,28.725,0,0,1,5.546,2.662,26.85,26.85,0,0,1,6.28,5.418,26.119,26.119,0,0,1,4.273,6.987,31.026,31.026,0,0,1,2.054,7.989,40.508,40.508,0,0,1,.3,5.2q-.009,1.52-.117,3.1c-.035.5-.076,1.008-.124,1.511s-.1,1.01-.162,1.511-.127,1-.2,1.51a64.359,64.359,0,0,1-3.783,14.1,84.694,84.694,0,0,1-7.532,14.757c-.062.1-.124.192-.186.288a86.7,86.7,0,0,1-10.507,13.258,100.357,100.357,0,0,1-9.444,8.6q-2.9,2.309-5.879,4.311-2.324,1.561-4.616,2.9a65.658,65.658,0,0,1-11.5,5.39,37.744,37.744,0,0,1-6.26,1.625,30.378,30.378,0,0,1-5.038.43q-.7,0-1.377-.034m31.722-105.068a38.95,38.95,0,0,0-4.65.857,43.674,43.674,0,0,0-10.189,3.974l-.513.283a58.607,58.607,0,0,0-9.436,6.621q-.911.776-1.8,1.549c-1.977,1.707-3.851,3.357-5.723,4.9q-.835.688-1.629,1.317c-.421.29-1.282,1.039-1.685,1.293a54.037,54.037,0,0,1-4.62,3.086,38.39,38.39,0,0,1-3.528,1.837,33.434,33.434,0,0,1-5.229,1.888c-1.451.394-2.913.712-4.506,1-.021.015-.221.032-.242.046-.3.058-.608.117-.914.174-1.141.218-2.3.446-3.462.691a37.336,37.336,0,0,0-4.7,1.291,27.986,27.986,0,0,0-2.9,1.2,27.7,27.7,0,0,0-7.068,4.9,26.916,26.916,0,0,0-2.107,2.24c-.378.452-.75.918-1.1,1.4a25.527,25.527,0,0,0-2.97,5.307c-.149.361-.284.725-.415,1.086a15.767,15.767,0,0,0-.645,8.669,20.187,20.187,0,0,0,1.233,4.1,21.037,21.037,0,0,0,2.235,4.019c.135.19.27.382.409.573.811,1.112,1.7,2.2,2.629,3.263,1.225,1.4,2.616,2.842,4.084,4.341l.8.813c1.215,1.235,2.346,2.4,3.394,3.542a47.2,47.2,0,0,1,3.8,4.625c.469.667.921,1.348,1.378,2.024.717,1.062,1.425,2.117,2.109,3.154.778,1.179,1.54,2.395,2.313,3.571a71.606,71.606,0,0,0,5.836,7.885q.633.725,1.291,1.4a27.7,27.7,0,0,0,6.676,5.172,22.564,22.564,0,0,0,3.063,1.368,23.09,23.09,0,0,0,5.29,1.212c.6.068,1.211.115,1.831.141a29.039,29.039,0,0,0,3.066-.007,32.65,32.65,0,0,0,3.6-.406,39.112,39.112,0,0,0,6.48-1.675,67.165,67.165,0,0,0,11.8-5.515q2.445-1.425,4.929-3.1,2.952-1.991,5.829-4.285a102.114,102.114,0,0,0,9.645-8.786,88.681,88.681,0,0,0,10.709-13.518q.109-.168.216-.338a86.37,86.37,0,0,0,7.659-15.022,66.455,66.455,0,0,0,3.909-14.62c.072-.507.139-1.017.2-1.519s.113-1.011.159-1.516.091-1.039.125-1.552q.094-1.384.112-2.73a42.3,42.3,0,0,0-.313-5.878,32.615,32.615,0,0,0-2.15-8.343,27.814,27.814,0,0,0-4.464-7.334,29.029,29.029,0,0,0-6.556-5.773,31.311,31.311,0,0,0-7.289-3.427c-.208-.068-.416-.132-.626-.2a36.876,36.876,0,0,0-8.6-1.5q-1.083-.062-2.174-.063a37.173,37.173,0,0,0-4.594.284" transform="translate(-111.092 -113.994)" fill="none"/>
    </clipPath>
    <linearGradient id="linear-gradient-5" x1="-0.912" y1="1.915" x2="-0.904" y2="1.915" xlink:href="#linear-gradient"/>
    <clipPath id="clip-path-7">
      <path id="Tracciato_60379" data-name="Tracciato 60379" d="M161.08,212.121a18.933,18.933,0,0,1-5.827-1.063,17.25,17.25,0,0,1-2.006-.871,23.129,23.129,0,0,1-5.973-4.554q-.321-.329-.636-.673a61.879,61.879,0,0,1-5.388-6.993c-.629-.928-1.24-1.893-1.871-2.822-.825-1.218-1.691-2.456-2.588-3.687-.129-.179-.258-.355-.388-.533q-.424-.576-.885-1.146c-.7-.865-1.47-1.732-2.3-2.616-1.066-1.122-2.226-2.27-3.479-3.5-.274-.267-.545-.535-.814-.8-.922-.919-1.8-1.8-2.58-2.667a34.859,34.859,0,0,1-2.5-3.089c-.188-.263-.369-.519-.538-.776a13.048,13.048,0,0,1-1.259-2.464,11.594,11.594,0,0,1-.774-3.25,11.841,11.841,0,0,1,1.085-6.023c.24-.537.477-1.086.761-1.623a22.309,22.309,0,0,1,2.179-3.363c.313-.4.638-.782.967-1.152A26.777,26.777,0,0,1,137,151.1a35.922,35.922,0,0,1,3.834-1.178c1.107-.28,2.214-.553,3.3-.82.123-.03.246-.06.369-.092.023-.016.181-.034.2-.05,1.351-.323,2.6-.672,3.839-1.081a31.562,31.562,0,0,0,5.075-2.172c.815-.435,1.624-.9,2.426-1.408,1.455-.925,2.9-1.972,4.393-3.145.3-.192,1.087-.914,1.4-1.133q.478-.4.973-.818c1.594-1.355,3.206-2.809,4.906-4.3q.763-.672,1.543-1.344a49.412,49.412,0,0,1,7.535-5.384q.581-.334,1.163-.644a35.794,35.794,0,0,1,7.321-2.912,31.932,31.932,0,0,1,5.252-.965,29.6,29.6,0,0,1,3.868-.156,30.011,30.011,0,0,1,3.845.336,27.309,27.309,0,0,1,3.076.638q.883.239,1.731.533a22.625,22.625,0,0,1,4.686,2.237,21.515,21.515,0,0,1,5.233,4.65,22.332,22.332,0,0,1,3.48,5.929,26.624,26.624,0,0,1,1.645,6.729,34.458,34.458,0,0,1,.217,4.369q-.014,1.275-.113,2.6c-.031.421-.069.846-.111,1.27s-.091.849-.144,1.272-.113.846-.177,1.271a55.853,55.853,0,0,1-3.2,11.849,75.305,75.305,0,0,1-6.539,12.91l-.16.253a75.489,75.489,0,0,1-9.126,11.619,85.38,85.38,0,0,1-8.065,7.393q-2.468,1.981-5.019,3.706-1.988,1.344-3.942,2.5a57.261,57.261,0,0,1-9.807,4.693,33.144,33.144,0,0,1-5.341,1.454,26.2,26.2,0,0,1-4.689.431q-.4,0-.792-.014m28.013-90.15a33.487,33.487,0,0,0-3.949.8,37.93,37.93,0,0,0-8.642,3.514c-.144.081-.29.162-.434.246a51.528,51.528,0,0,0-8,5.723q-.775.666-1.534,1.333c-1.672,1.465-3.259,2.89-4.831,4.221q-.7.6-1.371,1.145c-.315.217-1.11.938-1.412,1.129-1.312,1.008-2.583,1.919-3.864,2.732q-1.452.922-2.937,1.676a30.188,30.188,0,0,1-4.356,1.817c-1.214.4-2.437.741-3.763,1.057-.022.016-.179.033-.2.05l-.765.188c-.956.235-1.928.477-2.906.726a38.247,38.247,0,0,0-3.967,1.229c-.829.31-1.65.655-2.459,1.046a27.74,27.74,0,0,0-6.114,4.045c-.654.567-1.286,1.17-1.887,1.8-.341.359-.679.733-1.008,1.122a24.438,24.438,0,0,0-2.866,4.241c-.154.29-.3.583-.441.873A13.659,13.659,0,0,0,120,169.78a15.512,15.512,0,0,0,.591,3.528,15.065,15.065,0,0,0,1.558,3.557c.1.169.2.34.31.509a32.318,32.318,0,0,0,2.066,2.913c.983,1.245,2.125,2.521,3.359,3.838.224.238.446.476.67.709,1.014,1.067,1.982,2.074,2.89,3.056a50.427,50.427,0,0,1,3.316,3.912c.414.553.814,1.12,1.217,1.679.643.89,1.278,1.77,1.891,2.639.7.992,1.38,2.01,2.064,3a67.849,67.849,0,0,0,5.238,6.8q.565.628,1.147,1.213a24.544,24.544,0,0,0,5.885,4.476,19.265,19.265,0,0,0,2.692,1.169,19.957,19.957,0,0,0,4.652,1c.527.051,1.063.083,1.6.1a25.016,25.016,0,0,0,2.627-.044,28.636,28.636,0,0,0,3.092-.392,34.579,34.579,0,0,0,5.553-1.5,58.641,58.641,0,0,0,10.108-4.815q2.095-1.235,4.228-2.686,2.535-1.721,5-3.7a87.342,87.342,0,0,0,8.268-7.581,77.257,77.257,0,0,0,9.326-11.881l.189-.3a77.046,77.046,0,0,0,6.666-13.179,57.73,57.73,0,0,0,3.331-12.374c.063-.427.121-.855.172-1.277s.1-.849.141-1.274.081-.876.113-1.31q.084-1.173.107-2.308a36.517,36.517,0,0,0-.229-4.972,28.265,28.265,0,0,0-1.737-7.073,24.072,24.072,0,0,0-3.657-6.263,23.732,23.732,0,0,0-5.5-5.015,25.084,25.084,0,0,0-6.2-2.923q-.266-.084-.535-.164a30.151,30.151,0,0,0-7.35-1.175q-.625-.025-1.255-.025a31.816,31.816,0,0,0-4.508.321" transform="translate(-119.97 -121.649)" fill="none"/>
    </clipPath>
    <linearGradient id="linear-gradient-6" x1="-1.154" y1="2.144" x2="-1.144" y2="2.144" xlink:href="#linear-gradient"/>
    <clipPath id="clip-path-8">
      <path id="Tracciato_60380" data-name="Tracciato 60380" d="M162.412,204.9a15.605,15.605,0,0,1-4.966-.811,13.966,13.966,0,0,1-1.712-.72,20.017,20.017,0,0,1-5.109-3.828q-.277-.274-.549-.564a59.092,59.092,0,0,1-4.722-5.83c-.537-.738-1.061-1.5-1.608-2.24-.717-.966-1.47-1.946-2.248-2.925l-.336-.422c-.243-.3-.5-.607-.756-.91-.6-.692-1.241-1.389-1.926-2.1-.892-.921-1.841-1.868-2.83-2.873q-.329-.333-.648-.667c-.737-.773-1.419-1.524-2.018-2.261a22.263,22.263,0,0,1-1.856-2.652c-.132-.223-.259-.442-.374-.661a8.4,8.4,0,0,1-.771-2.1,7.951,7.951,0,0,1-.16-2.673,10.322,10.322,0,0,1,1.772-4.692c.266-.4.526-.821.82-1.224a23.068,23.068,0,0,1,2.122-2.511c.294-.3.594-.587.89-.862.7-.653,1.428-1.266,2.175-1.837a29.7,29.7,0,0,1,4.7-2.958c.744-.374,1.5-.711,2.25-1.019,1-.406,2.013-.763,3.117-1.114.9-.287,1.8-.576,2.67-.863l.3-.1c.025-.018.14-.037.165-.055,1.082-.347,2.089-.718,3.09-1.134a29.154,29.154,0,0,0,4.071-2.078c.651-.4,1.3-.818,1.939-1.268,1.178-.828,2.34-1.742,3.535-2.734.2-.128.925-.821,1.131-.968q.388-.337.789-.694c1.294-1.146,2.621-2.375,4.015-3.626q.631-.568,1.274-1.131a42.688,42.688,0,0,1,6.085-4.475q.468-.281.936-.542a30.086,30.086,0,0,1,5.913-2.512,26.677,26.677,0,0,1,4.247-.912,24.329,24.329,0,0,1,3.163-.233,23.7,23.7,0,0,1,3.142.179,20.664,20.664,0,0,1,2.52.461c.48.119.952.255,1.412.408a16.79,16.79,0,0,1,3.826,1.811,16.391,16.391,0,0,1,4.188,3.885,18.6,18.6,0,0,1,2.686,4.87,22.309,22.309,0,0,1,1.236,5.47,29.178,29.178,0,0,1,.135,3.539c-.015.688-.051,1.39-.111,2.1-.028.341-.062.685-.1,1.03s-.079.688-.125,1.032-.1.687-.151,1.033a47.3,47.3,0,0,1-2.625,9.6,65.98,65.98,0,0,1-5.546,11.065l-.134.216a64.151,64.151,0,0,1-7.744,9.982,70.519,70.519,0,0,1-6.686,6.185q-2.041,1.652-4.16,3.1-1.652,1.129-3.265,2.1a48.844,48.844,0,0,1-8.115,3.994,28.4,28.4,0,0,1-4.421,1.282,21.993,21.993,0,0,1-4.338.443h-.208m24.3-75.233a28.324,28.324,0,0,0-3.25.743,32.136,32.136,0,0,0-7.094,3.053c-.119.069-.237.139-.355.208a44.753,44.753,0,0,0-6.557,4.826q-.637.557-1.261,1.118c-1.369,1.224-2.669,2.424-3.94,3.545q-.569.5-1.111.97c-.209.146-.94.839-1.142.965-1.048.857-2.07,1.652-3.1,2.379q-1.163.819-2.348,1.516a27.489,27.489,0,0,1-3.482,1.747c-.976.409-1.96.772-3.019,1.111-.025.018-.139.037-.163.055l-.617.2c-.772.252-1.557.509-2.351.762-1.14.366-2.192.742-3.234,1.166-.675.274-1.35.57-2.019.9a30.745,30.745,0,0,0-5.163,3.188q-.85.647-1.665,1.368c-.3.269-.61.548-.913.842a25.275,25.275,0,0,0-2.761,3.175c-.161.218-.313.441-.466.661a12.084,12.084,0,0,0-2.129,5.512,11.305,11.305,0,0,0-.053,2.954,10.308,10.308,0,0,0,.879,3.092c.069.149.138.3.211.447a21.255,21.255,0,0,0,1.5,2.561,34.4,34.4,0,0,0,2.636,3.335c.179.2.359.405.541.606.816.9,1.617,1.745,2.387,2.569,1.023,1.1,1.982,2.146,2.837,3.2.358.441.706.892,1.057,1.336.569.718,1.13,1.425,1.672,2.124.622.8,1.222,1.625,1.813,2.427a65.012,65.012,0,0,0,4.643,5.723q.5.533,1,1.025a21.341,21.341,0,0,0,5.091,3.78,15.961,15.961,0,0,0,2.323.971,16.784,16.784,0,0,0,4.013.78q.68.051,1.378.053a21.289,21.289,0,0,0,2.187-.085,24.323,24.323,0,0,0,2.586-.377,29.931,29.931,0,0,0,4.625-1.327,50.41,50.41,0,0,0,8.412-4.116q1.743-1.047,3.527-2.271,2.118-1.452,4.168-3.111a72.163,72.163,0,0,0,6.891-6.375,65.84,65.84,0,0,0,7.942-10.244c.054-.085.106-.17.16-.255a67.7,67.7,0,0,0,5.674-11.337,49.151,49.151,0,0,0,2.752-10.128c.053-.346.1-.694.147-1.036s.086-.688.121-1.031.071-.716.1-1.069q.077-.956.1-1.883a30.95,30.95,0,0,0-.145-4.066,23.835,23.835,0,0,0-1.324-5.8,20.309,20.309,0,0,0-2.851-5.194,18.538,18.538,0,0,0-4.451-4.255,19.09,19.09,0,0,0-5.114-2.418c-.147-.045-.294-.089-.442-.13a23.485,23.485,0,0,0-6.1-.85l-.346,0a26.16,26.16,0,0,0-4.411.375" transform="translate(-128.444 -129.288)" fill="none"/>
    </clipPath>
    <linearGradient id="linear-gradient-7" x1="-1.483" y1="2.461" x2="-1.472" y2="2.461" xlink:href="#linear-gradient"/>
    <clipPath id="clip-path-9">
      <path id="Tracciato_60381" data-name="Tracciato 60381" d="M159.619,197.112a11,11,0,0,1-1.417-.571,17.033,17.033,0,0,1-4.245-3.1c-.152-.149-.308-.3-.461-.456a59.428,59.428,0,0,1-4.057-4.667c-.439-.55-.881-1.111-1.344-1.658-.607-.714-1.248-1.434-1.909-2.163l-.282-.312q-.307-.337-.628-.675c-.493-.518-1.012-1.046-1.547-1.585-.719-.721-1.455-1.466-2.181-2.253q-.245-.266-.481-.535a19.65,19.65,0,0,1-1.455-1.856,12.577,12.577,0,0,1-1.209-2.216c-.076-.183-.149-.365-.212-.546a5.079,5.079,0,0,1-.284-1.739,5.421,5.421,0,0,1,.453-2.1,9.953,9.953,0,0,1,2.46-3.361c.29-.273.576-.556.879-.823.671-.592,1.372-1.15,2.066-1.658.277-.2.55-.393.814-.575.638-.443,1.272-.857,1.9-1.25,1.321-.823,2.593-1.532,3.847-2.162.592-.3,1.18-.577,1.765-.845.791-.363,1.58-.7,2.4-1.052.7-.294,1.376-.6,2.043-.905l.228-.105c.028-.02.1-.04.126-.059.814-.373,1.581-.765,2.342-1.19a27.647,27.647,0,0,0,3.063-1.982q.734-.543,1.455-1.129c.9-.733,1.782-1.513,2.677-2.325.1-.064.762-.729.865-.8q.3-.278.606-.571c.991-.934,2.033-1.941,3.123-2.951.331-.306.667-.613,1-.917a36.7,36.7,0,0,1,4.634-3.565c.237-.153.475-.3.711-.443a24.518,24.518,0,0,1,4.5-2.112,21.953,21.953,0,0,1,3.242-.86,19.09,19.09,0,0,1,2.457-.306,17.349,17.349,0,0,1,2.437.021,14.583,14.583,0,0,1,1.964.283q.56.12,1.095.285a11.418,11.418,0,0,1,2.966,1.384,11.536,11.536,0,0,1,3.142,3.118,14.877,14.877,0,0,1,1.892,3.812,18.029,18.029,0,0,1,.828,4.21,23.455,23.455,0,0,1,.053,2.71c-.02.526-.056,1.064-.108,1.608-.025.261-.053.524-.086.789s-.068.528-.106.792-.081.528-.126.794a39.053,39.053,0,0,1-2.045,7.341,56.77,56.77,0,0,1-4.551,9.219c-.038.06-.074.12-.111.18a52.723,52.723,0,0,1-6.361,8.346,55.759,55.759,0,0,1-5.307,4.975q-1.613,1.323-3.3,2.493-1.316.915-2.591,1.7a40.689,40.689,0,0,1-6.421,3.3,23.842,23.842,0,0,1-3.5,1.11,17.857,17.857,0,0,1-3.613.465c-.115,0-.229,0-.343,0a12.193,12.193,0,0,1-3.763-.561M188.074,136.9a20.871,20.871,0,0,0-3.753.449,23.468,23.468,0,0,0-2.549.687,26.479,26.479,0,0,0-5.547,2.592c-.094.057-.185.115-.277.173a38.31,38.31,0,0,0-5.117,3.926q-.5.45-.991.9c-1.065.983-2.078,1.957-3.047,2.868q-.437.413-.851.8c-.1.072-.771.737-.872.8-.784.7-1.561,1.385-2.344,2.027-.58.474-1.168.926-1.758,1.354a26.222,26.222,0,0,1-2.61,1.677c-.738.417-1.484.8-2.276,1.165-.026.018-.1.039-.124.058-.154.072-.311.144-.468.216-.587.268-1.184.537-1.794.8-.851.364-1.671.724-2.5,1.1-.522.238-1.05.485-1.581.746-1.36.669-2.748,1.429-4.209,2.33q-.717.443-1.444.931c-.264.179-.54.365-.818.562a30.844,30.844,0,0,0-2.657,2.109c-.166.148-.328.3-.492.451a11.728,11.728,0,0,0-2.872,3.932,8.089,8.089,0,0,0-.695,2.381,6.813,6.813,0,0,0,.2,2.628c.035.128.072.256.113.384a13.048,13.048,0,0,0,.94,2.211,18.441,18.441,0,0,0,1.911,2.828q.2.253.414.5c.616.729,1.252,1.418,1.884,2.083.815.861,1.616,1.677,2.357,2.482.3.33.6.663.9.991.5.546.984,1.08,1.453,1.609.543.615,1.064,1.239,1.564,1.857,1.323,1.637,2.664,3.234,4.045,4.642q.429.436.855.835a18.257,18.257,0,0,0,4.3,3.084,12.812,12.812,0,0,0,1.953.773,13.64,13.64,0,0,0,3.374.563q.569.026,1.153.009.856-.017,1.746-.123a20.252,20.252,0,0,0,2.078-.365,25.291,25.291,0,0,0,3.7-1.152,42.133,42.133,0,0,0,6.716-3.418q1.391-.856,2.826-1.855,1.7-1.184,3.337-2.524a57.481,57.481,0,0,0,5.516-5.169,54.606,54.606,0,0,0,6.558-8.607l.132-.215a58.48,58.48,0,0,0,4.683-9.494,40.855,40.855,0,0,0,2.174-7.882c.043-.265.083-.53.121-.792s.07-.527.1-.79.063-.554.088-.828q.068-.738.1-1.458a25.092,25.092,0,0,0-.061-3.159,19.572,19.572,0,0,0-.911-4.534,16.594,16.594,0,0,0-2.044-4.121,13.194,13.194,0,0,0-7.427-5.411c-.116-.033-.232-.067-.349-.1a16.881,16.881,0,0,0-4.313-.532c-.176,0-.352,0-.53.007" transform="translate(-136.378 -136.898)" fill="none"/>
    </clipPath>
    <linearGradient id="linear-gradient-8" x1="-1.952" y1="2.927" x2="-1.937" y2="2.927" xlink:href="#linear-gradient"/>
    <clipPath id="clip-path-10">
      <path id="Tracciato_60382" data-name="Tracciato 60382" d="M160.653,189.716A14.621,14.621,0,0,1,156.9,187c-1.067-1.006-2.182-2.205-3.391-3.5a35.972,35.972,0,0,0-2.651-2.477c-.241-.212-.485-.424-.727-.64a21.95,21.95,0,0,1-3.018-3.1,6.951,6.951,0,0,1-1.5-3.663,3.554,3.554,0,0,1,1.269-2.895,11.783,11.783,0,0,1,3.148-2.029c1.016-.484,2.043-.881,2.949-1.23l.736-.287c1.823-.721,3.291-1.366,4.619-2.031a32.765,32.765,0,0,0,4.383-2.609,30.474,30.474,0,0,0,3.9-3.309c.949-.951,1.885-1.944,2.788-2.9l.6-.636c1-1.058,2.17-2.284,3.39-3.426a31.105,31.105,0,0,1,3.67-3,18.626,18.626,0,0,1,5.332-2.519,12.9,12.9,0,0,1,3.485-.518,8.608,8.608,0,0,1,2.183.265,6.645,6.645,0,0,1,4.2,3.312,13.358,13.358,0,0,1,1.487,7.583,28.078,28.078,0,0,1-1.832,7.855,47.537,47.537,0,0,1-3.559,7.373,41.435,41.435,0,0,1-5.064,6.853,40.184,40.184,0,0,1-6.366,5.653c-4.679,3.334-8.573,5.077-11.9,5.329q-.4.03-.793.03a8.379,8.379,0,0,1-3.575-.756m21.256-44.673a20.428,20.428,0,0,0-5.849,2.762,32.725,32.725,0,0,0-3.876,3.165c-1.258,1.178-2.448,2.425-3.467,3.5l-.6.637c-.9.951-1.822,1.935-2.754,2.868a28.563,28.563,0,0,1-3.672,3.118,31.006,31.006,0,0,1-4.15,2.47c-1.281.641-2.7,1.266-4.478,1.967-.226.09-.469.183-.724.282-.935.361-1.994.77-3.07,1.282a13.492,13.492,0,0,0-3.615,2.353,5.272,5.272,0,0,0-1.8,4.294,8.639,8.639,0,0,0,1.85,4.584,23.492,23.492,0,0,0,3.258,3.367c.246.217.492.432.735.646a34.23,34.23,0,0,1,2.548,2.379c1.2,1.293,2.338,2.513,3.448,3.56a16.28,16.28,0,0,0,4.216,3.034,10.118,10.118,0,0,0,4.321.921c.3,0,.613-.011.926-.035,3.661-.277,7.845-2.124,12.793-5.649a42.112,42.112,0,0,0,6.645-5.9,43.236,43.236,0,0,0,5.279-7.143,49.425,49.425,0,0,0,3.692-7.652A29.758,29.758,0,0,0,195.5,157.5a15.076,15.076,0,0,0-1.712-8.568,8.341,8.341,0,0,0-5.287-4.147,10.393,10.393,0,0,0-2.631-.321,14.654,14.654,0,0,0-3.963.583" transform="translate(-143.838 -144.46)" fill="none"/>
    </clipPath>
    <linearGradient id="linear-gradient-9" x1="-2.668" y1="3.679" x2="-2.65" y2="3.679" xlink:href="#linear-gradient"/>
    <clipPath id="clip-path-11">
      <path id="Tracciato_60384" data-name="Tracciato 60384" d="M70.468,16.063a14.942,14.942,0,0,0-6.229,10.074c-1.224,8.793,3.3,14.106,9.981,17,4.082,1.769,8.422,2.518,12.595,4.073,4.955,1.847,9.685,4.261,14.662,6.054,6.324,2.277,25.029,6.247,26.731-5.992.829-5.957-3.619-14.474-10.666-21.73-5.768-5.941-13.279-11.035-21.06-13.185a34.409,34.409,0,0,0-9.155-1.237c-6.718,0-12.833,1.961-16.858,4.943" transform="translate(-64.039 -11.12)" fill="#2297fc"/>
    </clipPath>
    <clipPath id="clip-path-12">
      <path id="Tracciato_60385" data-name="Tracciato 60385" d="M6.919,223.615A10.382,10.382,0,1,0,17.3,213.234,10.381,10.381,0,0,0,6.919,223.615" transform="translate(-6.919 -213.234)" fill="#2297fc"/>
    </clipPath>
    <clipPath id="clip-path-13">
      <path id="Tracciato_60387" data-name="Tracciato 60387" d="M198.879,102.356c-31.817,0-55.563-19.116-89.193-19.116-28.746,0-55.933,13.537-66.193,48.426C19.156,214.42,115.244,320.013,276.859,320.448c65.465.176,132.132-17.924,178.028-57.328,66.648-57.222,71.272-144.075,12.9-189.244C443.131,54.8,410.218,45.8,376.5,45.8c-92.33,0-117.144,56.558-177.625,56.558" transform="translate(-39.745 -45.798)" fill="#ffe519"/>
    </clipPath>
  </defs>
  <g id="Raggruppa_9205" data-name="Raggruppa 9205" transform="translate(-7.246)">
    <g id="Raggruppa_9206" data-name="Raggruppa 9206" transform="translate(7.246)">
      <g id="Raggruppa_9131" data-name="Raggruppa 9131" transform="translate(10.382)">
        <g id="Raggruppa_9130" data-name="Raggruppa 9130" clip-path="url(#clip-path)">
          <path id="Tracciato_60394" data-name="Tracciato 60394" d="M0,0,433.16,62.49l66.25,599.116L66.25,599.116Z" transform="translate(-165.993 260.404) rotate(-68.277)" fill="rgba(92,197,229,0.27)"/>
        </g>
      </g>
      <g id="Raggruppa_9149" data-name="Raggruppa 9149" transform="translate(65.201 59.924)">
        <g id="Raggruppa_9148" data-name="Raggruppa 9148" clip-path="url(#clip-path-2)">
          <rect id="Rettangolo_146182" data-name="Rettangolo 146182" width="186.829" height="166.881" transform="translate(-0.485 0)" fill="url(#linear-gradient)"/>
        </g>
      </g>
      <g id="Raggruppa_9151" data-name="Raggruppa 9151" transform="translate(74.114 67.183)">
        <g id="Raggruppa_9150" data-name="Raggruppa 9150" clip-path="url(#clip-path-3)">
          <rect id="Rettangolo_146183" data-name="Rettangolo 146183" width="169.451" height="151.945" transform="translate(-0.479 0)" fill="url(#linear-gradient-2)"/>
        </g>
      </g>
      <g id="Raggruppa_9153" data-name="Raggruppa 9153" transform="translate(82.99 74.463)">
        <g id="Raggruppa_9152" data-name="Raggruppa 9152" clip-path="url(#clip-path-4)">
          <rect id="Rettangolo_146184" data-name="Rettangolo 146184" width="152.073" height="137.009" transform="translate(-0.436 0)" fill="url(#linear-gradient-3)"/>
        </g>
      </g>
      <g id="Raggruppa_9155" data-name="Raggruppa 9155" transform="translate(91.811 81.755)">
        <g id="Raggruppa_9154" data-name="Raggruppa 9154" clip-path="url(#clip-path-5)">
          <rect id="Rettangolo_146185" data-name="Rettangolo 146185" width="134.697" height="122.078" transform="translate(-0.341 0)" fill="url(#linear-gradient-4)"/>
        </g>
      </g>
      <g id="Raggruppa_9157" data-name="Raggruppa 9157" transform="translate(100.545 89.054)">
        <g id="Raggruppa_9156" data-name="Raggruppa 9156" clip-path="url(#clip-path-6)">
          <rect id="Rettangolo_146186" data-name="Rettangolo 146186" width="117.363" height="107.158" transform="translate(-0.201)" fill="url(#linear-gradient-5)"/>
        </g>
      </g>
      <g id="Raggruppa_9159" data-name="Raggruppa 9159" transform="translate(109.114 96.356)">
        <g id="Raggruppa_9158" data-name="Raggruppa 9158" clip-path="url(#clip-path-7)">
          <rect id="Rettangolo_146187" data-name="Rettangolo 146187" width="100.241" height="92.257" transform="translate(-0.108)" fill="url(#linear-gradient-6)"/>
        </g>
      </g>
      <g id="Raggruppa_9161" data-name="Raggruppa 9161" transform="translate(117.293 103.653)">
        <g id="Raggruppa_9160" data-name="Raggruppa 9160" clip-path="url(#clip-path-8)">
          <rect id="Rettangolo_146188" data-name="Rettangolo 146188" width="83.55" height="77.372" transform="translate(-0.055 0)" fill="url(#linear-gradient-7)"/>
        </g>
      </g>
      <g id="Raggruppa_9163" data-name="Raggruppa 9163" transform="translate(124.951 110.931)">
        <g id="Raggruppa_9162" data-name="Raggruppa 9162" clip-path="url(#clip-path-9)">
          <rect id="Rettangolo_146189" data-name="Rettangolo 146189" width="67.424" height="62.538" transform="translate(-0.048 0)" fill="url(#linear-gradient-8)"/>
        </g>
      </g>
      <g id="Raggruppa_9165" data-name="Raggruppa 9165" transform="translate(132.151 118.172)">
        <g id="Raggruppa_9164" data-name="Raggruppa 9164" clip-path="url(#clip-path-10)">
          <rect id="Rettangolo_146190" data-name="Rettangolo 146190" width="51.99" height="47.771" transform="translate(-0.105)" fill="url(#linear-gradient-9)"/>
        </g>
      </g>
      <g id="Raggruppa_9169" data-name="Raggruppa 9169" transform="translate(55.131 10.733)">
        <g id="Raggruppa_9168" data-name="Raggruppa 9168" clip-path="url(#clip-path-11)">
          <rect id="Rettangolo_146192" data-name="Rettangolo 146192" width="49" height="66.466" transform="translate(-1.472 48.387) rotate(-89.47)" fill="#2297fc"/>
        </g>
      </g>
      <g id="Raggruppa_9171" data-name="Raggruppa 9171" transform="translate(0 177.048)">
        <g id="Raggruppa_9170" data-name="Raggruppa 9170" clip-path="url(#clip-path-12)">
          <rect id="Rettangolo_146193" data-name="Rettangolo 146193" width="20.764" height="20.763" transform="translate(0 0)" fill="#2297fc"/>
        </g>
      </g>
      <g id="Raggruppa_9180" data-name="Raggruppa 9180" transform="translate(34.448 0.538)">
        <g id="Raggruppa_9179" data-name="Raggruppa 9179" clip-path="url(#clip-path-13)">
          <path id="Tracciato_60395" data-name="Tracciato 60395" d="M0,0,365.478,13.916,383.765,563.5,18.288,549.586Z" transform="translate(-68.846 217.071) rotate(-76.09)" fill="#ffe519"/>
        </g>
      </g>
    </g>
  </g>
</svg>
