<svg xmlns="http://www.w3.org/2000/svg" width="51.679" height="51.679" viewBox="0 0 51.679 51.679">
  <g id="Raggruppa_7712" data-name="Raggruppa 7712" transform="translate(-1190 -1024)">
    <rect id="Rettangolo_3979" data-name="Rettangolo 3979" width="48.994" height="44.108" transform="translate(1191.342 1030.021)" fill="#fff"/>
    <rect id="Rettangolo_3980" data-name="Rettangolo 3980" width="2.215" height="2.215" transform="translate(1201.541 1041.785)" fill="#003575"/>
    <rect id="Rettangolo_3981" data-name="Rettangolo 3981" width="2.215" height="2.215" transform="translate(1208.136 1041.785)" fill="#003575"/>
    <rect id="Rettangolo_3982" data-name="Rettangolo 3982" width="2.215" height="2.215" transform="translate(1214.731 1041.785)" fill="#73d7ff"/>
    <rect id="Rettangolo_3983" data-name="Rettangolo 3983" width="2.215" height="2.215" transform="translate(1221.327 1041.785)" fill="#003575"/>
    <rect id="Rettangolo_3984" data-name="Rettangolo 3984" width="2.215" height="2.215" transform="translate(1227.922 1041.785)" fill="#003575"/>
    <rect id="Rettangolo_3985" data-name="Rettangolo 3985" width="2.215" height="2.215" transform="translate(1201.541 1048.38)" fill="#003575"/>
    <rect id="Rettangolo_3986" data-name="Rettangolo 3986" width="2.215" height="2.215" transform="translate(1208.136 1048.38)" fill="#003575"/>
    <rect id="Rettangolo_3987" data-name="Rettangolo 3987" width="2.215" height="2.215" transform="translate(1214.731 1048.38)" fill="#003575"/>
    <g id="Rettangolo_3999" data-name="Rettangolo 3999" transform="translate(1192 1030.679)" fill="none" stroke="#73d7ff" stroke-width="2">
      <rect width="47" height="43" stroke="none"/>
      <rect x="1" y="1" width="45" height="41" fill="none"/>
    </g>
    <rect id="Rettangolo_3988" data-name="Rettangolo 3988" width="2.215" height="2.215" transform="translate(1221.327 1048.38)" fill="#73d7ff"/>
    <rect id="Rettangolo_3989" data-name="Rettangolo 3989" width="2.215" height="2.215" transform="translate(1227.922 1048.38)" fill="#003575"/>
    <path id="Tracciato_60277" data-name="Tracciato 60277" d="M238.877,197.234h-6.595a.541.541,0,0,1-.541-.541v-3.3a1.108,1.108,0,1,0-2.215,0v3.3a.542.542,0,0,1-.541.541h-3.3a.541.541,0,0,1-.54-.541v-3.3a1.108,1.108,0,0,0-2.216,0v3.3a.541.541,0,0,1-.54.541h-3.3a.542.542,0,0,1-.541-.541v-3.3a1.108,1.108,0,0,0-2.215,0v3.3a.541.541,0,0,1-.54.541h-3.3a.542.542,0,0,1-.541-.541v-3.3a1.108,1.108,0,0,0-2.215,0v3.3a.541.541,0,0,1-.541.541h-3.3a.541.541,0,0,1-.541-.541v-3.3a1.108,1.108,0,0,0-2.215,0v3.3a.541.541,0,0,1-.541.541h-3.3a.541.541,0,0,1-.541-.541v-3.3a1.108,1.108,0,1,0-2.215,0v3.3a.542.542,0,0,1-.541.541h-6.595a1.109,1.109,0,0,0-1.108,1.108v44.516a1.11,1.11,0,0,0,1.108,1.109h49.464a1.11,1.11,0,0,0,1.108-1.109V198.341A1.109,1.109,0,0,0,238.877,197.234ZM237.77,241.21a.541.541,0,0,1-.541.54H191.063a.541.541,0,0,1-.541-.54V199.99a.542.542,0,0,1,.541-.541h4.946a.542.542,0,0,1,.541.541v3.3a1.108,1.108,0,0,0,2.215,0v-3.3a.542.542,0,0,1,.541-.541h3.3a.542.542,0,0,1,.541.541v3.3a1.108,1.108,0,0,0,2.215,0v-3.3a.542.542,0,0,1,.541-.541h3.3a.542.542,0,0,1,.541.541v3.3a1.108,1.108,0,0,0,2.215,0v-3.3a.542.542,0,0,1,.541-.541h3.3a.541.541,0,0,1,.54.541v3.3a1.108,1.108,0,0,0,2.215,0v-3.3a.542.542,0,0,1,.541-.541h3.3a.541.541,0,0,1,.54.541v3.3a1.108,1.108,0,0,0,2.216,0v-3.3a.541.541,0,0,1,.54-.541h3.3a.542.542,0,0,1,.541.541v3.3a1.108,1.108,0,0,0,2.215,0v-3.3a.542.542,0,0,1,.541-.541h4.946a.542.542,0,0,1,.541.541Z" transform="translate(1001.694 831.712)" fill="#003575"/>
    <text id="_2023" data-name="2023" transform="translate(1201.134 1065.357)" fill="#003575" font-size="13" font-family="OpenSans-Bold, Open Sans" font-weight="700"><tspan x="0" y="0">2023</tspan></text>
  </g>
</svg>
