<svg xmlns="http://www.w3.org/2000/svg" width="42.387" height="43.029" viewBox="0 0 42.387 43.029">
  <g id="Raggruppa_9226" data-name="Raggruppa 9226" transform="translate(-590 -1190.5)">
    <path id="Shape" d="M20.117,42.818H7.568V24.64H2L19.2,3H23.9l7.553,7.663V5.331h5.607V17.509L41.818,23.7H37.18V42.818Z" transform="translate(589.284 1189.426)" fill="#fff"/>
    <rect id="Rectangle-path" width="10.276" height="10.918" transform="translate(606.056 1203.344)" fill="#73d7ff"/>
    <rect id="Rectangle-path-2" data-name="Rectangle-path" width="10.276" height="11.56" transform="translate(608.625 1220.684)" fill="#73d7ff"/>
    <path id="Shape-2" data-name="Shape" d="M42.215,22.309,37.1,15.826a.454.454,0,0,1-.1-.284V5.041a2.262,2.262,0,0,0-2.236-2.278H32.016A2.262,2.262,0,0,0,29.78,5.041V6.517a.45.45,0,0,1-.289.42h-.154a.439.439,0,0,1-.347-.088l-4.54-5.5-.067-.078a4.579,4.579,0,0,0-6.324,0l-.067.078L.225,22.289a.929.929,0,0,0-.144.987.905.905,0,0,0,.828.538H4.968a.44.44,0,0,1,.314.132.453.453,0,0,1,.13.318V40.73a2.314,2.314,0,0,0,.677,1.639,2.25,2.25,0,0,0,1.627.659H34.706a2.282,2.282,0,0,0,2.265-2.3V24.255a.447.447,0,0,1,.443-.45h4.058a.9.9,0,0,0,.824-.519.93.93,0,0,0-.11-.977ZM28.421,40.73a.447.447,0,0,1-.443.45H19.861a.447.447,0,0,1-.443-.45V31.119a.447.447,0,0,1,.443-.45h8.1a.447.447,0,0,1,.443.45ZM39.092,21.712a.443.443,0,0,1-.4.254h-2.6a.913.913,0,0,0-.906.919V40.73a.447.447,0,0,1-.443.45H30.686a.447.447,0,0,1-.443-.45V31.119a2.285,2.285,0,0,0-.665-1.634,2.22,2.22,0,0,0-1.62-.654h-8.1a2.22,2.22,0,0,0-1.61.664,2.285,2.285,0,0,0-.655,1.634V41.18H7.715a.447.447,0,0,1-.443-.45V22.886a.913.913,0,0,0-.906-.919H3.859a.443.443,0,0,1-.4-.262.455.455,0,0,1,.067-.481L19.282,2.606h0a2.775,2.775,0,0,1,3.721,0h0l6.873,8.253a.9.9,0,0,0,1.007.272.919.919,0,0,0,.594-.868v-5.2a.447.447,0,0,1,.443-.45h2.728a.447.447,0,0,1,.443.45V16.022a.987.987,0,0,0,.2.577l3.653,4.635A.454.454,0,0,1,39.092,21.712Z" transform="translate(590 1190.5)" fill="#003575"/>
    <path id="Shape-3" data-name="Shape" d="M24.527,31.844A1.527,1.527,0,0,1,23,30.317v-9.79A1.527,1.527,0,0,1,24.527,19h9.79a1.527,1.527,0,0,1,1.527,1.527v9.79a1.527,1.527,0,0,1-1.527,1.527Zm6.275-5.5a.45.45,0,0,0-.45.45v2.751a.45.45,0,0,0,.45.45h2.751a.45.45,0,0,0,.45-.45V26.793a.45.45,0,0,0-.45-.45Zm-5.5,0a.45.45,0,0,0-.45.45v2.751a.45.45,0,0,0,.45.45h2.751a.45.45,0,0,0,.45-.45V26.793a.45.45,0,0,0-.45-.45Zm5.5-5.5a.45.45,0,0,0-.45.45v2.751a.45.45,0,0,0,.45.45h2.751a.45.45,0,0,0,.45-.45V21.32a.45.45,0,0,0-.45-.45Zm-5.5,0a.45.45,0,0,0-.45.45v2.751a.45.45,0,0,0,.45.45h2.751a.45.45,0,0,0,.45-.45V21.32a.45.45,0,0,0-.45-.45Z" transform="translate(581.771 1183.702)" fill="#003575"/>
    <path id="Rectangle-path-3" data-name="Rectangle-path" d="M38,54h1.927v1.927H38Z" transform="translate(576.404 1171.18)" fill="#003575"/>
  </g>
</svg>
