<svg xmlns="http://www.w3.org/2000/svg" width="41" height="41.001" viewBox="0 0 41 41.001">
  <g id="Raggruppa_9225" data-name="Raggruppa 9225" transform="translate(-287.5 -246.49)">
    <g id="Raggruppa_7147" data-name="Raggruppa 7147" transform="translate(288.858 247.469)">
      <path id="Tracciato_59673" data-name="Tracciato 59673" d="M288.958,286.574V247.541l23.088,9.057v29.976Z" transform="translate(-288.958 -247.541)" fill="#73d7ff"/>
    </g>
    <g id="Raggruppa_7148" data-name="Raggruppa 7148" transform="translate(316.865 261.912)">
      <path id="Tracciato_59674" data-name="Tracciato 59674" d="M319.013,265.932l2.278-2.891h6.523l1.553,3.106v12.787l-2.588,2.278H321.6l-2.278-3.057Z" transform="translate(-319.013 -263.041)" fill="#fff"/>
    </g>
    <g id="Raggruppa_7164" data-name="Raggruppa 7164" transform="translate(287.5 246.49)">
      <g id="Raggruppa_7149" data-name="Raggruppa 7149" transform="translate(18.313 23.546)">
        <rect id="Rettangolo_3779" data-name="Rettangolo 3779" width="1.758" height="1.758" rx="0.2" fill="#003575"/>
      </g>
      <g id="Raggruppa_7150" data-name="Raggruppa 7150" transform="translate(11.773 23.546)">
        <rect id="Rettangolo_3780" data-name="Rettangolo 3780" width="1.758" height="1.758" rx="0.2" fill="#003575"/>
      </g>
      <g id="Raggruppa_7151" data-name="Raggruppa 7151" transform="translate(5.232 23.546)">
        <rect id="Rettangolo_3781" data-name="Rettangolo 3781" width="1.758" height="1.758" rx="0.2" fill="#003575"/>
      </g>
      <g id="Raggruppa_7152" data-name="Raggruppa 7152" transform="translate(18.313 28.778)">
        <rect id="Rettangolo_3782" data-name="Rettangolo 3782" width="1.758" height="1.758" rx="0.2" fill="#003575"/>
      </g>
      <g id="Raggruppa_7153" data-name="Raggruppa 7153" transform="translate(11.773 28.778)">
        <rect id="Rettangolo_3783" data-name="Rettangolo 3783" width="1.758" height="1.758" rx="0.2" fill="#003575"/>
      </g>
      <g id="Raggruppa_7154" data-name="Raggruppa 7154" transform="translate(11.773 34.011)">
        <rect id="Rettangolo_3784" data-name="Rettangolo 3784" width="1.758" height="1.758" rx="0.2" fill="#003575"/>
      </g>
      <g id="Raggruppa_7155" data-name="Raggruppa 7155" transform="translate(5.232 28.778)">
        <rect id="Rettangolo_3785" data-name="Rettangolo 3785" width="1.758" height="1.758" rx="0.2" fill="#003575"/>
      </g>
      <g id="Raggruppa_7156" data-name="Raggruppa 7156" transform="translate(18.313 13.081)">
        <rect id="Rettangolo_3786" data-name="Rettangolo 3786" width="1.758" height="1.758" rx="0.2" fill="#003575"/>
      </g>
      <g id="Raggruppa_7157" data-name="Raggruppa 7157" transform="translate(11.773 13.081)">
        <rect id="Rettangolo_3787" data-name="Rettangolo 3787" width="1.758" height="1.758" rx="0.2" fill="#003575"/>
      </g>
      <g id="Raggruppa_7158" data-name="Raggruppa 7158" transform="translate(5.232 13.081)">
        <rect id="Rettangolo_3788" data-name="Rettangolo 3788" width="1.758" height="1.758" rx="0.2" fill="#003575"/>
      </g>
      <g id="Raggruppa_7159" data-name="Raggruppa 7159" transform="translate(5.232 7.849)">
        <rect id="Rettangolo_3789" data-name="Rettangolo 3789" width="1.758" height="1.758" rx="0.2" fill="#003575"/>
      </g>
      <g id="Raggruppa_7160" data-name="Raggruppa 7160" transform="translate(18.313 18.314)">
        <rect id="Rettangolo_3790" data-name="Rettangolo 3790" width="1.758" height="1.758" rx="0.2" fill="#003575"/>
      </g>
      <g id="Raggruppa_7161" data-name="Raggruppa 7161" transform="translate(11.773 18.314)">
        <rect id="Rettangolo_3791" data-name="Rettangolo 3791" width="1.758" height="1.758" rx="0.2" fill="#003575"/>
      </g>
      <g id="Raggruppa_7162" data-name="Raggruppa 7162" transform="translate(5.232 18.314)">
        <rect id="Rettangolo_3792" data-name="Rettangolo 3792" width="1.758" height="1.758" rx="0.2" fill="#003575"/>
      </g>
      <g id="Raggruppa_7163" data-name="Raggruppa 7163">
        <path id="Tracciato_59675" data-name="Tracciato 59675" d="M288.379,287.491a.88.88,0,0,1-.879-.879V247.37a.88.88,0,0,1,.881-.88.849.849,0,0,1,.315.061l23.547,9.157a.873.873,0,0,1,.56.818V285.3a.43.43,0,0,0,.43.429h7.849a.429.429,0,0,0,.43-.429v-3.925a.429.429,0,0,0-.43-.429,4.81,4.81,0,0,1-4.8-4.8V265.683a4.81,4.81,0,0,1,4.8-4.8H323.7a4.809,4.809,0,0,1,4.8,4.8v10.464a4.809,4.809,0,0,1-4.8,4.8.429.429,0,0,0-.429.429V285.3a.429.429,0,0,0,.429.429h3.925a.879.879,0,0,1,0,1.758Zm18.313-6.991a.88.88,0,0,1,.879.879V285.3a.429.429,0,0,0,.43.429h2.616a.429.429,0,0,0,.43-.429V257.42a.431.431,0,0,0-.274-.4l-20.929-8.138a.43.43,0,0,0-.156-.029.421.421,0,0,0-.242.076.427.427,0,0,0-.187.354V285.3a.429.429,0,0,0,.43.429H292.3a.429.429,0,0,0,.43-.429v-3.925a.879.879,0,0,1,1.757,0V285.3a.429.429,0,0,0,.43.429h10.464a.429.429,0,0,0,.43-.429v-3.925A.88.88,0,0,1,306.692,280.5Zm15.7-10.464a.88.88,0,0,1,.879.879v7.849a.429.429,0,0,0,.429.429,3.049,3.049,0,0,0,3.046-3.045V265.683a3.05,3.05,0,0,0-3.046-3.046h-2.616a3.049,3.049,0,0,0-3.045,3.046v10.464a3.049,3.049,0,0,0,3.045,3.045.429.429,0,0,0,.43-.429v-7.849A.88.88,0,0,1,322.389,270.036Z" transform="translate(-287.5 -246.49)" fill="#003575"/>
      </g>
    </g>
  </g>
</svg>
