<svg xmlns="http://www.w3.org/2000/svg" width="17.533" height="15.585" viewBox="0 0 17.533 15.585">
  <path id="Icon_awesome-external-link-alt" data-name="Icon awesome-external-link-alt" d="M17.533.731v3.9a.731.731,0,0,1-1.247.517L15.2,4.056,7.786,11.469a.731.731,0,0,1-1.033,0l-.689-.689a.731.731,0,0,1,0-1.033l7.413-7.413L12.391,1.247A.731.731,0,0,1,12.907,0h3.9A.731.731,0,0,1,17.533.731ZM12.39,8.243,11.9,8.73a.731.731,0,0,0-.214.517v4.39H1.948V3.9H9.984a.731.731,0,0,0,.517-.214l.487-.487a.731.731,0,0,0-.517-1.247H1.461A1.461,1.461,0,0,0,0,3.409V14.124a1.461,1.461,0,0,0,1.461,1.461H12.176a1.461,1.461,0,0,0,1.461-1.461V8.759A.731.731,0,0,0,12.39,8.243Z"/>
</svg>
