<svg xmlns="http://www.w3.org/2000/svg" width="10.1" height="13.467" viewBox="0 0 10.1 13.467">
  <path id="Icon_awesome-file-pdf" data-name="Icon awesome-file-pdf" d="M4.784,6.736A2.538,2.538,0,0,1,4.732,5.5C4.953,5.5,4.932,6.473,4.784,6.736ZM4.74,7.977a12.136,12.136,0,0,1-.747,1.649A9.685,9.685,0,0,1,5.647,9.05,3.407,3.407,0,0,1,4.74,7.977ZM2.265,11.26c0,.021.347-.142.918-1.057A3.635,3.635,0,0,0,2.265,11.26ZM6.523,4.208H10.1v8.627a.63.63,0,0,1-.631.631H.631A.63.63,0,0,1,0,12.835V.631A.63.63,0,0,1,.631,0h5.26V3.577A.633.633,0,0,0,6.523,4.208Zm-.21,4.519A2.64,2.64,0,0,1,5.189,7.312a3.781,3.781,0,0,0,.163-1.689A.659.659,0,0,0,4.1,5.444,4.373,4.373,0,0,0,4.308,7.47,24.7,24.7,0,0,1,3.235,9.726s0,0-.005,0c-.713.366-1.936,1.17-1.433,1.789a.817.817,0,0,0,.565.263c.471,0,.939-.473,1.607-1.625a14.992,14.992,0,0,1,2.078-.61,3.986,3.986,0,0,0,1.683.513.681.681,0,0,0,.518-1.142c-.366-.358-1.428-.255-1.936-.189Zm3.6-5.965L7.338.184A.631.631,0,0,0,6.891,0H6.733V3.367H10.1v-.16A.629.629,0,0,0,9.916,2.762ZM7.967,9.477c.108-.071-.066-.313-1.126-.237C7.817,9.655,7.967,9.477,7.967,9.477Z" fill="#b8191a"/>
</svg>
